SplineFontDB: 1.0
FontName: Kinnari-BoldOblique
FullName: Kinnari Bold Oblique
FamilyName: Kinnari
Weight: Bold
Copyright: KinnariBoldItalic by Db Type : Fontographer 3.5
Version: 001.000
ItalicAngle: -12
UnderlinePosition: -70
UnderlineWidth: 25
Ascent: 800
Descent: 200
NeedsXUIDChange: 1
FSType: 0
PfmFamily: 17
TTFWeight: 700
TTFWidth: 5
Panose: 0 0 0 0 0 0 0 0 0 0
LineGap: 138
VLineGap: 0
OS2WinAscent: 0
OS2WinAOffset: 1
OS2WinDescent: 0
OS2WinDOffset: 1
HheadAscent: 0
HheadAOffset: 1
HheadDescent: 0
HheadDOffset: 1
ScriptLang: 5
 1 DFLT 1 dflt 
 1 thai 4 KUY  PAL  THA  dflt 
 1 latn 1 dflt 
 1 thai 1 dflt 
 1 thai 1 PAL  
ContextSub: glyph 0 4 ' RQD' 0 0 0 1
 String: 15 uni0E0D uni0E10
 BString: 0 
 FString: 0 
 1
  SeqLookup: 0 'nds0'
EndFPST
ChainSub: coverage 0 1 'ccmp' 0 0 0 1
 2 0 0
  Coverage: 19 uni0E4B uni0E4B.low
  Coverage: 7 uni0E4D
 2
  SeqLookup: 0 'amni'
  SeqLookup: 1 'G006'
EndFPST
ChainSub: coverage 0 1 'ccmp' 0 0 0 1
 2 0 0
  Coverage: 19 uni0E4A uni0E4A.low
  Coverage: 7 uni0E4D
 2
  SeqLookup: 0 'amni'
  SeqLookup: 1 'G005'
EndFPST
ChainSub: coverage 0 1 'ccmp' 0 0 0 1
 2 0 0
  Coverage: 19 uni0E49 uni0E49.low
  Coverage: 7 uni0E4D
 2
  SeqLookup: 0 'amni'
  SeqLookup: 1 'G004'
EndFPST
ChainSub: coverage 0 1 'ccmp' 0 0 0 1
 2 0 0
  Coverage: 19 uni0E48 uni0E48.low
  Coverage: 7 uni0E4D
 2
  SeqLookup: 0 'amni'
  SeqLookup: 1 'G003'
EndFPST
ChainSub: coverage 0 1 'ccmp' 0 0 0 1
 1 0 1
  Coverage: 15 uni0E0D uni0E10
  FCoverage: 23 uni0E38 uni0E39 uni0E3A
 1
  SeqLookup: 0 'ndsc'
EndFPST
ChainSub: coverage 0 1 'ccmp' 0 0 0 1
 1 2 0
  Coverage: 39 uni0E48 uni0E49 uni0E4A uni0E4B uni0E4C
  BCoverage: 23 uni0E38 uni0E39 uni0E3A

StartChar: .notdef
Encoding: 0 -1 0
Width: 384
Flags: W
HStem: 0 23<28 384> 568 23<126 482>
DStem: 126 591 144 568 0 0 28 23 482 568 510 591 366 23 384 0
Fore
144 568 m 1
 28 23 l 1
 366 23 l 1
 482 568 l 1
 144 568 l 1
384 0 m 1
 0 0 l 1
 126 591 l 1
 510 591 l 1
 384 0 l 1
EndSplineSet
EndChar
StartChar: exclam
Encoding: 33 33 2
Width: 333
Flags: W
HStem: -14 140<163 201>
Fore
395 608 m 0
 395 608 l 0
 390 591 384 573 378 558 c 2
 232 177 l 1
 197 177 l 1
 255 559 l 1
 258 574 260 591 264 608 c 0
 275 647 304 700 355 700 c 0
 409 700 406 647 395 608 c 0
250 54 m 0
 240 14 200 -14 163 -14 c 0
 129 -14 101 17 111 54 c 0
 121 92 160 126 201 126 c 0
 240 126 261 92 250 54 c 0
EndSplineSet
EndChar
StartChar: quotedbl
Encoding: 34 34 3
Width: 407
Flags: W
Fore
524 651 m 0
 433 444 l 1
 392 444 l 1
 413 651 l 1
 415 679 453 708 484 708 c 0
 516 708 538 680 524 651 c 0
344 651 m 1
 252 444 l 1
 210 444 l 1
 233 651 l 1
 235 680 272 708 304 708 c 0
 335 708 355 679 344 651 c 1
EndSplineSet
EndChar
StartChar: numbersign
Encoding: 35 35 4
Width: 499
Flags: W
HStem: 0 21G<65 147 258 341> 217 78<70 155 270 347 462 541> 217 267<147 347 350 541> 404 80<146 235 350 425 541 614>
DStem: 155 217 238 217 65 0 147 0 235 404 318 404 187 295 270 295 347 217 430 217 258 0 341 0 353 687 436 687 267 484 350 484 425 404 508 404 379 295 462 295 544 687 625 687 458 484 541 484
Fore
614 404 m 1x90
 508 404 l 1
 462 295 l 1
 561 295 l 1
 541 217 l 1xd0
 430 217 l 1xa0
 341 0 l 1
 258 0 l 1
 347 217 l 1xc0
 238 217 l 1xa0
 147 0 l 1
 65 0 l 1
 155 217 l 1xc0
 51 217 l 1xa0
 71 295 l 1
 187 295 l 1
 235 404 l 1
 126 404 l 1xd0
 147 484 l 1
 267 484 l 1
 353 687 l 1
 436 687 l 1
 350 484 l 1
 458 484 l 1
 544 687 l 1
 625 687 l 1
 541 484 l 1xa0
 636 484 l 1
 614 404 l 1x90
425 404 m 1
 318 404 l 1
 270 295 l 1
 379 295 l 1
 425 404 l 1
EndSplineSet
EndChar
StartChar: dollar
Encoding: 36 36 5
Width: 499
Flags: W
DStem: 215 -12 273 -11 192 -100 250 -100 300 303 349 272 229 40 287 41 386 622 444 622 333 430 382 398 416 739 475 739 399 674 458 674
Fore
516 178 m 0
 516 178 l 0
 485 61 381 0 273 -11 c 1
 250 -100 l 1
 192 -100 l 1
 215 -12 l 1
 152 -11 94 8 45 43 c 1
 84 194 l 1
 123 194 l 1
 112 100 147 46 229 40 c 1
 300 303 l 1
 233 347 149 406 177 508 c 0
 204 613 303 667 399 674 c 1
 416 739 l 1
 475 739 l 1
 458 674 l 1
 511 670 564 653 601 616 c 1
 567 487 l 1
 530 487 l 1
 538 564 507 613 444 622 c 1
 382 398 l 1
 459 349 548 298 516 178 c 0
333 430 m 0
 386 622 l 0
 352 614 295 581 283 533 c 0
 269 481 303 456 333 430 c 0
407 152 m 0
 422 210 389 244 349 272 c 1
 287 41 l 1
 346 54 390 92 407 152 c 0
EndSplineSet
EndChar
StartChar: percent
Encoding: 37 37 6
Width: 832
Flags: W
HStem: -11 56<573 599> 290 60<258 292> 327 57<761 770> 636 54<445 461>
DStem: 685 604 843 703 177 -11 253 -11
Fore
843 703 m 1xd0
 253 -11 l 1
 177 -11 l 1
 685 604 l 1
 634 588 584 585 548 591 c 1
 548 579 548 565 545 554 c 0
 507 412 350 290 258 290 c 0
 174 290 141 346 167 439 c 0
 197 553 343 690 461 690 c 0
 498 690 519 680 539 654 c 1
 558 637 578 634 607 634 c 0
 662 634 722 659 768 703 c 1
 843 703 l 1xd0
854 263 m 0
 854 263 l 0
 809 98 664 -11 573 -11 c 0
 461 -11 452 55 473 138 c 0
 504 252 650 384 768 384 c 0xb0
 843 384 869 321 854 263 c 0
498 568 m 0
 498 568 l 0
 501 581 501 593 502 605 c 1
 473 616 467 636 452 636 c 0
 416 636 293 541 260 412 c 0
 250 376 253 350 292 350 c 1xd0
 387 359 473 478 498 568 c 0
802 257 m 0
 811 290 802 327 763 327 c 0xb0
 714 327 668 275 637 235 c 0
 561 131 527 45 599 45 c 0
 687 45 782 181 802 257 c 0
EndSplineSet
EndChar
StartChar: ampersand
Encoding: 38 38 7
Width: 777
Flags: W
HStem: -11 79<217 281> 433 20G<604 843> 647 56<524 544>
Fore
800 120 m 1
 800 120 l 0
 717 31 668 -11 596 -11 c 0
 528 -11 484 31 449 75 c 1
 378 25 293 -11 217 -11 c 0
 97 -11 45 51 74 160 c 0
 104 273 238 356 327 398 c 1
 323 441 321 485 333 531 c 0
 358 625 447 703 544 703 c 0
 624 703 677 656 656 571 c 0
 631 482 541 427 459 393 c 1
 476 330 498 270 524 214 c 1
 568 255 634 326 647 373 c 0
 653 396 642 407 593 412 c 1
 604 453 l 1
 843 453 l 1
 833 412 l 1
 760 402 742 378 703 332 c 0
 653 270 582 195 553 164 c 1
 578 123 608 86 667 86 c 0
 702 86 733 106 770 146 c 1
 800 120 l 1
579 574 m 0
 579 574 l 0
 590 613 571 647 533 647 c 0
 481 647 456 607 444 564 c 0
 435 530 441 481 447 449 c 1
 502 473 564 518 579 574 c 0
419 121 m 1
 384 189 359 264 338 341 c 1
 270 304 217 263 197 187 c 0
 180 126 220 68 281 68 c 0
 316 68 373 91 419 121 c 1
EndSplineSet
EndChar
StartChar: quotesingle
Encoding: 39 39 8
Width: 179
Flags: W
Fore
319 650 m 2
 229 442 l 1
 187 442 l 1
 209 650 l 1
 210 679 247 707 280 707 c 0
 310 707 332 677 319 650 c 2
EndSplineSet
EndChar
StartChar: parenleft
Encoding: 40 40 9
Width: 333
Flags: W
Fore
281 -147 m 1
 246 -181 l 1
 131 -86 52 55 109 272 c 0
 158 450 287 599 488 707 c 1
 499 667 l 1
 335 571 261 432 221 281 c 0
 178 120 158 -23 281 -147 c 1
EndSplineSet
EndChar
StartChar: parenright
Encoding: 41 41 10
Width: 333
Flags: W
Fore
362 244 m 0
 315 68 170 -86 -14 -181 c 1
 -26 -146 l 1
 141 -48 212 91 252 241 c 0
 295 404 316 561 192 668 c 1
 227 705 l 1
 269 679 439 533 362 244 c 0
EndSplineSet
EndChar
StartChar: asterisk
Encoding: 42 42 11
Width: 499
Flags: W
Fore
547 372 m 0
 508 327 468 349 453 379 c 0
 441 402 425 418 392 447 c 1
 384 404 387 370 387 343 c 0
 387 309 370 257 321 257 c 0
 269 257 280 307 303 343 c 0
 321 370 332 396 349 447 c 1
 298 421 273 404 250 379 c 1
 218 350 167 327 152 373 c 0
 140 416 194 445 227 455 c 1
 255 459 292 468 332 485 c 1
 295 507 273 515 246 518 c 1
 212 525 175 551 214 598 c 0
 250 641 290 616 309 591 c 0
 324 571 339 545 369 521 c 1
 379 571 381 596 378 624 c 0
 373 659 390 710 442 710 c 0
 492 710 481 657 462 624 c 0
 447 598 429 562 412 521 c 1
 452 545 482 574 507 594 c 0
 539 619 591 642 605 599 c 0
 619 556 570 527 530 522 c 0
 499 516 472 504 419 484 c 1
 455 467 488 459 515 453 c 0
 545 444 582 415 547 372 c 0
EndSplineSet
EndChar
StartChar: plus
Encoding: 43 43 12
Width: 563
Flags: W
HStem: 241 89<107 303 415 610>
DStem: 303 241 390 241 243 20 330 20 386 548 473 548 327 330 415 330
Fore
610 241 m 1
 390 241 l 1
 330 20 l 1
 243 20 l 1
 303 241 l 1
 83 241 l 1
 108 330 l 1
 327 330 l 1
 386 548 l 1
 473 548 l 1
 415 330 l 1
 634 330 l 1
 610 241 l 1
EndSplineSet
EndChar
StartChar: comma
Encoding: 44 44 13
Width: 250
Flags: W
HStem: -22 20G<142.5 148>
Fore
220 18 m 0
 204 -40 114 -120 46 -143 c 1
 37 -103 l 1
 80 -84 141 -35 149 -5 c 0
 149 -3 149 -2 147 -2 c 0
 138 -2 123 -5 114 -5 c 0
 80 -2 55 20 66 57 c 0
 78 103 112 129 158 129 c 0
 226 129 233 69 220 18 c 0
EndSplineSet
EndChar
StartChar: hyphen
Encoding: 45 45 14
Width: 333
Flags: W
HStem: 241 88<117 366>
Fore
366 241 m 1
 95 241 l 1
 118 329 l 1
 389 329 l 1
 366 241 l 1
EndSplineSet
EndChar
StartChar: period
Encoding: 46 46 15
Width: 250
Flags: W
HStem: -11 21G<102.5 140.5>
Fore
210 58 m 0
 200 17 160 -11 121 -11 c 0
 84 -11 61 23 71 58 c 0
 81 95 121 129 160 129 c 0
 198 129 221 100 210 58 c 0
EndSplineSet
EndChar
StartChar: slash
Encoding: 47 47 16
Width: 278
Flags: W
DStem: 421 710 510 710 -57 -104 32 -104
Fore
510 710 m 1
 32 -104 l 1
 -57 -104 l 1
 421 710 l 1
 510 710 l 1
EndSplineSet
EndChar
StartChar: zero
Encoding: 48 48 17
Width: 537
Flags: W
HStem: -14 52<258 280> 650 50<434 455>
Fore
596 339 m 0
 596 339 l 0
 558 197 444 -14 258 -14 c 0
 111 -14 68 143 121 346 c 0
 161 495 273 700 453 700 c 0
 610 700 651 544 596 339 c 0
475 338 m 0
 521 508 536 650 445 650 c 0
 338 650 281 485 238 326 c 0
 200 184 177 38 280 38 c 0
 387 38 435 192 475 338 c 0
EndSplineSet
EndChar
StartChar: one
Encoding: 49 49 18
Width: 537
Flags: W
HStem: 0 21G<129 427>
DStem: 367 541 524 708 247 92 358 92
Fore
427 0 m 1
 129 0 l 1
 138 37 l 1
 221 43 238 55 247 92 c 1
 367 541 l 1
 386 605 355 588 270 561 c 1
 280 599 l 1
 524 708 l 1
 358 92 l 1
 349 55 359 43 436 37 c 1
 427 0 l 1
EndSplineSet
MinimumDistance: x2,9 
EndChar
StartChar: two
Encoding: 50 50 19
Width: 537
Flags: W
HStem: 0 101<207 450> 604 96<379 456>
DStem: 270 214 386 247 51 31 207 101
Fore
554 155 m 1
 450 0 l 1
 40 0 l 1
 51 31 l 1
 270 214 l 2
 352 281 449 373 475 472 c 0
 496 551 459 604 379 604 c 0
 307 604 255 542 209 470 c 1
 169 484 l 1
 227 613 329 700 456 700 c 0
 561 700 625 617 596 513 c 0
 571 416 505 346 386 247 c 2
 207 101 l 1
 392 101 l 2
 459 101 465 104 528 172 c 1
 554 155 l 1
EndSplineSet
EndChar
StartChar: three
Encoding: 51 51 20
Width: 537
Flags: W
HStem: -11 115<132 180> 619 84<398 453>
Fore
527 229 m 0
 484 71 323 -11 180 -11 c 0
 137 -11 54 -3 71 58 c 0
 78 88 104 104 132 104 c 0
 181 104 201 49 261 49 c 0
 336 49 399 111 419 183 c 0
 447 287 402 333 253 333 c 1
 261 369 l 1
 349 393 445 435 470 525 c 0
 485 582 455 619 398 619 c 0
 336 619 284 584 226 513 c 1
 192 524 l 1
 263 641 352 703 453 703 c 0
 567 703 604 642 581 558 c 0
 564 495 518 452 464 419 c 1
 530 382 553 326 527 229 c 0
EndSplineSet
EndChar
StartChar: four
Encoding: 52 52 21
Width: 537
Flags: W
HStem: 0 21G<303 404> 157 87<164 344 470 547>
DStem: 344 157 445 157 303 0 404 0 445 531 588 690 369 244 470 244 522 690 445 531 84 237 164 244
Fore
547 157 m 1
 445 157 l 1
 404 0 l 1
 303 0 l 1
 344 157 l 1
 63 157 l 1
 84 237 l 1
 522 690 l 1
 588 690 l 1
 470 244 l 1
 571 244 l 1
 547 157 l 1
369 244 m 1
 445 531 l 1
 164 244 l 1
 369 244 l 1
EndSplineSet
EndChar
StartChar: five
Encoding: 53 53 22
Width: 537
Flags: W
HStem: -11 123<131 177> 585 105<372 578>
DStem: 373 690 369 585 194 444 321 522
Fore
664 700 m 1
 578 585 l 1
 369 585 l 1
 321 522 l 1
 470 495 579 442 525 243 c 0
 484 86 332 -11 177 -11 c 0
 132 -11 51 -3 57 54 c 0
 61 89 92 112 131 112 c 0
 194 112 200 49 253 49 c 0
 333 49 399 123 424 210 c 0
 464 359 327 407 209 415 c 1
 192 418 187 432 194 444 c 1
 373 690 l 1
 578 690 l 2
 604 690 610 690 642 719 c 1
 664 700 l 1
EndSplineSet
EndChar
StartChar: six
Encoding: 54 54 23
Width: 537
Flags: W
HStem: -11 52<283 312> 386 69<370 425>
Fore
564 229 m 0
 564 229 l 0
 530 103 418 -11 283 -11 c 0
 151 -11 72 97 123 289 c 0
 183 511 379 671 596 702 c 0
 614 703 633 710 670 710 c 1
 664 670 l 1
 619 659 588 657 551 641 c 0
 461 604 362 538 306 422 c 1
 346 442 384 455 425 455 c 0
 550 455 601 369 564 229 c 0
450 240 m 0
 461 315 452 386 370 386 c 0
 339 386 303 375 273 356 c 0
 270 353 270 353 267 352 c 1
 250 327 243 296 233 263 c 0
 200 137 220 41 312 41 c 0
 381 41 433 131 450 240 c 0
EndSplineSet
EndChar
StartChar: seven
Encoding: 55 55 24
Width: 537
Flags: W
HStem: -11 21G<172 264> 590 100<280 533>
DStem: 533 590 660 660 172 -11 264 -11
Fore
660 660 m 1
 264 -11 l 1
 172 -11 l 1
 533 590 l 1
 346 590 l 2
 278 590 260 573 201 507 c 1
 170 525 l 1
 280 690 l 1
 668 690 l 1
 660 660 l 1
EndSplineSet
EndChar
StartChar: eight
Encoding: 56 56 25
Width: 537
Flags: W
HStem: -11 49<263 292> 653 50<437 462>
Fore
522 169 m 0
 522 169 l 0
 492 54 370 -11 263 -11 c 0
 158 -11 78 52 109 167 c 0
 132 250 209 304 280 347 c 1
 235 406 189 442 217 542 c 0
 235 616 330 703 462 703 c 0
 548 703 631 653 605 554 c 0
 582 470 510 421 436 386 c 1
 492 330 550 267 522 169 c 0
510 551 m 0
 510 551 l 0
 527 611 498 653 439 653 c 0
 387 653 335 619 321 565 c 0
 303 501 353 452 393 419 c 1
 449 449 495 495 510 551 c 0
415 141 m 0
 436 221 364 270 315 312 c 0
 313 312 313 310 313 310 c 2
 267 280 224 226 212 178 c 0
 192 101 212 38 292 38 c 0
 350 38 398 83 415 141 c 0
EndSplineSet
EndChar
StartChar: nine
Encoding: 57 57 26
Width: 537
Flags: W
HStem: 240 67<298 356> 653 50<429 456>
Fore
564 304 m 0
 564 304 l 0
 502 195 379 69 241 17 c 0
 175 -9 111 -20 68 -20 c 1
 72 23 l 1
 146 35 243 61 330 147 c 0
 369 186 407 232 436 280 c 1
 386 253 339 240 298 240 c 0
 184 240 129 324 166 462 c 0
 189 550 286 703 456 703 c 0
 550 703 607 636 616 551 c 0
 622 476 610 387 564 304 c 0
488 429 m 0
 510 510 535 653 429 653 c 0
 349 653 307 554 290 492 c 0
 269 412 261 307 356 307 c 0
 384 307 438 326 464 350 c 1
 473 375 481 399 488 429 c 0
EndSplineSet
EndChar
StartChar: colon
Encoding: 58 58 27
Width: 278
Flags: W
HStem: -8 140<138 175> 392 139<244 283>
Fore
333 461 m 0
 333 461 l 0
 323 419 283 392 244 392 c 0
 204 392 184 425 194 461 c 0
 204 498 241 531 283 531 c 0
 319 531 346 502 333 461 c 0
227 61 m 0
 215 20 177 -8 138 -8 c 0
 98 -8 78 26 88 61 c 0
 97 98 134 132 175 132 c 0
 212 132 238 103 227 61 c 0
EndSplineSet
EndChar
StartChar: semicolon
Encoding: 59 59 28
Width: 278
Flags: W
HStem: -5 134<129 174> 392 139<244 283>
Fore
333 464 m 0
 333 464 l 0
 324 429 280 392 244 392 c 0
 203 392 184 429 194 464 c 0
 203 499 246 531 283 531 c 0
 318 531 343 499 333 464 c 0
235 18 m 0
 220 -40 129 -120 61 -143 c 1
 52 -103 l 1
 95 -84 157 -35 164 -5 c 0
 164 -3 164 -2 163 -2 c 0
 154 -2 138 -5 129 -5 c 0
 95 -2 71 20 81 57 c 0
 94 103 127 129 174 129 c 0
 237 129 250 72 235 18 c 0
EndSplineSet
EndChar
StartChar: less
Encoding: 60 60 29
Width: 563
Flags: W
DStem: 75 226 206 261 544 -18 567 71 693 541 670 452 94 295 206 261
Fore
544 -18 m 1
 75 226 l 1
 94 295 l 1
 693 541 l 1
 670 452 l 1
 206 261 l 1
 567 71 l 1
 544 -18 l 1
EndSplineSet
EndChar
StartChar: equal
Encoding: 61 61 30
Width: 563
Flags: W
HStem: 120 89<73 578> 313 89<125 630>
Fore
630 313 m 1
 103 313 l 1
 126 402 l 1
 653 402 l 1
 630 313 l 1
578 120 m 1
 51 120 l 1
 74 209 l 1
 601 209 l 1
 578 120 l 1
EndSplineSet
EndChar
StartChar: greater
Encoding: 62 62 31
Width: 563
Flags: W
DStem: 140 467 164 556 501 276 631 310 501 276 613 241 38 86 14 -3
Fore
613 241 m 1
 14 -3 l 1
 38 86 l 1
 501 276 l 1
 140 467 l 1
 164 556 l 1
 631 310 l 1
 613 241 l 1
EndSplineSet
EndChar
StartChar: question
Encoding: 63 63 32
Width: 443
Flags: W
HStem: -14 140<214 250> 647 53<369 404>
Fore
548 530 m 0
 548 530 l 0
 531 462 472 399 421 355 c 0
 352 293 307 230 280 164 c 1
 240 164 l 1
 284 332 396 398 432 528 c 0
 449 588 433 647 369 647 c 0
 336 647 273 624 275 585 c 0
 275 576 280 576 284 567 c 0
 293 550 296 542 290 522 c 0
 281 490 253 470 220 470 c 0
 177 470 175 515 184 548 c 0
 210 645 316 700 404 700 c 0
 525 700 571 614 548 530 c 0
301 55 m 0
 290 15 247 -14 214 -14 c 0
 178 -14 151 18 161 55 c 0
 170 92 215 126 250 126 c 0
 284 126 310 94 301 55 c 0
EndSplineSet
EndChar
StartChar: at
Encoding: 64 64 33
Width: 920
Flags: W
HStem: -155 64<448 482> 40 68<670 696> 427 71<637 646> 636 63<656 696>
Fore
972 343 m 0
 972 343 l 0
 928 177 776 40 670 40 c 0
 636 40 579 49 567 109 c 1
 518 66 452 41 412 41 c 0
 335 41 290 86 319 197 c 0
 361 349 525 498 644 498 c 0
 685 498 708 478 720 455 c 1
 736 484 l 1
 848 484 l 1
 674 154 l 2
 659 124 673 108 696 108 c 0
 766 108 877 232 906 341 c 0
 954 518 825 636 671 636 c 0
 465 636 276 427 233 261 c 0
 194 115 195 -91 470 -91 c 0
 564 -91 685 -55 753 -2 c 1
 771 -14 l 1
 731 -81 l 1
 731 -81 613 -155 452 -155 c 0
 243 -155 34 -35 115 269 c 0
 161 441 373 699 688 699 c 0
 819 699 1044 611 972 343 c 0
665 356 m 0
 680 410 664 427 639 427 c 0
 588 427 476 344 435 187 c 0
 419 134 425 109 462 109 c 0
 493 109 542 147 556 166 c 0
 576 189 647 287 665 356 c 0
EndSplineSet
EndChar
StartChar: A
Encoding: 65 65 34
Width: 721
Flags: W
HStem: 0 45<210 238> 217 64<310 511>
DStem: 467 513 564 690 504 281 656 134 519 690 467 513 190 210 310 281
Fore
717 0 m 1
 438 0 l 1
 450 45 l 1
 533 48 533 65 522 138 c 1
 511 217 l 1
 267 217 l 1
 241 177 186 108 177 74 c 0
 169 48 200 45 238 45 c 1
 226 0 l 1
 3 0 l 1
 15 43 l 1
 86 49 127 120 190 210 c 2
 519 690 l 1
 564 690 l 1
 656 134 l 1
 662 98 665 41 730 45 c 1
 717 0 l 1
504 281 m 1
 467 513 l 1
 310 281 l 1
 504 281 l 1
EndSplineSet
EndChar
StartChar: B
Encoding: 66 66 35
Width: 666
Flags: W
HStem: 0 45<20 47.2461> 0 61<295 345> 645 45<181 201>
DStem: 264 598 390 598 129 92 335 390 264 598 318 326 129 92 258 103
Fore
660 195 m 0xa0
 660 195 l 0
 627 69 499 0 335 0 c 2
 8 0 l 1x60
 20 45 l 1
 101 45 123 68 129 92 c 1
 264 598 l 2
 270 621 263 645 181 645 c 1
 192 690 l 1
 472 690 l 2
 634 690 746 642 711 508 c 0
 691 433 637 386 570 361 c 1
 636 335 684 281 660 195 c 0xa0
582 505 m 0
 582 505 l 0
 601 574 568 611 508 622 c 1
 430 628 398 625 390 598 c 2
 335 390 l 1
 404 390 l 2
 496 390 562 432 582 505 c 0
521 197 m 0
 551 309 444 326 355 326 c 2
 318 326 l 1
 258 103 l 2
 250 74 257 61 316 61 c 0
 413 61 493 89 521 197 c 0
EndSplineSet
EndChar
StartChar: C
Encoding: 67 67 36
Width: 666
Flags: W
HStem: -14 69<373 401> 450 250<562 757> 634 66<544 564>
Fore
684 123 m 1xa0
 594 38 473 -14 373 -14 c 0
 172 -14 52 115 114 343 c 0
 169 548 353 700 562 700 c 0
 691 700 717 614 774 699 c 1
 816 699 l 1
 757 450 l 1
 713 450 l 1xc0
 711 562 664 634 554 634 c 0
 398 634 296 507 250 335 c 0
 215 201 246 55 401 55 c 0
 496 55 567 86 664 163 c 1
 684 123 l 1xa0
EndSplineSet
EndChar
StartChar: D
Encoding: 68 68 37
Width: 721
Flags: W
HStem: 0 45<20 44.862> 627 63<192 464> 645 45<181 201>
DStem: 255 598 381 588 120 92 250 103
Fore
793 344 m 0xc0
 793 344 l 0
 737 135 562 0 286 0 c 2
 8 0 l 1
 20 45 l 1
 94 45 114 68 120 92 c 1
 255 598 l 2
 261 621 255 645 181 645 c 1xa0
 192 690 l 1
 462 690 l 2
 725 690 854 576 793 344 c 0xc0
659 343 m 0
 710 531 611 627 435 627 c 0xc0
 398 627 390 627 381 588 c 1
 250 103 l 2
 243 75 260 68 276 66 c 0
 470 57 611 166 659 343 c 0
EndSplineSet
EndChar
StartChar: E
Encoding: 69 69 38
Width: 609
Flags: W
HStem: 0 45<12 36.3163> 0 66<241 561> 326 66<319 449> 522 168<184 694> 624 66<184 587> 645 45<174 193>
DStem: 247 598 375 598 112 92 319 392 247 598 303 326 112 92 240 92
Fore
665 194 m 1x68
 561 0 l 1
 0 0 l 1x68
 12 45 l 1
 84 45 106 68 112 92 c 1
 247 598 l 2
 253 621 246 645 174 645 c 1xa4
 184 690 l 1x30
 739 690 l 1x24
 694 522 l 1
 650 522 l 1x30
 654 581 636 624 574 624 c 2
 413 624 l 2
 396 624 379 614 375 598 c 2
 319 392 l 1
 447 392 l 2
 507 392 564 406 585 487 c 1
 630 487 l 1
 561 229 l 1
 516 229 l 1
 538 310 490 326 430 326 c 2
 303 326 l 1
 240 92 l 2
 237 81 233 66 246 66 c 2
 378 66 l 2
 453 66 527 68 613 194 c 1
 665 194 l 1x68
EndSplineSet
EndChar
StartChar: F
Encoding: 70 70 39
Width: 556
Flags: W
HStem: 0 45<12 36.3163 301 316> 326 66<319 440> 522 168<184 696> 624 66<184 593> 645 45<174 193>
DStem: 247 598 375 598 112 92 319 392 247 598 303 326 112 92 240 92
Fore
696 522 m 1xe0
 648 522 l 1xe0
 665 633 608 624 544 624 c 2
 412 624 l 2xd0
 389 624 379 613 375 598 c 1
 319 392 l 1
 438 392 l 2
 498 392 554 406 576 487 c 1
 622 487 l 1
 553 229 l 1
 507 229 l 1
 528 310 481 326 421 326 c 2
 303 326 l 1
 240 92 l 1
 233 68 241 45 316 45 c 1
 304 0 l 1
 0 0 l 1
 12 45 l 1
 84 45 106 68 112 92 c 1
 247 598 l 2
 253 621 246 645 174 645 c 1xc8
 184 690 l 1xe0
 740 690 l 1xc8
 696 522 l 1xe0
EndSplineSet
MinimumDistance: x17,14 
EndChar
StartChar: G
Encoding: 71 71 40
Width: 721
Flags: W
HStem: -14 66<379 409> 336 45<527 552 538 806> 464 236<558 760> 636 64<528 572>
DStem: 593 260 714 260 553 111 662 61
Fore
806 336 m 1xd0
 739 336 728 307 714 260 c 1
 662 61 l 1
 588 26 462 -14 379 -14 c 0
 203 -14 41 98 106 341 c 0
 161 547 350 700 558 700 c 0xe0
 673 700 727 622 773 700 c 1
 816 700 l 1xd0
 760 464 l 1
 717 464 l 1xe0
 708 573 662 636 550 636 c 0
 392 636 289 501 244 333 c 0
 204 186 249 52 409 52 c 0
 444 52 485 58 522 72 c 0
 545 83 547 88 553 111 c 2
 593 260 l 1
 607 309 610 336 527 336 c 1
 538 381 l 1
 817 381 l 1
 806 336 l 1xd0
EndSplineSet
MinimumDistance: x16,0 
EndChar
StartChar: H
Encoding: 72 72 41
Width: 721
Flags: W
HStem: 0 45<20 44.862 307 323 424 448.903 711 727> 321 66<327 587> 645 45<187 206.44 187 484 585 607 596 888>
DStem: 255 598 382 598 120 92 327 387 255 598 309 321 120 92 247 92 587 321 786 598 525 92 651 92 660 598 786 598 605 387 651 92
Fore
714 0 m 1
 412 0 l 1
 424 45 l 1
 498 45 519 68 525 92 c 1
 587 321 l 1
 309 321 l 1
 247 92 l 1
 241 68 249 45 323 45 c 1
 310 0 l 1
 8 0 l 1
 20 45 l 1
 94 45 114 68 120 92 c 1
 255 598 l 2
 261 621 255 645 183 645 c 1
 187 690 l 1
 495 690 l 1
 484 645 l 1
 410 645 389 621 382 598 c 2
 327 387 l 1
 605 387 l 1
 660 598 l 2
 667 621 659 645 585 645 c 1
 596 690 l 1
 899 690 l 1
 888 645 l 1
 816 645 793 621 786 598 c 2
 651 92 l 1
 645 68 654 45 727 45 c 1
 714 0 l 1
EndSplineSet
MinimumDistance: x21,24 x13,16 x10,27 x13,24 x2,27 x10,7 
EndChar
StartChar: I
Encoding: 73 73 42
Width: 333
Flags: W
HStem: 0 45<18 45.878 325 341> 645 45<180 199 190 502>
DStem: 264 598 390 598 129 92 255 92
Fore
329 0 m 1
 6 0 l 1
 18 45 l 1
 101 45 123 68 129 92 c 1
 264 598 l 2
 270 621 263 645 180 645 c 1
 190 690 l 1
 513 690 l 1
 502 645 l 1
 419 645 396 621 390 598 c 2
 255 92 l 1
 249 68 258 45 341 45 c 1
 329 0 l 1
EndSplineSet
MinimumDistance: x2,11 x5,8 
EndChar
StartChar: J
Encoding: 74 74 43
Width: 388
Flags: W
HStem: -14 146<92 109> 645 45<240 256 250 562>
DStem: 324 598 450 598 198 126 347 210
Fore
562 645 m 1
 479 645 456 621 450 598 c 2
 347 210 l 1
 306 60 207 -14 109 -14 c 0
 75 -14 12 0 15 54 c 1
 17 71 l 1
 25 100 58 132 94 132 c 0
 134 132 146 100 140 86 c 0
 132 72 135 49 149 49 c 0
 174 49 189 91 198 126 c 2
 324 598 l 2
 330 621 323 645 240 645 c 1
 250 690 l 1
 573 690 l 1
 562 645 l 1
EndSplineSet
MinimumDistance: x11,0 
EndChar
StartChar: K
Encoding: 75 75 44
Width: 721
Flags: W
HStem: 0 45<20 45.2594 304 327 404 445.476 718 733> 645 45<181 201 192 490 571 846>
DStem: 258 598 384 598 123 92 329 390 258 598 306 306 123 92 249 92
Fore
720 0 m 1
 392 0 l 1
 404 45 l 1
 472 45 484 49 475 71 c 1
 461 118 415 187 386 224 c 1
 321 315 l 1
 306 306 l 1
 249 92 l 2
 243 68 252 45 327 45 c 1
 315 0 l 1
 8 0 l 1
 20 45 l 1
 95 45 117 68 123 92 c 1
 258 598 l 2
 264 621 257 645 181 645 c 1
 192 690 l 1
 501 690 l 1
 490 645 l 1
 413 645 390 621 384 598 c 2
 329 390 l 1
 412 449 611 584 622 624 c 0
 630 653 590 644 561 647 c 1
 571 690 l 1
 857 690 l 1
 846 645 l 1
 763 645 717 608 659 562 c 2
 441 390 l 1
 547 230 l 1
 594 157 l 2
 630 101 653 45 733 45 c 1
 720 0 l 1
EndSplineSet
MinimumDistance: x14,17 x11,8 
EndChar
StartChar: L
Encoding: 76 76 45
Width: 609
Flags: W
HStem: 0 45<12 36.3163> 0 66<287 559> 645 45<174 193 184 476>
DStem: 247 598 375 598 112 92 240 92
Fore
668 198 m 1x60
 559 0 l 1
 0 0 l 1x60
 12 45 l 1xa0
 84 45 106 68 112 92 c 1
 247 598 l 2
 253 621 246 645 174 645 c 1
 184 690 l 1
 487 690 l 1
 476 645 l 1
 402 645 381 621 375 598 c 2
 240 92 l 2
 233 69 267 66 321 66 c 0
 441 66 524 60 619 198 c 1
 668 198 l 1x60
EndSplineSet
MinimumDistance: x6,9 
EndChar
StartChar: M
Encoding: 77 77 46
Width: 887
Flags: W
HStem: 0 45<20 47.2461 262 281 593 617.316 871 894> 645 45<183 201 846 1055>
DStem: 264 598 307 505 129 92 197 92 307 505 412 690 402 0 504 198 809 528 954 598 693 92 819 92 846 690 809 528 504 198 432 0
Fore
882 0 m 1
 581 0 l 1
 593 45 l 1
 665 45 687 68 693 92 c 1
 809 528 l 1
 432 0 l 1
 402 0 l 1
 307 505 l 1
 197 92 l 1
 190 68 200 45 281 45 c 1
 269 0 l 1
 8 0 l 1
 20 45 l 1
 101 45 123 68 129 92 c 1
 264 598 l 2
 270 621 263 645 183 645 c 1
 194 690 l 1
 412 690 l 1
 504 198 l 1
 846 690 l 1
 1066 690 l 1
 1055 645 l 1
 982 645 960 621 954 598 c 2
 819 92 l 1
 813 68 822 45 894 45 c 1
 882 0 l 1
EndSplineSet
MinimumDistance: x2,24 x12,9 
EndChar
StartChar: N
Encoding: 78 78 47
Width: 721
Flags: W
HStem: 0 45<12 39.52 251 275> 645 45<184 201.069 631 657 642 894>
DStem: 257 596 304 518 121 92 190 92 304 518 373 690 587 -14 616 229 714 598 783 598 616 229 621 -14
Fore
894 645 m 1
 813 645 790 621 783 598 c 2
 621 -14 l 1
 587 -14 l 1
 304 518 l 1
 190 92 l 2
 184 68 192 45 275 45 c 1
 263 0 l 1
 0 0 l 1
 12 45 l 1
 94 45 115 68 121 92 c 1
 257 596 l 1
 253 605 l 1
 233 636 230 645 174 645 c 1
 184 690 l 1
 373 690 l 1
 616 229 l 1
 714 598 l 2
 720 621 714 645 631 645 c 1
 642 690 l 1
 905 690 l 1
 894 645 l 1
EndSplineSet
MinimumDistance: x18,0 x9,6 
EndChar
StartChar: O
Encoding: 79 79 48
Width: 721
Flags: W
HStem: -14 21G<266.5 461.5> 639 61<531 548>
Fore
791 343 m 0
 791 343 l 0
 737 143 565 -14 358 -14 c 0
 175 -14 55 124 114 343 c 0
 169 550 347 703 548 700 c 1
 730 708 849 564 791 343 c 0
654 343 m 1
 694 492 682 642 531 639 c 1
 389 630 301 525 252 343 c 0
 198 146 258 38 372 48 c 0
 547 61 631 241 654 343 c 1
EndSplineSet
EndChar
StartChar: P
Encoding: 80 80 49
Width: 556
Flags: W
HStem: 0 45<11 35.6301 290 313> 289 63<333 373> 627 63<189 431> 645 45<178 192>
DStem: 247 598 373 594 112 92 309 355 247 598 292 292 112 92 238 92
Fore
690 502 m 0xd0
 690 502 l 0
 648 347 499 289 364 289 c 0
 341 289 316 290 292 292 c 1
 238 92 l 1
 232 68 241 45 313 45 c 1
 301 0 l 1
 -2 0 l 1
 11 45 l 1
 84 45 106 68 112 92 c 1
 247 598 l 2
 253 621 247 645 178 645 c 1xd0
 189 690 l 1xe0
 452 690 l 2
 614 690 722 627 690 502 c 0xd0
553 495 m 0
 582 601 501 627 412 627 c 0xe0
 382 627 381 624 373 594 c 2
 309 355 l 1
 321 353 332 352 344 352 c 0
 444 352 525 387 553 495 c 0
EndSplineSet
MinimumDistance: x8,5 
EndChar
StartChar: Q
Encoding: 81 81 50
Width: 721
Flags: W
HStem: -177 225<373 665> 639 61<529 550>
Fore
665 -177 m 1
 665 -177 l 0
 475 -177 362 -146 296 -61 c 0
 283 -45 270 -17 257 -5 c 1
 252 5 238 8 233 9 c 0
 108 46 75 201 114 343 c 0
 167 545 336 700 548 700 c 0
 757 700 845 544 791 343 c 0
 740 154 581 14 447 -6 c 1
 492 -84 559 -132 676 -135 c 1
 665 -177 l 1
654 343 m 0
 705 531 654 639 531 639 c 0
 401 637 303 533 252 343 c 0
 201 155 249 48 373 48 c 0
 505 48 607 167 654 343 c 0
EndSplineSet
EndChar
StartChar: R
Encoding: 82 82 51
Width: 666
Flags: W
HStem: 0 45<12 35.9191 287 312> 627 63<184 463> 645 45<174 193>
DStem: 244 598 370 591 109 92 310 367 244 598 293 306 109 92 237 92 332 307 470 323 487 0 594 95
Fore
665 0 m 1xc0
 487 0 l 1
 332 307 l 1
 293 306 l 1
 237 92 l 2
 230 68 238 45 312 45 c 1
 300 0 l 1
 0 0 l 1
 12 45 l 1
 83 45 103 68 109 92 c 1
 244 598 l 2
 250 621 244 645 174 645 c 1xa0
 184 690 l 1
 461 690 l 2
 636 690 722 624 688 501 c 0
 660 395 565 341 470 323 c 1
 594 95 l 2
 611 66 625 48 677 43 c 1
 665 0 l 1xc0
554 499 m 0
 579 590 522 627 441 627 c 0xc0
 387 627 381 630 370 591 c 1
 310 367 l 1
 439 373 528 401 554 499 c 0
EndSplineSet
MinimumDistance: x8,5 
EndChar
StartChar: S
Encoding: 83 83 52
Width: 556
Flags: W
HStem: -14 63<274 299> 462 238<435 607> 634 66<419 443>
Fore
551 181 m 0xa0
 525 86 422 -14 276 -14 c 0
 180 -14 134 66 101 -14 c 1
 58 -14 l 1
 89 226 l 1
 134 226 l 1
 141 129 186 49 286 49 c 0
 358 49 422 111 421 181 c 0
 418 321 146 329 198 521 c 0
 226 627 332 700 435 700 c 0
 535 700 559 622 604 700 c 1xc0
 645 700 l 1xa0
 607 462 l 1
 558 462 l 1xc0
 561 559 519 634 433 634 c 0
 381 634 332 607 316 551 c 0
 303 498 352 461 386 436 c 0
 504 352 584 306 551 181 c 0xa0
EndSplineSet
EndChar
StartChar: T
Encoding: 84 84 53
Width: 609
Flags: W
HStem: 0 45<166 190.862 454 468> 622 68<197 409 197 619>
DStem: 409 622 536 622 266 92 393 92
Fore
737 495 m 1
 691 495 l 1
 703 625 659 622 594 622 c 2
 536 622 l 1
 393 92 l 1
 387 68 395 45 468 45 c 1
 456 0 l 1
 154 0 l 1
 166 45 l 1
 240 45 260 68 266 92 c 1
 409 622 l 1
 346 622 276 627 243 590 c 1
 217 565 204 533 186 495 c 1
 138 495 l 1
 197 690 l 1
 783 690 l 1
 737 495 l 1
EndSplineSet
MinimumDistance: x8,5 
EndChar
StartChar: U
Encoding: 85 85 54
Width: 721
Flags: W
HStem: -14 69<356 395> 645 45<178 192 189 479 634 657 645 889>
DStem: 252 598 378 598 163 266 287 258 714 598 782 598 630 280 697 280
Fore
889 645 m 1
 811 645 788 621 782 598 c 2
 697 280 l 1
 665 161 630 69 495 14 c 0
 458 -3 401 -14 356 -14 c 0
 166 -14 112 74 163 266 c 1
 252 598 l 2
 258 621 250 645 178 645 c 1
 189 690 l 1
 490 690 l 1
 479 645 l 1
 407 645 384 621 378 598 c 2
 287 258 l 2
 249 112 276 55 395 55 c 0
 570 55 605 190 630 280 c 1
 714 598 l 2
 720 621 713 645 634 645 c 1
 645 690 l 1
 900 690 l 1
 889 645 l 1
EndSplineSet
MinimumDistance: x16,0 x7,10 
EndChar
StartChar: V
Encoding: 86 86 55
Width: 721
Flags: W
HStem: -14 21G<362 390> 645 45<181 195 192 472 668 887>
DStem: 264 538 402 507 362 -14 458 204 677 536 783 581 458 204 390 -14
Fore
886 645 m 1
 833 645 806 616 783 581 c 0
 662 404 488 138 390 -14 c 1
 362 -14 l 1
 264 538 l 1
 253 593 247 645 181 645 c 1
 192 690 l 1
 482 690 l 1
 472 645 l 1
 409 645 395 641 389 621 c 0
 384 601 401 527 402 507 c 1
 458 204 l 1
 677 536 l 2
 690 556 714 593 720 614 c 0
 730 645 691 645 657 645 c 1
 668 690 l 1
 897 690 l 1
 886 645 l 1
EndSplineSet
EndChar
StartChar: W
Encoding: 87 87 56
Width: 943
Flags: W
HStem: -14 21G<293 326 624 653> 645 45<181 439 478 491 488 770>
VStem: 565 120<481 590>
DStem: 253 427 369 573 293 -14 407 233 565 481 579 389 407 233 326 -14 579 389 685 590 624 -14 727 233 917 533 1021 582 727 233 653 -14
Fore
1121 647 m 1
 1087 644 1066 639 1049 624 c 0
 1035 610 1028 596 1021 582 c 1
 653 -14 l 1
 624 -14 l 1
 579 389 l 1
 326 -14 l 1
 293 -14 l 1
 253 427 l 1
 249 476 243 570 229 613 c 0
 223 634 204 642 170 647 c 1
 181 690 l 1
 450 690 l 1
 439 645 l 1
 415 645 l 2
 389 642 373 644 367 617 c 0
 364 608 367 581 369 573 c 1
 407 233 l 1
 565 481 l 1
 564 522 561 570 551 607 c 0
 544 637 524 645 478 645 c 1
 488 690 l 1
 780 690 l 1
 770 645 l 1
 734 645 694 651 687 627 c 0
 684 613 685 596 685 590 c 1
 727 233 l 1
 917 533 l 2
 945 578 963 614 958 628 c 0
 952 645 926 644 899 647 c 1
 909 690 l 1
 1132 690 l 1
 1121 647 l 1
EndSplineSet
EndChar
StartChar: X
Encoding: 88 88 57
Width: 721
Flags: W
HStem: 0 45<12 27.4088 255 269 409 449.395 715 730> 645 45<197 511 621 884>
DStem: 389 339 413 280 198 163 280 154 622 556 696 547 496 439 519 381
Fore
717 0 m 1
 396 0 l 1
 409 45 l 1
 476 45 493 49 488 77 c 1
 488 100 470 144 461 164 c 1
 413 280 l 1
 280 154 l 2
 255 132 226 106 206 81 c 0
 189 60 209 45 269 45 c 1
 257 0 l 1
 0 0 l 1
 12 45 l 1
 78 45 132 100 198 163 c 2
 389 339 l 1
 332 485 l 1
 284 602 266 642 186 645 c 1
 197 690 l 1
 522 690 l 1
 511 645 l 1
 449 645 436 645 430 627 c 0
 422 598 468 499 479 476 c 2
 496 439 l 1
 622 556 l 2
 639 571 679 602 685 625 c 0
 693 651 650 645 621 645 c 1
 631 690 l 1
 894 690 l 1
 883 645 l 1
 803 645 734 582 696 547 c 2
 519 381 l 1
 628 123 l 1
 656 65 674 45 730 45 c 1
 717 0 l 1
EndSplineSet
EndChar
StartChar: Y
Encoding: 89 89 58
Width: 721
Flags: W
HStem: 0 45<214 242.785 513 542> 645 45<184 198 195 488 656 694.443>
DStem: 309 484 421 582 384 303 499 386 384 303 513 315 327 92 453 92 679 584 710 528 499 386 513 315
Fore
888 647 m 1
 808 636 748 570 710 528 c 2
 513 315 l 1
 453 92 l 1
 447 68 456 45 542 45 c 1
 530 0 l 1
 201 0 l 1
 214 45 l 1
 300 45 321 68 327 92 c 1
 384 303 l 1
 309 484 l 1
 270 579 263 644 184 645 c 1
 195 690 l 1
 499 690 l 1
 488 645 l 1
 433 645 416 647 412 630 c 0
 407 611 413 596 421 582 c 1
 499 386 l 1
 679 584 l 1
 691 599 711 616 710 634 c 0
 708 645 700 645 645 645 c 1
 656 690 l 1
 899 690 l 1
 888 647 l 1
EndSplineSet
MinimumDistance: x7,4 
EndChar
StartChar: Z
Encoding: 90 90 59
Width: 609
Flags: W
HStem: 0 63<186 584> 627 63<224 588>
DStem: 588 627 766 662 3 29 186 63
Fore
664 201 m 1
 584 0 l 1
 -5 0 l 1
 3 29 l 1
 588 627 l 1
 404 627 l 2
 309 627 249 610 200 493 c 1
 149 493 l 1
 224 690 l 1
 777 690 l 1
 766 662 l 1
 186 63 l 1
 407 63 l 2
 508 63 559 89 617 201 c 1
 664 201 l 1
EndSplineSet
EndChar
StartChar: bracketleft
Encoding: 91 91 60
Width: 333
Flags: W
HStem: -157 51<178.965 270> 639 51<260 482>
DStem: 260 690 336 596 34 -157 161 -55
Fore
270 -157 m 1
 34 -157 l 1
 260 690 l 1
 496 690 l 1
 482 639 l 1
 392 639 l 2
 356 639 346 631 336 596 c 2
 161 -55 l 2
 151 -97 158 -106 197 -106 c 2
 284 -106 l 1
 270 -157 l 1
EndSplineSet
EndChar
StartChar: backslash
Encoding: 92 92 61
Width: 278
Flags: W
HStem: 0 21G<281 382>
DStem: 84 707 186 707 281 0 382 0
Fore
382 0 m 1
 281 0 l 1
 84 707 l 1
 186 707 l 1
 382 0 l 1
EndSplineSet
EndChar
StartChar: bracketright
Encoding: 93 93 62
Width: 333
Flags: W
HStem: -157 51<-7 215> 639 51<205 301>
DStem: 310 571 441 690 143 -51 215 -157
Fore
215 -157 m 1
 -20 -157 l 1
 -6 -106 l 1
 75 -106 l 2
 124 -104 131 -98 143 -51 c 1
 310 571 l 1
 321 616 332 639 293 639 c 2
 192 639 l 1
 206 690 l 1
 441 690 l 1
 215 -157 l 1
EndSplineSet
EndChar
StartChar: asciicircum
Encoding: 94 94 63
Width: 468
Flags: W
DStem: 379 687 389 576 65 257 163 257
Fore
544 257 m 1
 444 257 l 1
 389 576 l 1
 163 257 l 1
 65 257 l 1
 379 687 l 1
 459 687 l 1
 544 257 l 1
EndSplineSet
EndChar
StartChar: underscore
Encoding: 95 95 64
Width: 499
Flags: W
HStem: -166 68<-39 467>
Fore
467 -166 m 1
 -57 -166 l 1
 -38 -98 l 1
 485 -98 l 1
 467 -166 l 1
EndSplineSet
EndChar
StartChar: grave
Encoding: 96 96 65
Width: 333
Flags: W
Fore
410 507 m 1
 336 508 l 1
 214 599 l 2
 197 610 174 633 180 653 c 0
 187 684 207 702 235 702 c 0
 255 702 283 688 292 665 c 1
 410 507 l 1
EndSplineSet
EndChar
StartChar: a
Encoding: 97 97 66
Width: 443
Flags: W
HStem: -11 21G<106 160 331.5 371.5> 435 47<326 353>
DStem: 339 260 459 300 300 108 404 89
Fore
484 108 m 0
 467 52 l 0
 445 32 387 -11 356 -11 c 0
 307 -11 290 18 292 54 c 1
 240 18 180 -11 140 -11 c 0
 72 -11 37 43 54 108 c 0
 86 229 255 276 353 310 c 1
 378 399 382 435 327 435 c 0
 310 435 280 430 266 415 c 1
 260 404 260 386 253 361 c 0
 246 332 210 304 181 304 c 0
 124 304 124 353 163 401 c 0
 217 465 287 482 353 482 c 0
 473 482 495 432 459 300 c 2
 404 89 l 2
 396 61 418 66 484 108 c 0
300 108 m 1
 339 260 l 1
 276 238 195 220 175 143 c 0
 166 108 175 74 215 74 c 0
 230 74 283 89 300 108 c 1
EndSplineSet
EndChar
StartChar: b
Encoding: 98 98 67
Width: 499
Flags: W
HStem: -11 59<240 269> 396 86<364 430>
DStem: 215 571 362 713 83 80 287 429 215 571 258 321 83 80 198 97
Fore
553 255 m 0
 553 255 l 0
 518 118 384 -11 240 -11 c 0
 180 -11 123 6 89 40 c 0
 80 48 78 61 83 80 c 2
 215 571 l 1
 229 627 218 619 163 619 c 1
 174 659 l 1
 221 671 249 676 276 685 c 2
 362 713 l 1
 287 429 l 1
 329 464 381 482 430 482 c 0
 553 482 582 362 553 255 c 0
430 212 m 0
 450 286 458 396 364 396 c 0
 300 396 269 359 258 321 c 1
 198 97 l 1
 187 71 198 69 217 58 c 0
 230 52 253 48 269 48 c 0
 361 48 410 135 430 212 c 0
EndSplineSet
EndChar
StartChar: c
Encoding: 99 99 68
Width: 443
Flags: W
HStem: -11 95<209 280> 316 21G<423.5 452.5> 429 53<346 378>
Fore
473 167 m 1
 398 66 316 -11 209 -11 c 0
 95 -11 38 95 72 226 c 0
 109 362 221 482 378 482 c 0
 439 482 525 447 510 373 c 0
 502 344 467 316 438 316 c 0
 409 316 387 344 395 372 c 0
 404 406 390 429 346 429 c 0
 266 429 207 344 187 267 c 0
 164 181 184 84 280 84 c 0
 341 84 392 129 444 186 c 1
 473 167 l 1
EndSplineSet
EndChar
StartChar: d
Encoding: 100 100 69
Width: 499
Flags: W
HStem: -11 74<209 267> 427 55<347 366>
DStem: 410 312 627 713 362 129 464 103 481 571 627 713 450 456 464 103
Fore
515 48 m 1
 515 48 l 0
 455 31 399 14 321 -22 c 1
 338 38 l 1
 300 9 252 -11 209 -11 c 0
 77 -11 41 104 74 223 c 0
 106 346 230 482 366 482 c 0
 404 482 432 468 450 456 c 1
 481 571 l 2
 495 625 487 619 427 619 c 1
 438 659 l 1
 487 671 513 677 541 685 c 2
 627 713 l 1
 464 103 l 2
 456 74 488 84 525 84 c 1
 515 48 l 1
362 129 m 1
 410 312 l 1
 429 376 413 427 349 427 c 0
 272 427 215 338 192 253 c 0
 160 132 194 63 267 63 c 0
 316 63 353 100 362 129 c 1
EndSplineSet
EndChar
StartChar: e
Encoding: 101 101 70
Width: 443
Flags: W
HStem: -11 92<209 275> 276 56<198 488> 422 60<318 355>
Fore
485 178 m 1
 485 178 l 0
 419 71 313 -11 209 -11 c 0
 88 -11 37 100 71 226 c 0
 112 376 226 482 355 482 c 0
 470 482 519 399 488 276 c 1
 177 276 l 1
 160 189 174 81 275 81 c 0
 336 81 399 131 452 194 c 1
 485 178 l 1
375 332 m 1
 382 378 372 422 318 422 c 0
 260 422 221 382 198 332 c 1
 375 332 l 1
EndSplineSet
EndChar
StartChar: f
Encoding: 102 102 71
Width: 333
Flags: W
HStem: 0 21G<8 292> 416 56<134 203 326 433> 579 128<462 499>
DStem: 203 416 312 416 115 92 224 92
Fore
564 639 m 1
 558 611 528 579 499 579 c 0
 442 579 468 630 433 650 c 0
 427 654 413 656 406 651 c 1
 367 642 359 594 352 565 c 2
 326 472 l 1
 447 472 l 1
 433 416 l 1
 312 416 l 1
 224 92 l 1
 215 55 227 43 301 37 c 1
 292 0 l 1
 8 0 l 1
 17 37 l 1
 89 43 106 55 115 92 c 1
 203 416 l 1
 121 416 l 1
 135 472 l 1
 217 472 l 1
 226 504 233 530 249 559 c 0
 289 642 373 707 462 707 c 0
 507 707 554 696 564 639 c 1
EndSplineSet
MinimumDistance: x13,10 
EndChar
StartChar: g
Encoding: 103 103 72
Width: 499
Flags: W
HStem: -217 80<141 203> 147 51<284 309> 386 96<373 585> 430 52<346 373>
Fore
585 386 m 1xe0
 508 386 l 0
 511 359 507 332 501 312 c 0
 473 209 378 147 284 147 c 0
 269 147 250 151 233 154 c 1
 215 149 177 121 174 103 c 1
 183 86 229 89 246 88 c 0
 387 81 496 88 464 -37 c 0
 432 -157 240 -217 141 -217 c 0
 17 -217 -23 -144 -12 -101 c 0
 -2 -61 45 -32 108 11 c 1
 89 22 72 40 80 66 c 0
 89 104 140 143 186 174 c 1
 141 200 123 244 140 309 c 0
 167 415 270 482 373 482 c 0
 459 482 455 432 604 450 c 1
 585 386 l 1xe0
393 284 m 0
 393 284 l 0
 406 335 407 430 346 430 c 0xd0
 293 430 269 390 258 347 c 0
 243 290 235 198 309 198 c 0
 358 198 381 241 393 284 c 0
406 -55 m 0
 418 -11 352 -15 295 -14 c 0
 252 -14 195 -12 149 -5 c 1
 127 -25 97 -52 89 -78 c 0
 81 -111 111 -137 203 -137 c 0
 312 -137 392 -108 406 -55 c 0
EndSplineSet
EndChar
StartChar: h
Encoding: 104 104 73
Width: 499
Flags: W
HStem: 0 21G<-3 232 267 502> 404 78<373 430>
DStem: 214 571 359 713 84 92 283 422 214 571 263 352 84 92 194 92 410 300 521 301 355 92 464 92
Fore
502 0 m 1
 267 0 l 1
 276 37 l 1
 329 41 346 57 355 92 c 2
 410 300 l 2
 424 350 436 404 373 404 c 0
 324 404 295 379 263 352 c 1
 194 92 l 2
 184 57 192 41 241 37 c 1
 232 0 l 1
 -3 0 l 1
 6 37 l 1
 58 41 75 57 84 92 c 2
 214 571 l 2
 227 622 218 621 163 619 c 1
 174 659 l 1
 220 671 246 677 273 685 c 2
 359 713 l 1
 283 422 l 1
 326 458 378 482 430 482 c 0
 539 482 551 421 521 301 c 1
 464 92 l 2
 455 57 462 41 511 37 c 1
 502 0 l 1
EndSplineSet
MinimumDistance: x2,22 x11,8 
EndChar
StartChar: i
Encoding: 105 105 74
Width: 278
Flags: W
HStem: 0 21G<11 272> 579 128<289 323>
DStem: 175 335 326 488 111 92 220 92
Fore
369 642 m 0
 369 642 l 0
 359 608 323 579 289 579 c 0
 252 579 233 608 243 642 c 0
 252 679 286 707 323 707 c 0
 356 707 378 679 369 642 c 0
272 0 m 1
 11 0 l 1
 22 38 l 1
 83 41 101 57 111 92 c 2
 175 335 l 2
 192 398 184 404 114 386 c 1
 124 425 l 1
 326 488 l 1
 220 92 l 2
 210 57 220 41 283 38 c 1
 272 0 l 1
EndSplineSet
MinimumDistance: x7,14 
EndChar
StartChar: j
Encoding: 106 106 75
Width: 278
Flags: W
HStem: 579 128<316 350>
DStem: 204 355 349 488 88 -81 224 25
Fore
396 642 m 0
 396 642 l 0
 387 608 350 579 316 579 c 0
 283 579 261 608 270 642 c 0
 280 679 316 707 350 707 c 0
 384 707 406 679 396 642 c 0
224 25 m 2
 181 -137 95 -217 -23 -217 c 0
 -54 -217 -88 -204 -101 -186 c 0
 -120 -157 -100 -112 -69 -101 c 1
 -38 -88 -14 -94 -5 -112 c 0
 2 -127 9 -146 31 -158 c 0
 61 -174 78 -114 88 -81 c 1
 204 355 l 1
 215 398 203 398 140 389 c 1
 149 425 l 1
 349 488 l 1
 224 25 l 2
EndSplineSet
EndChar
StartChar: k
Encoding: 107 107 76
Width: 499
Flags: W
HStem: 0 38<281 298.206> 433 39<384 420.766 384 604>
DStem: 223 591 364 713 89 92 255 301 223 591 233 224 89 92 198 92 233 224 326 293 316 55 416 118
Fore
511 0 m 1
 270 0 l 1
 281 38 l 1
 319 38 319 49 316 55 c 2
 233 224 l 1
 198 92 l 2
 189 57 198 41 260 38 c 1
 249 0 l 1
 -11 0 l 1
 0 38 l 1
 61 41 80 57 89 92 c 2
 223 591 l 2
 232 627 221 622 164 617 c 1
 175 659 l 1
 224 671 250 677 278 685 c 2
 364 713 l 1
 255 301 l 1
 386 395 l 2
 399 406 412 415 422 427 c 1
 425 436 413 433 375 433 c 1
 384 472 l 1
 613 472 l 1
 604 433 l 1
 495 433 429 367 326 293 c 1
 416 118 l 2
 435 81 462 41 521 37 c 1
 511 0 l 1
EndSplineSet
MinimumDistance: x9,6 
EndChar
StartChar: l
Encoding: 108 108 77
Width: 278
Flags: W
HStem: 0 21G<8 272>
DStem: 238 571 386 711 109 92 220 92
Fore
272 0 m 1
 8 0 l 1
 18 38 l 1
 83 41 100 57 109 92 c 2
 238 571 l 1
 253 633 244 624 175 624 c 1
 184 660 l 1
 244 671 319 690 386 711 c 1
 220 92 l 2
 210 57 218 41 283 38 c 1
 272 0 l 1
EndSplineSet
MinimumDistance: x2,9 
EndChar
StartChar: m
Encoding: 109 109 78
Width: 777
Flags: W
HStem: 0 21G<2 237 270 505 541 776> 404 78<384 445>
DStem: 154 335 269 355 89 92 198 92 413 300 538 353 358 92 467 92 682 295 788 280 628 92 737 92
Fore
776 0 m 1
 541 0 l 1
 550 37 l 1
 602 41 619 57 628 92 c 2
 682 295 l 2
 705 381 700 404 645 404 c 0
 605 404 565 384 538 353 c 1
 467 92 l 2
 458 57 465 41 515 37 c 1
 505 0 l 1
 270 0 l 1
 280 37 l 1
 332 41 349 57 358 92 c 2
 413 300 l 1
 427 346 442 404 384 404 c 0
 347 404 296 386 269 355 c 1
 198 92 l 2
 189 57 197 41 246 37 c 1
 237 0 l 1
 2 0 l 1
 11 37 l 1
 63 41 80 57 89 92 c 2
 154 335 l 1
 169 379 160 389 106 389 c 1
 115 427 l 1
 304 488 l 1
 281 404 l 1
 276 384 290 424 306 433 c 0
 347 461 398 482 445 482 c 0
 495 482 527 452 535 409 c 1
 584 447 651 482 703 482 c 0
 831 482 813 375 788 280 c 1
 737 92 l 2
 728 57 736 41 785 37 c 1
 776 0 l 1
EndSplineSet
MinimumDistance: x2,33 x11,8 x14,5 x20,17 
EndChar
StartChar: n
Encoding: 110 110 79
Width: 499
Flags: W
HStem: 0 21G<-3 232 267 502> 404 78<373 439>
DStem: 151 336 264 353 84 92 194 92 413 307 522 309 355 92 464 92
Fore
502 0 m 1
 267 0 l 1
 276 37 l 1
 329 41 346 57 355 92 c 2
 413 307 l 1
 425 358 435 404 373 404 c 0
 330 404 293 378 264 353 c 1
 194 92 l 2
 184 57 192 41 241 37 c 1
 232 0 l 1
 -3 0 l 1
 6 37 l 1
 58 41 75 57 84 92 c 2
 151 336 l 2
 167 399 161 399 103 395 c 1
 112 432 l 1
 300 487 l 1
 281 421 l 1
 326 453 376 482 439 482 c 0
 522 482 553 425 522 309 c 1
 464 92 l 2
 455 57 462 41 511 37 c 1
 502 0 l 1
EndSplineSet
MinimumDistance: x2,21 x11,8 
EndChar
StartChar: o
Encoding: 111 111 80
Width: 499
Flags: W
HStem: -11 56<243 276> 427 55<347 375>
Fore
550 250 m 0
 550 250 l 0
 513 114 389 -11 243 -11 c 0
 108 -11 46 103 80 230 c 0
 118 370 229 482 375 482 c 0
 515 482 587 389 550 250 c 0
419 203 m 0
 442 287 455 427 347 427 c 0
 280 427 233 364 212 284 c 0
 174 151 187 45 276 45 c 0
 349 45 399 124 419 203 c 0
EndSplineSet
EndChar
StartChar: p
Encoding: 112 112 81
Width: 499
Flags: W
HStem: -11 59<250 275> 402 80<366 435>
DStem: 154 339 263 336 29 -124 203 115 154 339 177 20 29 -124 138 -124
Fore
550 255 m 0
 550 255 l 0
 513 114 386 -11 250 -11 c 0
 221 -11 195 2 177 20 c 1
 138 -124 l 1
 129 -161 138 -175 207 -178 c 1
 197 -217 l 1
 -68 -217 l 1
 -57 -180 l 1
 2 -175 20 -161 29 -124 c 1
 154 339 l 2
 166 386 170 402 97 395 c 1
 106 432 l 1
 303 487 l 1
 287 429 l 1
 289 430 292 433 295 435 c 0
 332 462 372 482 435 482 c 0
 553 482 584 379 550 255 c 0
430 215 m 0
 450 290 462 402 366 402 c 0
 339 402 309 390 287 372 c 1
 267 358 267 355 263 336 c 2
 203 115 l 1
 197 91 204 80 223 66 c 0
 237 55 255 48 275 48 c 0
 341 48 404 123 430 215 c 0
EndSplineSet
EndChar
StartChar: q
Encoding: 113 113 82
Width: 499
Flags: W
HStem: -11 86<190 253> 433 49<359 379>
DStem: 339 46 558 452 293 -124 402 -124 416 335 558 452 369 152 402 -124
Fore
452 -217 m 1
 186 -217 l 1
 197 -178 l 1
 266 -175 284 -161 293 -124 c 1
 339 46 l 1
 292 15 240 -11 190 -11 c 0
 52 -11 43 117 72 226 c 0
 109 361 235 482 379 482 c 0
 419 482 455 473 481 453 c 1
 530 479 l 1
 567 496 562 472 558 452 c 1
 402 -124 l 1
 393 -161 402 -175 462 -180 c 1
 452 -217 l 1
369 152 m 1
 416 335 l 1
 429 376 439 404 401 425 c 1
 386 432 379 433 361 433 c 0
 270 433 212 333 192 257 c 0
 164 154 180 75 253 75 c 0
 281 75 316 84 344 103 c 0
 364 118 362 131 369 152 c 1
EndSplineSet
EndChar
StartChar: r
Encoding: 114 114 83
Width: 333
Flags: W
HStem: 0 21G<-8 252> 361 121<390 407>
DStem: 151 310 266 330 92 92 201 92
Fore
453 402 m 0
 441 373 416 361 390 361 c 0
 355 361 356 396 332 396 c 0
 315 396 272 355 266 330 c 1
 201 92 l 2
 192 57 201 41 263 38 c 1
 252 0 l 1
 -8 0 l 1
 3 38 l 1
 65 41 83 57 92 92 c 2
 151 310 l 2
 172 390 166 404 95 384 c 1
 106 425 l 1
 307 488 l 1
 289 419 l 1
 323 452 367 482 407 482 c 0
 453 482 475 455 453 402 c 0
EndSplineSet
MinimumDistance: x8,5 
EndChar
StartChar: s
Encoding: 115 115 84
Width: 388
Flags: W
HStem: -11 49<195 214> 313 21G<375 412> 435 47<304 321>
Fore
396 137 m 0
 372 43 284 -11 197 -11 c 0
 166 -11 151 -3 126 5 c 0
 84 18 81 12 74 -3 c 1
 37 -3 l 1
 86 178 l 1
 126 178 l 1
 118 101 132 38 209 38 c 0
 244 38 281 60 292 97 c 0
 319 203 94 206 132 347 c 0
 155 433 240 482 319 482 c 0
 344 482 361 478 392 464 c 0
 412 456 415 465 425 473 c 1
 455 473 l 1
 412 313 l 1
 375 313 l 1
 373 386 367 435 306 435 c 0
 273 435 237 415 229 382 c 0
 201 283 430 263 396 137 c 0
EndSplineSet
EndChar
StartChar: t
Encoding: 116 116 85
Width: 278
Flags: W
HStem: -11 21G<110.5 172.5> 416 56<295 379>
DStem: 170 416 281 416 97 141 212 158
Fore
318 81 m 1
 257 22 198 -11 147 -11 c 0
 74 -11 66 32 97 141 c 1
 170 416 l 1
 154 416 l 2
 134 416 103 418 127 450 c 1
 192 487 246 545 336 624 c 1
 295 472 l 1
 393 472 l 1
 379 416 l 1
 281 416 l 1
 212 158 l 2
 195 97 186 52 244 72 c 0
 260 78 272 89 295 111 c 1
 318 81 l 1
EndSplineSet
EndChar
StartChar: u
Encoding: 117 117 86
Width: 499
Flags: W
HStem: -11 83<186 252> 433 39<114 138 373 392.936>
DStem: 160 373 295 472 98 144 209 149 419 372 554 472 362 163 464 132
Fore
502 40 m 1
 449 25 392 6 321 -17 c 1
 341 58 l 1
 312 32 255 -11 186 -11 c 0
 98 -11 74 51 98 144 c 1
 160 373 l 1
 174 422 170 433 114 433 c 1
 123 472 l 1
 295 472 l 1
 209 149 l 1
 197 106 204 72 252 72 c 0
 276 72 306 86 330 101 c 0
 358 121 355 132 362 163 c 1
 419 372 l 2
 433 422 432 433 364 433 c 1
 373 472 l 1
 554 472 l 1
 464 132 l 1
 453 89 452 72 511 77 c 1
 502 40 l 1
EndSplineSet
EndChar
StartChar: v
Encoding: 118 118 87
Width: 499
Flags: W
HStem: -11 21G<241 248.5> 433 39<115 127 124 335 433 597>
DStem: 167 387 284 375 226 25 315 164
Fore
596 433 m 1
 551 433 533 393 504 350 c 2
 283 25 l 1
 276 14 253 -11 244 -11 c 0
 238 -11 226 14 226 25 c 1
 167 387 l 1
 161 418 147 433 115 433 c 1
 124 472 l 1
 344 472 l 1
 335 433 l 1
 275 433 283 402 284 375 c 1
 315 164 l 1
 427 339 l 2
 470 407 495 433 433 433 c 1
 442 472 l 1
 605 472 l 1
 596 433 l 1
EndSplineSet
MinimumDistance: x6,9 
EndChar
StartChar: w
Encoding: 119 119 88
Width: 721
Flags: W
HStem: -11 21G<229 235 482 488.5> 433 39<126 138 367 383 674 687>
DStem: 422 323 438 250 304 158 257 5 438 250 530 359 470 3 551 167
Fore
822 436 m 1
 788 425 771 393 759 378 c 1
 508 5 l 2
 504 -2 492 -11 485 -11 c 0
 479 -11 475 -2 470 3 c 1
 438 250 l 1
 257 5 l 2
 252 -2 238 -11 232 -11 c 0
 226 -11 220 -2 218 5 c 1
 170 350 l 2
 163 406 170 433 126 433 c 1
 135 472 l 1
 339 472 l 1
 329 432 l 1
 300 435 284 433 278 412 c 0
 272 387 289 287 292 261 c 2
 304 158 l 1
 422 323 l 1
 422 399 424 433 367 433 c 1
 376 472 l 1
 602 472 l 1
 593 433 l 1
 527 435 524 416 530 359 c 1
 551 167 l 1
 551 166 670 339 670 339 c 1
 714 407 736 433 674 433 c 1
 684 472 l 1
 831 472 l 1
 822 436 l 1
EndSplineSet
EndChar
StartChar: x
Encoding: 120 120 89
Width: 499
Flags: W
HStem: 0 38<15 29.8231 173 186 490 502> 433 39<138 361 390 410.104 390 562>
DStem: 255 244 270 186 112 97 184 91 270 186 359 281 327 54 429 103
Fore
492 0 m 1
 266 0 l 1
 276 38 l 1
 313 40 335 38 327 54 c 1
 270 186 l 1
 184 91 l 2
 144 48 137 38 186 38 c 1
 175 0 l 1
 5 0 l 1
 15 38 l 1
 60 38 80 63 112 97 c 2
 255 244 l 1
 206 369 l 2
 194 401 198 430 129 433 c 1
 138 472 l 1
 370 472 l 1
 361 433 l 1
 326 433 315 427 313 419 c 0
 310 409 329 362 338 335 c 1
 367 361 412 402 418 422 c 0
 421 435 402 433 381 433 c 1
 390 472 l 1
 571 472 l 1
 562 433 l 1
 518 433 482 409 458 384 c 2
 359 281 l 1
 429 103 l 2
 442 68 458 38 502 38 c 1
 492 0 l 1
EndSplineSet
MinimumDistance: x2,27 x9,6 
EndChar
StartChar: y
Encoding: 121 121 90
Width: 499
Flags: W
HStem: -217 125<43 60> 433 39<129 350 445 458 455 605>
DStem: 166 398 287 384 240 32 329 160
Fore
605 433 m 1
 576 433 550 402 538 384 c 2
 287 0 l 2
 237 -78 149 -217 45 -217 c 0
 14 -217 -12 -204 -22 -177 c 1
 -25 -158 -23 -141 -8 -121 c 0
 8 -100 35 -92 58 -92 c 0
 75 -92 94 -103 117 -109 c 0
 140 -115 161 -91 218 -6 c 0
 226 6 240 23 240 32 c 1
 166 398 l 1
 163 419 154 430 120 435 c 1
 129 472 l 1
 359 472 l 1
 350 433 l 1
 287 433 283 416 287 384 c 1
 329 160 l 1
 482 409 l 2
 490 421 490 432 445 433 c 1
 455 472 l 1
 614 472 l 1
 605 433 l 1
EndSplineSet
EndChar
StartChar: z
Encoding: 122 122 91
Width: 443
Flags: W
HStem: 0 55<172 415> 416 56<170 381>
DStem: 382 416 533 442 20 29 172 55
Fore
475 158 m 1
 415 0 l 1
 12 0 l 1
 20 29 l 1
 382 416 l 1
 280 416 l 2
 204 416 192 389 170 330 c 1
 131 330 l 1
 170 472 l 1
 544 472 l 1
 533 442 l 1
 172 55 l 1
 275 55 l 2
 303 55 332 57 361 68 c 1
 398 77 413 124 436 167 c 1
 475 158 l 1
EndSplineSet
EndChar
StartChar: braceleft
Encoding: 123 123 92
Width: 479
Flags: W
DStem: 215 155 306 134 172 -5 263 -31 323 556 424 571 276 382 376 396
Fore
307 -140 m 1
 296 -164 l 1
 174 -167 137 -138 172 -5 c 2
 215 155 l 2
 230 214 230 241 135 269 c 1
 241 296 261 326 276 382 c 2
 323 556 l 2
 356 684 422 707 530 707 c 1
 527 682 l 1
 464 667 439 633 424 571 c 1
 376 396 l 1
 359 332 338 292 286 269 c 1
 327 244 324 200 306 134 c 1
 263 -31 l 1
 246 -91 252 -129 307 -140 c 1
EndSplineSet
EndChar
StartChar: bar
Encoding: 124 124 93
Width: 199
Flags: W
HStem: 0 21G<55 144>
DStem: 244 707 333 707 55 0 144 0
Fore
144 0 m 1
 55 0 l 1
 244 707 l 1
 333 707 l 1
 144 0 l 1
EndSplineSet
EndChar
StartChar: braceright
Encoding: 125 125 94
Width: 479
Flags: W
DStem: 246 134 347 155 203 -31 304 -5 364 571 455 556 316 396 409 382
Fore
492 269 m 1
 379 241 362 214 347 155 c 2
 304 -5 l 2
 269 -138 217 -167 95 -164 c 1
 100 -140 l 1
 158 -129 186 -91 203 -31 c 1
 246 134 l 1
 264 198 284 244 338 269 c 1
 298 292 300 332 316 396 c 1
 364 571 l 1
 379 633 373 667 319 682 c 1
 329 707 l 1
 436 707 488 684 455 556 c 2
 409 382 l 2
 393 326 398 296 492 269 c 1
EndSplineSet
EndChar
StartChar: asciitilde
Encoding: 126 126 95
Width: 540
Flags: W
HStem: 198 158<241 435 255 451>
Fore
624 321 m 1
 571 257 504 198 435 198 c 0
 358 198 301 267 232 267 c 0
 181 267 144 220 101 169 c 1
 66 229 l 1
 118 292 180 356 255 356 c 0
 324 356 406 286 459 286 c 0
 499 286 547 330 587 381 c 1
 624 321 l 1
EndSplineSet
EndChar
StartChar: uni0E10.descless
Encoding: 128 63232 96
Width: 508
Flags: W
HStem: -5 50<292 308> 166 44<184 199> 315 43<221 235>
DStem: 137 445 214 478 398 370 467 407 409 333 510 335 339 74 453 121
Fore
591 558 m 0
 591 558 l 0
 473 376 309 627 214 478 c 1
 467 407 l 2
 481 402 527 395 510 335 c 1
 453 121 l 1
 435 49 378 -5 292 -5 c 0
 220 -5 180 54 198 121 c 1
 209 169 l 1
 200 167 194 166 184 166 c 0
 123 166 100 215 115 269 c 1
 134 319 178 358 235 358 c 0
 326 359 352 313 336 258 c 2
 287 75 l 1
 284 61 287 45 306 45 c 0
 324 45 336 61 339 74 c 2
 409 333 l 2
 415 358 409 367 398 370 c 2
 137 445 l 1
 164 493 232 601 349 598 c 0
 413 598 518 533 574 585 c 0
 591 601 619 599 591 558 c 0
197 210 m 0
 267 210 295 315 224 315 c 0
 154 315 126 210 197 210 c 0
EndSplineSet
KernsSLIF: 212 31 0 0 215 31 0 0 214 31 0 0 213 31 0 0
EndChar
StartChar: uni0E34.left
Encoding: 129 63233 97
Width: 0
Flags: W
Fore
-63 636 m 0
 -63 636 l 0
 -226 716 -341 746 -510 713 c 1
 -372 977 22 952 -63 636 c 0
-103 708 m 1
 -115 840 -281 894 -410 768 c 1
 -307 780 -192 760 -103 708 c 1
EndSplineSet
EndChar
StartChar: uni0E35.left
Encoding: 130 63234 98
Width: 0
Flags: W
DStem: -101 948 -5 948 -127 849 -57 751
Fore
-63 636 m 0
 -63 636 l 0
 -226 716 -341 746 -510 713 c 1
 -421 882 -232 917 -127 849 c 1
 -101 948 l 1
 -5 948 l 1
 -57 751 l 1
 -49 739 -49 690 -63 636 c 0
-106 710 m 1
 -114 825 -293 876 -410 768 c 1
 -307 780 -195 762 -106 710 c 1
EndSplineSet
EndChar
StartChar: uni0E36.left
Encoding: 131 63235 99
Width: 0
Flags: W
HStem: 914 38<-85 -72>
Fore
-63 636 m 0
 -63 636 l 0
 -226 716 -341 746 -510 713 c 1
 -430 863 -276 902 -183 872 c 1
 -175 906 -134 952 -72 952 c 0
 45 952 9 813 -71 791 c 1
 -45 768 -49 688 -63 636 c 0
-108 819 m 0
 -108 819 l 0
 -38 819 -14 914 -83 914 c 0
 -152 914 -177 819 -108 819 c 0
-106 710 m 1
 -114 825 -293 876 -410 768 c 1
 -307 780 -195 762 -106 710 c 1
EndSplineSet
EndChar
StartChar: uni0E37.left
Encoding: 132 63236 100
Width: 0
Flags: W
DStem: -83 948 -6 948 -114 839 -58 743
Fore
-106 710 m 0
 -106 710 l 0
 -114 825 -293 876 -410 768 c 1
 -307 780 -195 762 -106 710 c 0
-58 743 m 1
 -49 733 -51 684 -63 636 c 1
 -226 716 -341 746 -510 713 c 1
 -447 831 -336 883 -240 882 c 1
 -221 948 l 1
 -149 948 l 1
 -167 869 l 1
 -155 866 -124 851 -114 839 c 1
 -83 948 l 1
 -6 948 l 1
 -58 743 l 1
EndSplineSet
EndChar
StartChar: ellipsis
Encoding: 133 8230 101
Width: 998
Flags: W
HStem: -14 21G<144.5 182 477 514.5 809.5 847>
Fore
917 57 m 0
 917 57 l 0
 906 18 866 -14 828 -14 c 0
 791 -14 768 20 779 57 c 0
 788 92 829 126 865 126 c 0
 902 126 926 94 917 57 c 0
585 57 m 0
 585 57 l 0
 574 18 533 -14 496 -14 c 0
 458 -14 435 20 445 57 c 0
 455 92 496 126 533 126 c 0
 570 126 594 94 585 57 c 0
252 57 m 0
 241 18 201 -14 163 -14 c 0
 126 -14 103 20 114 57 c 0
 123 92 164 126 200 126 c 0
 237 126 261 94 252 57 c 0
EndSplineSet
EndChar
StartChar: uni0E48.low_left
Encoding: 134 63237 102
Width: 0
Flags: W
Fore
-17 926 m 1
 -97 688 l 1
 -169 688 l 1
 -121 926 l 1
 -17 926 l 1
EndSplineSet
EndChar
StartChar: uni0E49.low_left
Encoding: 135 63238 103
Width: 0
Flags: W
HStem: 892 48<-318 -304>
Fore
23 940 m 1
 23 940 l 0
 -98 627 -392 665 -444 670 c 1
 -433 710 l 1
 -386 716 -362 736 -347 757 c 2
 -346 760 l 1
 -346 760 -356 757 -373 759 c 0
 -475 776 -429 940 -304 940 c 0
 -206 940 -230 851 -230 849 c 0
 -253 765 -309 725 -309 725 c 1
 -309 722 l 1
 -309 722 -127 737 -78 940 c 1
 23 940 l 1
-341 800 m 0
 -280 800 -255 892 -316 892 c 0
 -378 892 -402 800 -341 800 c 0
EndSplineSet
EndChar
StartChar: uni0E4A.low_left
Encoding: 136 63239 104
Width: 0
Flags: W
HStem: 677 31<-369 -357> 785 31<-341 -330>
Fore
9 917 m 1
 9 917 l 0
 -15 790 -126 677 -266 677 c 1
 -257 713 l 1
 -175 750 -167 851 -206 866 c 1
 -272 828 l 1
 -323 869 l 1
 -355 863 -381 822 -384 799 c 1
 -381 796 l 1
 -381 796 -364 816 -330 816 c 0
 -290 816 -266 790 -278 748 c 0
 -289 705 -326 677 -367 677 c 0
 -432 677 -455 734 -435 806 c 0
 -424 851 -367 919 -304 923 c 1
 -260 874 l 1
 -187 923 l 1
 -88 892 -118 794 -164 746 c 1
 -161 745 l 1
 -112 771 -68 833 -65 917 c 1
 9 917 l 1
-359 708 m 0
 -307 708 -287 785 -339 785 c 0
 -390 785 -410 708 -359 708 c 0
EndSplineSet
EndChar
StartChar: uni0E4B.low_left
Encoding: 137 63240 105
Width: 0
Flags: W
HStem: 773 75<-290 -217 -120 -46>
DStem: -217 773 -140 773 -237 691 -163 691 -197 849 -120 849 -290 848 -26 848 -177 931 -97 931 -197 849 -120 849
Fore
-46 774 m 1
 -140 773 l 1
 -163 691 l 1
 -237 691 l 1
 -217 773 l 1
 -310 774 l 1
 -290 848 l 1
 -197 849 l 1
 -177 931 l 1
 -97 931 l 1
 -120 849 l 1
 -26 848 l 1
 -46 774 l 1
EndSplineSet
MinimumDistance: x6,11 x5,0 
EndChar
StartChar: uni0E4C.low_left
Encoding: 138 63241 106
Width: 0
Flags: W
HStem: 679 43<-253 -239>
Fore
17 954 m 1
 17 954 l 0
 -34 857 -151 836 -177 829 c 1
 -178 826 l 1
 -154 825 -134 802 -144 760 c 0
 -157 714 -203 679 -253 679 c 0
 -309 679 -330 720 -318 766 c 0
 -307 806 -264 859 -169 876 c 0
 -121 885 -80 919 -55 975 c 1
 17 954 l 1
-241 722 m 0
 -189 722 -167 805 -220 805 c 0
 -276 805 -298 722 -241 722 c 0
EndSplineSet
EndChar
StartChar: uni0E48.low
Encoding: 139 63242 107
Width: 0
Flags: W
AnchorPoint: "AboveBase" 40.1641 629.76 mark 0
Fore
109 926 m 1
 43 688 l 1
 -37 688 l 1
 -3 926 l 1
 109 926 l 1
EndSplineSet
Substitution: 0 65534 'amni' uni0E4D
EndChar
StartChar: uni0E49.low
Encoding: 140 63243 108
Width: 0
Flags: W
HStem: 925 53<-113 -95>
AnchorPoint: "AboveBase" 40.1641 629.76 mark 0
Fore
264 972 m 1
 264 972 l 0
 157 631 -189 673 -233 677 c 1
 -223 727 l 1
 -194 730 -154 742 -132 777 c 1
 -132 780 l 1
 -132 780 -144 777 -161 779 c 0
 -272 790 -237 978 -95 978 c 0
 9 978 -9 880 -9 879 c 0
 -32 771 -95 736 -95 736 c 1
 -95 733 l 1
 -95 733 121 763 157 972 c 1
 264 972 l 1
-132 823 m 0
 -61 823 -40 925 -111 925 c 0
 -174 925 -195 823 -132 823 c 0
EndSplineSet
Substitution: 0 65534 'amni' uni0E4D
EndChar
StartChar: uni0E4A.low
Encoding: 141 63244 109
Width: 0
Flags: W
HStem: 671 40<-212 -201> 794 39<-186 -175>
AnchorPoint: "AboveBase" 40.1641 629.76 mark 0
Fore
223 954 m 1
 223 954 l 0
 195 803 75 671 -91 671 c 1
 -81 713 l 1
 12 756 15 877 -31 894 c 1
 -109 848 l 1
 -172 899 l 1
 -210 891 -238 842 -238 816 c 1
 -235 809 l 1
 -235 809 -217 833 -177 833 c 0
 -131 833 -101 803 -111 757 c 0
 -121 705 -161 671 -210 671 c 0
 -286 671 -316 737 -298 823 c 0
 -287 877 -226 955 -152 963 c 1
 -97 906 l 1
 -14 963 l 1
 106 926 77 808 26 753 c 1
 29 750 l 1
 84 782 134 856 132 954 c 1
 223 954 l 1
-203 711 m 0
 -151 711 -132 794 -184 794 c 0
 -241 794 -260 711 -203 711 c 0
EndSplineSet
Substitution: 0 65534 'amni' uni0E4D
EndChar
StartChar: uni0E4B.low
Encoding: 142 63245 110
Width: 0
Flags: W
HStem: 768 83<-111 -26 86 167>
DStem: -26 768 66 768 -43 677 46 677 -9 852 86 852 -111 851 186 851
AnchorPoint: "AboveBase" 40.1641 629.76 mark 0
Fore
167 770 m 1
 66 768 l 1
 46 677 l 1
 -43 677 l 1
 -26 768 l 1
 -129 770 l 1
 -111 851 l 1
 -9 852 l 1
 8 942 l 1
 106 942 l 1
 86 852 l 1
 186 851 l 1
 167 770 l 1
EndSplineSet
MinimumDistance: x5,0 
Substitution: 0 65534 'amni' uni0E4D
EndChar
StartChar: uni0E4C.low
Encoding: 143 63246 111
Width: 0
Flags: W
HStem: 671 48<-36 -24>
AnchorPoint: "AboveBase" 40.1641 629.76 mark 0
Fore
247 974 m 1
 247 974 l 0
 195 866 69 843 41 837 c 1
 41 836 l 1
 66 834 91 806 80 760 c 0
 69 710 23 671 -34 671 c 0
 -94 671 -121 717 -111 768 c 0
 -101 811 -57 865 46 889 c 0
 98 902 143 935 167 998 c 1
 247 974 l 1
-26 719 m 0
 34 719 54 809 -6 809 c 0
 -66 809 -86 719 -26 719 c 0
EndSplineSet
EndChar
StartChar: uni0E0D.descless
Encoding: 144 63247 112
Width: 797
Flags: W
HStem: -8 49<541 559> 378 44<201 218 201 378>
DStem: 167 315 273 326 117 124 235 183 487 401 590 401 413 124 510 101
Fore
737 117 m 1
 737 117 l 0
 723 61 637 -8 541 -8 c 0
 447 -8 393 54 413 124 c 1
 487 401 l 2
 535 581 298 596 201 422 c 1
 390 422 l 1
 378 378 l 1
 355 378 327 378 327 378 c 2
 300 378 281 355 273 326 c 2
 235 183 l 1
 393 218 358 2 210 -6 c 0
 103 -11 104 80 117 124 c 2
 167 315 l 2
 174 336 197 373 218 378 c 1
 135 378 l 1
 218 654 651 680 590 401 c 1
 510 101 l 2
 501 68 518 41 553 41 c 0
 590 41 622 66 630 100 c 1
 745 519 l 1
 813 582 l 1
 833 593 869 608 854 551 c 0
 854 550 737 117 737 117 c 1
223 38 m 0
 293 38 321 143 250 143 c 0
 180 143 152 38 223 38 c 0
EndSplineSet
EndChar
StartChar: quoteleft
Encoding: 145 8216 113
Width: 333
Flags: W
HStem: 452 21G<263 317.5>
Fore
387 524 m 0
 376 479 339 452 296 452 c 0
 230 452 224 504 240 559 c 0
 260 637 347 713 413 731 c 1
 419 703 l 1
 361 680 310 622 301 588 c 0
 300 585 298 579 301 581 c 0
 315 587 321 588 339 588 c 0
 375 588 398 564 387 524 c 0
EndSplineSet
EndChar
StartChar: quoteright
Encoding: 146 8217 114
Width: 333
Flags: W
Fore
410 624 m 0
 389 545 301 470 237 452 c 1
 230 479 l 1
 289 502 339 561 349 594 c 0
 349 598 350 604 347 602 c 0
 333 596 329 594 310 594 c 0
 275 594 250 619 261 659 c 0
 273 703 310 731 353 731 c 0
 419 731 424 679 410 624 c 0
EndSplineSet
EndChar
StartChar: quotedblleft
Encoding: 147 8220 115
Width: 473
Flags: W
HStem: 452 21G<210 264.5 442 496.5>
Fore
565 524 m 0
 565 524 l 0
 554 479 518 452 475 452 c 0
 409 452 402 504 418 559 c 0
 438 637 525 713 591 731 c 1
 598 703 l 1
 539 680 488 622 479 588 c 0
 478 585 476 579 479 581 c 0
 493 587 499 588 518 588 c 0
 553 588 576 564 565 524 c 0
333 524 m 0
 323 479 286 452 243 452 c 0
 177 452 170 504 186 559 c 0
 206 637 293 713 359 731 c 1
 366 703 l 1
 307 680 257 622 247 588 c 0
 246 585 244 579 247 581 c 0
 261 587 267 588 286 588 c 0
 321 588 344 564 333 524 c 0
EndSplineSet
EndChar
StartChar: quotedblright
Encoding: 148 8221 116
Width: 473
Flags: W
Fore
601 621 m 0
 601 621 l 0
 581 542 492 467 427 449 c 1
 421 476 l 1
 479 499 530 558 539 591 c 0
 541 594 542 601 538 599 c 0
 524 593 519 591 501 591 c 0
 465 591 441 616 452 656 c 0
 464 700 501 728 544 728 c 0
 610 728 616 676 601 621 c 0
369 621 m 0
 349 542 260 467 195 449 c 1
 189 476 l 1
 247 499 298 558 307 591 c 0
 309 594 310 601 306 599 c 0
 292 593 287 591 269 591 c 0
 233 591 209 616 220 656 c 0
 232 700 269 728 312 728 c 0
 378 728 384 676 369 621 c 0
EndSplineSet
EndChar
StartChar: bullet
Encoding: 149 8226 117
Width: 385
Flags: W
HStem: 442 20G<277 357>
Fore
421 319 m 0
 399 241 321 177 240 177 c 0
 163 177 115 241 137 319 c 1
 155 398 238 462 316 462 c 0
 398 462 441 398 421 319 c 0
EndSplineSet
EndChar
StartChar: endash
Encoding: 150 8211 118
Width: 768
Flags: W
HStem: 201 72<94 800>
Fore
800 201 m 1
 75 201 l 1
 95 273 l 1
 820 273 l 1
 800 201 l 1
EndSplineSet
EndChar
StartChar: emdash
Encoding: 151 8212 119
Width: 1536
Flags: W
HStem: 201 72<82 1581>
Fore
1581 201 m 1
 63 201 l 1
 83 273 l 1
 1601 273 l 1
 1581 201 l 1
EndSplineSet
EndChar
StartChar: uni0E31.left
Encoding: 152 63248 120
Width: 0
Flags: W
HStem: 676 100<-195 -100> 880 49<-168 -154>
Fore
339 923 m 1
 339 923 l 0
 253 737 48 676 -100 676 c 0
 -218 676 -312 736 -287 823 c 0
 -272 882 -212 929 -154 929 c 0
 -91 929 -60 885 -75 826 c 0
 -86 786 -115 754 -161 737 c 1
 -45 703 149 745 238 923 c 1
 339 923 l 1
-195 776 m 0
 -124 776 -95 880 -166 880 c 0
 -237 880 -266 776 -195 776 c 0
EndSplineSet
EndChar
StartChar: uni0E4D.left
Encoding: 153 63249 121
Width: 0
Flags: W
HStem: 673 54<-157 -141> 831 57<-115 -98>
Fore
-157 673 m 0
 -157 673 l 0
 -301 673 -243 888 -98 888 c 0
 45 888 -14 673 -157 673 c 0
-141 727 m 0
 -71 727 -43 831 -114 831 c 0
 -184 831 -212 727 -141 727 c 0
EndSplineSet
EndChar
StartChar: uni0E47.left
Encoding: 154 63250 122
Width: 0
Flags: W
Fore
52 1008 m 1
 52 1008 l 0
 20 897 -65 872 -135 876 c 0
 -169 877 -229 886 -267 888 c 0
 -326 892 -375 825 -355 748 c 1
 -307 813 -235 777 -212 742 c 1
 -212 742 -200 733 -197 746 c 0
 -166 857 3 860 -28 743 c 0
 -45 684 -101 656 -140 656 c 0
 -220 656 -244 733 -300 733 c 0
 -341 733 -349 687 -329 656 c 1
 -396 657 l 1
 -485 760 -395 955 -250 940 c 0
 -220 937 -160 931 -131 928 c 0
 -108 925 -51 928 -38 1008 c 1
 52 1008 l 1
-69 743 m 0
 -54 802 -141 802 -157 743 c 0
 -172 685 -84 685 -69 743 c 0
EndSplineSet
EndChar
StartChar: uni0E48.left
Encoding: 155 63251 123
Width: 0
Flags: W
Fore
89 1227 m 1
 20 1021 l 1
 -57 1021 l 1
 -15 1227 l 1
 89 1227 l 1
EndSplineSet
EndChar
StartChar: uni0E49.left
Encoding: 156 63252 124
Width: 0
Flags: W
HStem: 1187 42<-31 -17>
Fore
275 1229 m 1
 275 1229 l 0
 170 957 -92 991 -138 994 c 1
 -127 1029 l 1
 -88 1034 -66 1052 -52 1071 c 1
 -52 1074 l 1
 -52 1074 -61 1071 -75 1072 c 0
 -164 1086 -124 1229 -17 1229 c 0
 69 1229 49 1152 49 1150 c 0
 29 1077 -18 1043 -18 1043 c 1
 -20 1040 l 1
 -20 1040 144 1054 186 1229 c 1
 275 1229 l 1
-51 1109 m 0
 5 1109 26 1187 -29 1187 c 0
 -81 1187 -103 1109 -51 1109 c 0
EndSplineSet
EndChar
StartChar: uni0E4A.left
Encoding: 157 63253 125
Width: 0
Flags: W
HStem: 986 35<-106 -95> 1089 35<-80 -69>
Fore
270 1226 m 1
 270 1226 l 0
 246 1098 135 986 -5 986 c 1
 5 1021 l 1
 86 1058 94 1160 55 1175 c 1
 -11 1137 l 1
 -61 1178 l 1
 -95 1172 -120 1130 -123 1107 c 1
 -120 1104 l 1
 -120 1104 -103 1124 -69 1124 c 0
 -29 1124 -6 1098 -18 1057 c 0
 -29 1014 -65 986 -106 986 c 0
 -170 986 -194 1043 -174 1115 c 0
 -163 1160 -106 1227 -43 1232 c 1
 2 1183 l 1
 74 1232 l 1
 174 1201 141 1103 97 1055 c 1
 100 1054 l 1
 147 1080 194 1141 197 1226 c 1
 270 1226 l 1
-97 1021 m 0
 -51 1021 -32 1089 -78 1089 c 0
 -123 1089 -141 1021 -97 1021 c 0
EndSplineSet
EndChar
StartChar: uni0E4B.left
Encoding: 158 63254 126
Width: 0
Flags: W
HStem: 1074 75<-121 -48 51 124>
DStem: -48 1074 29 1074 -66 995 8 995 -26 1150 51 1150 -121 1149 143 1149 -8 1229 72 1229 -26 1150 51 1150
Fore
124 1075 m 1
 29 1074 l 1
 8 995 l 1
 -66 995 l 1
 -48 1074 l 1
 -140 1075 l 1
 -121 1149 l 1
 -26 1150 l 1
 -8 1229 l 1
 72 1229 l 1
 51 1150 l 1
 143 1149 l 1
 124 1075 l 1
EndSplineSet
MinimumDistance: x6,11 x5,0 
EndChar
StartChar: uni0E4C.left
Encoding: 159 63255 127
Width: 0
Flags: W
HStem: 926 42<-60 -47>
Fore
210 1201 m 1
 210 1201 l 0
 158 1104 41 1086 15 1080 c 1
 15 1077 l 1
 40 1075 58 1049 48 1008 c 0
 35 962 -9 926 -60 926 c 0
 -115 926 -138 968 -126 1014 c 0
 -115 1054 -72 1106 23 1123 c 0
 71 1132 112 1166 137 1223 c 1
 210 1201 l 1
-49 968 m 0
 3 968 25 1051 -28 1051 c 0
 -84 1051 -106 968 -49 968 c 0
EndSplineSet
EndChar
StartChar: uni0E01
Encoding: 161 3585 129
Width: 602
Flags: W
HStem: 0 21G<83 187 410 511> 378 44<203 218 203 378>
DStem: 167 315 275 326 83 0 187 0 518 399 619 404 410 0 511 0
Fore
511 0 m 1
 410 0 l 1
 518 399 l 2
 567 582 296 593 203 422 c 1
 390 422 l 1
 378 378 l 1
 355 378 329 378 329 378 c 2
 301 378 283 355 275 326 c 2
 187 0 l 1
 83 0 l 1
 167 315 l 2
 174 336 197 373 218 378 c 1
 135 378 l 1
 218 651 677 682 619 404 c 1
 511 0 l 1
EndSplineSet
EndChar
StartChar: uni0E02
Encoding: 162 3586 130
Width: 585
Flags: W
HStem: -8 46<358 372> 298 35<199 212> 432 35<235 248>
DStem: 350 472 444 436 257 118 346 69
Fore
527 118 m 1
 527 118 l 0
 507 46 445 -8 358 -8 c 0
 278 -8 237 48 257 118 c 1
 350 472 l 2
 375 564 212 579 178 436 c 1
 200 461 224 467 246 467 c 0
 300 467 323 430 310 384 c 0
 298 339 257 298 201 298 c 0
 117 298 112 386 138 458 c 0
 164 535 235 598 330 598 c 0
 430 598 468 527 444 436 c 2
 346 69 l 1
 341 54 352 38 370 38 c 0
 387 38 406 54 410 68 c 1
 535 524 l 1
 601 587 l 1
 622 598 659 613 644 556 c 0
 644 554 527 118 527 118 c 1
210 333 m 0
 276 333 303 432 237 432 c 0
 170 432 144 333 210 333 c 0
EndSplineSet
EndChar
StartChar: uni0E03
Encoding: 163 3587 131
Width: 637
Flags: W
HStem: -8 46<409 423> 255 37<198 214> 390 37<233 244>
DStem: 257 536 276 599 309 459 327 525 404 485 499 455 306 118 396 69
Fore
578 118 m 1
 578 118 l 0
 558 46 496 -8 409 -8 c 0
 329 -8 287 51 306 118 c 2
 404 485 l 1
 409 505 407 521 392 525 c 1
 309 459 l 1
 257 536 l 1
 220 515 181 476 170 395 c 1
 194 421 226 427 244 427 c 0
 364 424 316 255 198 255 c 0
 108 255 109 346 129 427 c 0
 141 478 186 559 276 599 c 1
 327 525 l 1
 416 599 l 1
 511 588 518 521 499 455 c 1
 396 69 l 1
 392 54 399 38 421 38 c 0
 441 38 456 54 461 68 c 1
 584 524 l 1
 651 587 l 1
 673 598 710 613 694 556 c 0
 694 554 578 118 578 118 c 1
209 292 m 0
 275 292 301 390 235 390 c 0
 169 390 143 292 209 292 c 0
EndSplineSet
EndChar
StartChar: uni0E04
Encoding: 164 3588 132
Width: 589
Flags: W
HStem: 0 21G<89 192 399 501> 249 44<326 340> 319 21G<200 203> 398 46<360 378> 547 52<392 409>
DStem: 152 233 247 206 89 0 192 0 504 389 608 404 399 0 501 0
Fore
501 0 m 1
 399 0 l 1
 504 389 l 1
 528 484 496 547 395 547 c 0
 287 547 203 482 181 401 c 0
 170 361 190 333 200 319 c 1
 203 319 l 1
 240 387 286 444 376 444 c 0
 510 444 461 249 326 249 c 0
 301 249 281 258 272 267 c 1
 263 257 255 233 247 206 c 2
 192 0 l 1
 89 0 l 1
 152 233 l 2
 163 275 106 304 132 401 c 0
 166 525 283 599 407 599 c 4
 545 599 648 550 608 404 c 1
 501 0 l 1
338 293 m 0
 409 293 436 398 366 398 c 0
 295 398 267 293 338 293 c 0
EndSplineSet
EndChar
StartChar: uni0E05
Encoding: 165 3589 133
Width: 591
Flags: W
HStem: 0 21G<89 192 398 499> 218 45<318 334> 367 46<357 371>
DStem: 151 229 241 186 89 0 192 0 312 535 333 598 379 459 396 521 501 596 488 535 396 521 379 459 502 387 604 387 398 0 499 0
Fore
499 0 m 1
 398 0 l 1
 502 387 l 1
 516 444 536 504 488 535 c 1
 379 459 l 1
 312 535 l 1
 276 527 201 475 181 401 c 0
 170 362 183 327 201 295 c 1
 204 295 l 1
 235 346 281 413 369 413 c 0
 502 413 453 218 318 218 c 0
 293 218 275 223 263 237 c 1
 253 226 244 197 241 186 c 2
 192 0 l 1
 89 0 l 1
 151 229 l 2
 160 264 106 304 132 401 c 0
 166 525 266 576 333 598 c 1
 396 521 l 1
 501 596 l 1
 558 581 647 548 604 387 c 2
 499 0 l 1
332 263 m 0
 402 263 430 367 359 367 c 0
 289 367 261 263 332 263 c 0
EndSplineSet
EndChar
StartChar: uni0E06
Encoding: 166 3590 134
Width: 757
Flags: W
HStem: -8 66<272 281> 255 37<198 214> 390 37<233 244>
DStem: 257 536 276 599 309 459 327 525 404 485 499 455 333 223 435 214
Fore
662 0 m 0
 576 0 l 0
 545 120 456 152 422 163 c 1
 401 77 375 -8 281 -8 c 0
 131 -8 195 210 333 223 c 1
 404 485 l 1
 409 505 407 521 392 525 c 1
 309 459 l 1
 257 536 l 1
 220 515 181 476 170 395 c 1
 194 421 226 427 244 427 c 0
 364 424 316 255 198 255 c 0
 108 255 109 346 129 427 c 0
 141 478 186 559 276 599 c 1
 327 525 l 1
 416 599 l 1
 511 588 518 521 499 455 c 1
 435 214 l 1
 464 206 545 183 593 120 c 1
 702 519 l 1
 770 582 l 1
 788 594 828 608 809 551 c 0
 809 550 677 57 662 0 c 0
295 80 m 0
 319 174 l 0
 253 166 215 58 276 58 c 0
 284 58 292 66 295 80 c 0
209 292 m 0
 275 292 301 390 235 390 c 0
 169 390 143 292 209 292 c 0
EndSplineSet
EndChar
StartChar: uni0E07
Encoding: 167 3591 135
Width: 479
Flags: W
HStem: 0 21G<290 390> 395 46<360 374> 545 49<399 424>
Fore
390 0 m 1
 290 0 l 1
 115 296 l 1
 132 353 l 1
 316 117 l 1
 393 399 l 1
 382 396 372 395 362 395 c 0
 232 395 278 594 424 594 c 4
 559 594 521 490 518 476 c 0
 518 475 390 0 390 0 c 1
372 441 m 0
 442 441 470 545 399 545 c 0
 329 545 301 441 372 441 c 0
EndSplineSet
EndChar
StartChar: uni0E08
Encoding: 168 3592 136
Width: 565
Flags: W
HStem: -5 50<336 352> 237 44<240 257> 386 46<280 300>
DStem: 267 240 393 327 235 121 326 75 481 415 585 413 390 74 507 121
Fore
507 121 m 1
 507 121 l 0
 488 49 424 -5 336 -5 c 0
 264 -5 217 54 235 121 c 2
 267 240 l 1
 260 238 250 237 241 237 c 0
 178 237 152 286 172 343 c 0
 190 393 238 432 300 432 c 0
 392 432 407 381 393 327 c 1
 326 75 l 1
 321 60 330 45 350 45 c 0
 372 45 386 60 390 74 c 1
 481 415 l 2
 524 576 289 582 177 430 c 1
 144 450 l 1
 313 682 641 617 585 413 c 2
 507 121 l 1
252 281 m 0
 323 281 350 386 280 386 c 0
 209 386 181 281 252 281 c 0
EndSplineSet
EndChar
StartChar: uni0E09
Encoding: 169 3593 137
Width: 615
Flags: W
HStem: -8 43<465 480> 195 45<189 203> 344 46<229 249>
Fore
582 226 m 0
 582 226 l 0
 574 194 556 184 556 184 c 1
 556 181 l 1
 639 155 593 -8 465 -8 c 0
 390 -8 369 65 410 120 c 1
 319 92 257 20 247 0 c 1
 164 0 l 1
 218 198 l 1
 209 197 200 195 190 195 c 0
 127 195 104 247 121 300 c 0
 138 350 187 390 249 390 c 0
 341 390 356 339 343 286 c 2
 343 286 319 198 307 154 c 0
 301 131 290 109 290 109 c 1
 315 131 376 175 468 183 c 1
 531 421 l 1
 573 571 312 590 189 430 c 1
 157 450 l 1
 313 673 691 633 633 412 c 1
 633 412 584 227 582 226 c 0
201 240 m 0
 201 240 l 0
 272 240 300 344 229 344 c 0
 158 344 131 240 201 240 c 0
478 35 m 0
 548 35 576 140 505 140 c 0
 435 140 407 35 478 35 c 0
EndSplineSet
EndChar
StartChar: uni0E0A
Encoding: 170 3594 138
Width: 583
Flags: W
HStem: 0 45<168 371> 298 35<199 212> 432 35<235 248>
DStem: 350 470 432 393 237 45 338 45
Fore
713 594 m 1
 713 594 l 0
 665 476 590 435 521 418 c 1
 662 412 573 0 369 0 c 2
 157 0 l 1
 169 45 l 1
 237 45 l 1
 350 470 l 2
 375 562 212 579 178 436 c 1
 200 461 224 467 246 467 c 0
 300 467 323 430 310 384 c 0
 298 339 257 298 201 298 c 0
 117 298 112 386 138 458 c 0
 164 535 235 598 330 598 c 0
 430 598 467 524 447 445 c 1
 522 449 581 531 599 594 c 1
 713 594 l 1
468 386 m 0
 468 386 l 0
 459 392 442 393 432 393 c 1
 338 45 l 1
 367 45 l 2
 447 45 525 338 468 386 c 0
210 333 m 0
 276 333 303 432 237 432 c 0
 170 432 144 333 210 333 c 0
EndSplineSet
EndChar
StartChar: uni0E0B
Encoding: 171 3595 139
Width: 649
Flags: W
HStem: 0 45<222 423> 255 37<198 213> 390 37<233 244>
DStem: 257 536 276 599 309 459 327 525 404 485 484 393 286 45 390 45
Fore
765 594 m 1
 765 594 l 0
 717 476 642 435 573 418 c 1
 714 412 625 0 421 0 c 2
 210 0 l 1
 223 45 l 1
 286 45 l 1
 404 485 l 1
 409 505 407 521 392 525 c 1
 309 459 l 1
 257 536 l 1
 220 515 181 476 170 395 c 1
 194 421 226 427 244 427 c 0
 364 424 316 255 198 255 c 0
 108 255 109 346 129 427 c 0
 141 478 186 559 276 599 c 1
 327 525 l 1
 416 599 l 1
 511 588 518 521 499 455 c 1
 499 450 l 1
 579 453 633 531 651 594 c 1
 765 594 l 1
521 386 m 0
 521 386 l 0
 511 392 495 393 484 393 c 1
 390 45 l 1
 419 45 l 2
 499 45 578 338 521 386 c 0
209 292 m 0
 275 292 301 390 235 390 c 0
 169 390 143 292 209 292 c 0
EndSplineSet
EndChar
StartChar: uni0E0C
Encoding: 172 3596 140
Width: 800
Flags: W
HStem: -6 43<190 204> 378 44<203 218 203 378>
DStem: 167 315 273 326 115 121 235 183 518 404 619 402 461 190 561 184
Fore
430 71 m 0
 450 144 l 0
 410 141 378 84 396 58 c 0
 404 49 425 51 430 71 c 0
235 183 m 0
 235 183 l 0
 367 194 327 -6 192 -6 c 0
 98 -6 103 77 115 121 c 2
 167 315 l 2
 174 336 197 373 218 378 c 1
 135 378 l 1
 218 653 679 682 619 402 c 1
 561 184 l 1
 578 180 631 167 654 132 c 1
 760 519 l 1
 828 582 l 1
 848 593 885 608 869 551 c 0
 869 550 737 57 722 0 c 1
 639 0 l 1
 656 78 591 129 548 135 c 1
 525 52 502 -8 416 -8 c 0
 286 -8 341 183 461 190 c 1
 518 404 l 1
 565 579 296 594 203 422 c 1
 390 422 l 1
 378 378 l 1
 355 378 327 378 327 378 c 2
 300 378 281 355 273 326 c 2
 273 326 247 229 235 183 c 0
200 37 m 0
 270 37 300 141 229 141 c 0
 158 141 129 37 200 37 c 0
EndSplineSet
EndChar
StartChar: uni0E0D
Encoding: 173 3597 141
Width: 800
Flags: W
HStem: -8 49<541 559> 378 44<201 218 201 378>
DStem: 167 315 273 326 117 124 235 183 487 401 590 401 413 124 510 101
Fore
737 117 m 1
 737 117 l 0
 723 61 637 -8 541 -8 c 0
 447 -8 393 54 413 124 c 1
 487 401 l 2
 535 581 298 596 201 422 c 1
 390 422 l 1
 378 378 l 1
 355 378 327 378 327 378 c 2
 300 378 281 355 273 326 c 2
 235 183 l 1
 393 218 359 3 210 -5 c 0
 103 -9 104 80 117 124 c 2
 167 315 l 2
 174 336 197 373 218 378 c 1
 135 378 l 1
 218 654 651 680 590 401 c 1
 510 101 l 2
 501 68 518 41 553 41 c 0
 590 41 622 66 630 100 c 1
 745 519 l 1
 813 582 l 1
 833 593 869 608 854 551 c 0
 854 550 737 117 737 117 c 1
677 -109 m 1
 677 -109 l 0
 631 -283 301 -303 352 -112 c 0
 361 -83 396 -31 462 -31 c 0
 516 -31 530 -69 519 -111 c 0
 508 -147 467 -183 427 -177 c 1
 425 -181 l 1
 472 -220 562 -183 581 -114 c 2
 599 -43 l 1
 694 -43 l 1
 677 -109 l 1
490 -106 m 0
 490 -106 l 0
 505 -48 415 -48 399 -106 c 0
 382 -167 473 -167 490 -106 c 0
223 38 m 0
 293 38 321 143 250 143 c 0
 180 143 152 38 223 38 c 0
EndSplineSet
Substitution: 0 65534 'nds0' uni0E0D.descless
Substitution: 0 65534 'ndsc' uni0E0D.descless
EndChar
StartChar: uni0E0E
Encoding: 174 3598 142
Width: 612
Flags: W
HStem: -241 114<395 395.116> -5 43<96 110> 378 44<192 209 192 370>
DStem: 160 304 264 318 135 187 217 92 507 413 608 407 402 -77 472 -241
AnchorPoint: "BelowBase" 467.91 -241.152 basechar 0
Fore
472 -241 m 5
 387 -241 l 0
 372 -183 326 -146 276 -118 c 1
 207 -260 20 -252 46 -132 c 0
 60 -61 152 -15 261 -51 c 1
 290 -5 315 6 330 15 c 1
 375 -9 l 1
 347 -22 324 -41 306 -71 c 1
 335 -80 376 -104 395 -127 c 1
 395 -127 398 -101 402 -77 c 2
 507 413 l 2
 542 581 272 590 192 422 c 1
 379 422 l 1
 370 378 l 1
 318 378 l 2
 290 378 270 346 264 318 c 2
 217 92 l 2
 203 29 152 -5 98 -5 c 0
 -28 -5 11 183 135 187 c 1
 160 304 l 2
 164 329 189 373 209 378 c 1
 127 378 l 1
 195 651 650 682 608 407 c 1
 472 -241 l 5
232 -100 m 1
 232 -100 l 0
 170 -81 108 -86 97 -135 c 0
 88 -183 181 -194 227 -109 c 2
 232 -100 l 1
108 38 m 0
 178 38 201 143 131 143 c 0
 60 143 37 38 108 38 c 0
EndSplineSet
EndChar
StartChar: uni0E0F
Encoding: 175 3599 143
Width: 612
Flags: W
HStem: -8 45<96 112> 378 44<192 209 192 370>
DStem: 158 304 264 318 134 187 217 92 507 413 608 407 393 -123 472 -240
AnchorPoint: "BelowBase" 467.91 -241.152 basechar 0
Fore
472 -240 m 5
 389 -240 l 0
 381 -140 286 -121 220 -240 c 1
 177 -240 l 1
 175 -207 160 -172 144 -154 c 1
 83 -281 -81 -257 -60 -151 c 0
 -38 -54 69 -25 140 -74 c 1
 158 -45 190 -20 233 -5 c 1
 260 -43 l 1
 229 -51 192 -75 175 -104 c 1
 194 -115 209 -147 215 -169 c 1
 258 -103 343 -78 393 -123 c 1
 507 413 l 2
 542 581 272 590 192 422 c 1
 379 422 l 1
 370 378 l 1
 318 378 l 2
 290 378 270 346 264 318 c 2
 217 92 l 2
 203 29 152 -8 98 -8 c 0
 -28 -8 8 183 134 187 c 1
 158 304 l 2
 163 329 189 373 209 378 c 1
 127 378 l 1
 195 651 650 682 608 407 c 1
 472 -240 l 5
109 -120 m 0
 109 -120 l 0
 55 -77 -2 -109 -9 -147 c 0
 -22 -200 69 -215 109 -120 c 0
108 37 m 0
 178 37 201 141 131 141 c 0
 60 141 37 37 108 37 c 0
EndSplineSet
EndChar
StartChar: uni0E10
Encoding: 176 3600 144
Width: 508
Flags: W
HStem: -289 48<157 278> -289 123<266 278> -243 42<20 33> -74 40<283 300> -5 50<292 312> 166 44<184 199> 315 43<222 235>
DStem: 137 445 214 478 398 370 467 407 409 333 510 335 339 74 449 106
Fore
591 558 m 0x1e
 591 558 l 0
 473 376 309 627 214 478 c 1
 467 407 l 2
 481 402 527 395 510 335 c 1
 449 106 l 1
 430 34 378 -5 292 -5 c 0
 220 -5 177 38 194 106 c 1
 210 169 l 1
 201 167 194 166 184 166 c 0
 123 166 100 215 115 269 c 1
 134 319 178 358 235 358 c 0
 326 359 352 313 336 258 c 2
 287 75 l 1
 284 61 287 45 306 45 c 0
 324 45 336 61 339 74 c 2
 409 333 l 2
 415 358 409 367 398 370 c 2
 137 445 l 1
 164 493 232 601 349 598 c 0
 413 598 518 533 574 585 c 0
 591 601 619 599 591 558 c 0x1e
361 -218 m 1
 361 -218 l 0
 353 -249 329 -289 278 -289 c 2x9e
 95 -289 l 1
 112 -226 l 2
 118 -203 126 -178 120 -166 c 1x5e
 106 -210 69 -243 20 -243 c 0x3e
 -18 -243 -41 -223 -41 -183 c 0
 -41 -132 25 -63 97 -84 c 1
 103 -71 108 -58 120 -46 c 1
 166 -52 l 1
 149 -66 140 -88 137 -106 c 1
 190 -134 163 -217 157 -241 c 1
 249 -241 l 2x9e
 266 -241 273 -214 276 -197 c 1
 267 -200 l 2
 261 -203 252 -203 240 -201 c 0x3e
 141 -192 187 -34 298 -34 c 0
 367 -34 393 -68 384 -129 c 1
 361 -218 l 1
266 -166 m 0x5e
 266 -166 l 0
 324 -166 349 -74 290 -74 c 0
 226 -74 201 -166 266 -166 c 0x5e
88 -124 m 0
 88 -124 l 0
 63 -117 14 -124 5 -163 c 0
 -2 -183 6 -201 31 -201 c 0x3e
 61 -201 88 -160 88 -124 c 0
197 210 m 0
 267 210 295 315 224 315 c 0
 154 315 126 210 197 210 c 0
EndSplineSet
KernsSLIF: 212 31 1 0 215 31 1 0 214 31 1 0 213 31 1 0
Substitution: 0 65534 'nds0' uni0E10.descless
Substitution: 0 65534 'ndsc' uni0E10.descless
EndChar
StartChar: uni0E11
Encoding: 177 3601 145
Width: 780
Flags: W
HStem: 0 21G<275 358 584 687> 255 37<198 214> 390 37<233 244>
DStem: 257 536 276 599 309 459 327 525 406 485 498 455 275 0 450 273 599 490 642 470 465 269 358 0 711 473 816 482 584 0 687 0
Fore
687 0 m 1
 584 0 l 1
 711 473 l 1
 720 513 677 528 642 470 c 2
 358 0 l 1
 275 0 l 1
 406 485 l 1
 410 505 407 521 392 525 c 1
 309 459 l 1
 257 536 l 1
 220 515 181 476 170 395 c 1
 194 421 226 427 244 427 c 0
 364 424 316 255 198 255 c 0
 108 255 109 346 129 427 c 0
 141 478 186 559 276 599 c 1
 327 525 l 1
 416 599 l 1
 511 588 516 521 498 455 c 1
 450 273 l 2
 442 246 432 226 425 206 c 1
 430 204 l 1
 430 204 452 247 465 269 c 2
 599 490 l 2
 694 645 852 619 816 482 c 2
 687 0 l 1
209 292 m 0
 275 292 301 390 235 390 c 0
 169 390 143 292 209 292 c 0
EndSplineSet
EndChar
StartChar: uni0E12
Encoding: 178 3602 146
Width: 798
Flags: W
HStem: 0 21G<89 192 627 710> 235 40<313 330> 379 43<356 369>
DStem: 312 535 333 598 379 459 396 521 502 598 488 535 396 521 379 459 505 401 605 396 449 190 548 184
Fore
710 0 m 0
 627 0 l 0
 644 78 579 129 536 135 c 1
 513 52 490 -8 404 -8 c 0
 273 -8 329 183 449 190 c 1
 505 401 l 2
 527 482 521 511 488 535 c 1
 379 459 l 1
 312 535 l 1
 273 524 203 476 183 402 c 0
 155 300 220 227 217 164 c 1
 260 214 324 235 313 235 c 0
 255 235 237 281 250 330 c 0
 253 344 284 422 369 422 c 0
 452 422 478 347 410 263 c 0
 352 189 240 146 209 65 c 1
 192 0 l 1
 89 0 l 1
 118 109 l 1
 132 158 95 261 127 384 c 0
 167 535 280 581 333 598 c 1
 396 521 l 1
 502 598 l 1
 562 581 644 539 605 396 c 2
 548 184 l 1
 565 180 619 167 642 132 c 1
 748 519 l 1
 816 582 l 1
 836 593 872 608 857 551 c 0
 857 550 725 57 710 0 c 0
416 68 m 0
 436 146 l 0
 395 143 359 83 381 55 c 0
 389 45 410 46 416 68 c 0
330 275 m 0
 401 275 429 379 358 379 c 0
 287 379 260 275 330 275 c 0
EndSplineSet
EndChar
StartChar: uni0E13
Encoding: 179 3603 147
Width: 800
Flags: W
HStem: -9 43<653 667> 132 51<653 691> 378 44<201 218 201 378>
DStem: 167 315 273 326 117 124 235 183 487 401 590 401 379 0 516 126
Fore
760 203 m 0
 760 203 l 0
 759 194 748 175 739 169 c 1
 816 140 766 -9 653 -9 c 0
 604 -9 578 17 581 61 c 0
 581 83 590 111 613 131 c 1
 541 101 492 23 479 0 c 1
 379 0 l 1
 487 401 l 2
 535 581 298 596 201 422 c 1
 390 422 l 1
 378 378 l 1
 355 378 327 378 327 378 c 2
 300 378 281 355 273 326 c 2
 235 183 l 1
 393 218 358 2 210 -6 c 0
 103 -11 104 80 117 124 c 2
 167 315 l 2
 174 336 197 373 218 378 c 1
 135 378 l 1
 218 654 651 680 590 401 c 1
 516 126 l 1
 544 147 594 184 653 183 c 1
 745 522 l 1
 813 585 l 1
 834 596 871 611 856 554 c 0
 854 553 765 215 760 203 c 0
665 34 m 0
 665 34 l 0
 731 34 757 132 691 132 c 0
 625 132 599 34 665 34 c 0
223 38 m 0
 293 38 321 143 250 143 c 0
 180 143 152 38 223 38 c 0
EndSplineSet
KernsSLIF: 212 -15 1 0 215 -15 1 0 214 -15 1 0 213 -15 1 0
EndChar
StartChar: uni0E14
Encoding: 180 3604 148
Width: 608
Flags: W
HStem: 0 21G<101 203 418 519> 263 40<336 353> 407 43<379 392> 548 50<416 440>
DStem: 528 412 630 412 418 0 519 0
Fore
519 0 m 1
 418 0 l 1
 528 412 l 2
 544 470 528 548 425 548 c 0
 304 548 220 487 197 399 c 0
 175 323 221 240 226 163 c 1
 270 212 347 263 336 263 c 0
 278 263 258 309 270 358 c 0
 275 372 307 450 392 450 c 0
 475 450 498 375 432 290 c 0
 373 217 237 115 220 65 c 1
 203 0 l 1
 101 0 l 1
 126 94 l 1
 149 177 111 270 141 384 c 0
 192 574 361 598 438 598 c 0
 559 598 665 545 630 412 c 1
 519 0 l 1
353 303 m 0
 424 303 452 407 381 407 c 0
 310 407 283 303 353 303 c 0
EndSplineSet
EndChar
StartChar: uni0E15
Encoding: 181 3605 149
Width: 611
Flags: W
HStem: 0 21G<103 206 418 519> 235 40<327 344> 379 43<370 384>
DStem: 326 535 347 598 393 459 410 521 522 598 508 535 410 521 393 459 525 401 625 396 418 0 519 0
Fore
519 0 m 1
 418 0 l 1
 525 401 l 2
 547 482 541 511 508 535 c 1
 393 459 l 1
 326 535 l 1
 287 524 217 476 197 402 c 0
 174 315 233 224 230 161 c 1
 275 210 338 235 327 235 c 0
 269 235 250 281 264 330 c 0
 267 344 298 422 382 422 c 0
 465 422 492 347 424 263 c 0
 366 189 253 146 223 65 c 1
 206 0 l 1
 103 0 l 1
 127 94 l 2
 154 192 106 255 141 384 c 0
 181 535 293 581 347 598 c 1
 410 521 l 1
 522 598 l 1
 582 581 664 539 625 396 c 2
 519 0 l 1
344 275 m 0
 415 275 442 379 372 379 c 0
 301 379 273 275 344 275 c 0
EndSplineSet
EndChar
StartChar: uni0E16
Encoding: 182 3606 150
Width: 602
Flags: W
HStem: 0 21G<410 511> 378 44<203 378>
DStem: 167 315 273 326 115 121 235 183 518 404 619 402 410 0 511 0
Fore
511 0 m 1
 410 0 l 1
 518 404 l 1
 565 579 296 594 203 422 c 1
 390 422 l 1
 378 378 l 1
 355 378 327 378 327 378 c 2
 300 378 281 355 273 326 c 2
 273 326 247 229 235 183 c 1
 379 212 349 2 207 -6 c 0
 100 -12 103 77 115 121 c 2
 167 315 l 2
 174 336 197 373 218 378 c 1
 135 378 l 1
 218 653 679 682 619 402 c 1
 511 0 l 1
215 37 m 0
 286 37 315 141 244 141 c 0
 174 141 144 37 215 37 c 0
EndSplineSet
EndChar
StartChar: uni0E17
Encoding: 183 3607 151
Width: 655
Flags: W
HStem: 0 21G<154 237 462 565> 393 48<229 243> 545 51<269 290>
DStem: 261 399 384 479 154 0 329 273 478 490 521 470 344 269 237 0 590 473 694 482 462 0 565 0
Fore
565 0 m 1
 462 0 l 1
 590 473 l 1
 599 513 556 528 521 470 c 2
 237 0 l 1
 154 0 l 1
 261 399 l 1
 249 395 241 393 230 393 c 0
 95 393 143 596 290 596 c 0
 424 596 387 492 384 479 c 2
 329 273 l 2
 321 246 310 226 304 206 c 1
 309 204 l 1
 309 204 330 247 344 269 c 2
 478 490 l 2
 574 650 731 619 694 482 c 2
 565 0 l 1
241 441 m 0
 312 441 339 545 269 545 c 0
 198 545 170 441 241 441 c 0
EndSplineSet
EndChar
StartChar: uni0E18
Encoding: 184 3608 152
Width: 508
Flags: W
HStem: 0 45<51 306>
DStem: 135 445 212 478 396 370 465 407 183 364 286 364 97 45 200 45 407 333 508 335 346 101 452 120
Fore
590 558 m 0
 472 376 307 627 212 478 c 1
 465 407 l 2
 479 402 525 395 508 335 c 1
 452 120 l 2
 430 38 378 0 306 0 c 2
 40 0 l 1
 52 45 l 1
 97 45 l 1
 183 364 l 1
 286 364 l 1
 200 45 l 1
 263 45 l 2
 307 45 335 61 346 101 c 2
 407 333 l 2
 413 358 407 367 396 370 c 2
 135 445 l 1
 163 493 230 601 347 598 c 0
 412 598 516 533 573 585 c 0
 590 601 617 599 590 558 c 0
EndSplineSet
EndChar
StartChar: uni0E19
Encoding: 185 3609 153
Width: 663
Flags: W
HStem: -8 46<502 517> 137 49<505 541> 393 49<228 246> 547 51<267 289>
Fore
616 214 m 0
 616 214 l 0
 614 206 602 189 593 183 c 1
 676 149 621 -8 502 -8 c 0
 415 -8 406 80 453 132 c 1
 341 124 255 34 235 0 c 1
 154 0 l 1
 260 396 l 1
 249 393 240 393 229 393 c 0
 94 390 143 598 289 598 c 0
 424 598 387 493 384 481 c 0
 384 479 326 264 295 147 c 0
 292 135 286 123 281 111 c 1
 335 152 393 184 505 186 c 1
 599 525 l 1
 668 590 l 1
 684 599 723 616 708 558 c 2
 708 558 619 224 616 214 c 0
515 38 m 0
 515 38 l 0
 581 38 607 137 541 137 c 0
 475 137 449 38 515 38 c 0
240 442 m 0
 310 442 338 547 267 547 c 0
 197 547 169 442 240 442 c 0
EndSplineSet
KernsSLIF: 212 -46 1 0 215 -46 1 0 214 -46 1 0 213 -46 1 0
EndChar
StartChar: uni0E1A
Encoding: 186 3610 154
Width: 649
Flags: W
HStem: 0 45<110 441> 393 49<228 242> 547 51<267 290>
Fore
590 120 m 0
 590 120 l 0
 581 74 531 0 441 0 c 2
 98 0 l 1
 111 45 l 1
 166 45 l 1
 260 396 l 1
 249 395 238 393 230 393 c 0
 92 393 144 598 290 598 c 0
 424 598 387 492 384 479 c 0
 382 478 286 117 267 45 c 1
 412 45 l 2
 439 45 475 63 482 106 c 1
 596 524 l 1
 665 587 l 1
 687 599 725 613 707 556 c 0
 707 554 598 149 590 120 c 0
240 442 m 0
 310 442 338 547 267 547 c 0
 197 547 169 442 240 442 c 0
EndSplineSet
EndChar
StartChar: uni0E1B
Encoding: 187 3611 155
Width: 665
Flags: W
HStem: 0 45<107 456> 393 49<205 217> 547 51<238 258>
AnchorPoint: "AboveBase" 540.899 629.76 basechar 0
Fore
599 120 m 0
 599 120 l 0
 591 74 547 0 456 0 c 2
 98 0 l 1
 108 45 l 1
 163 45 l 1
 238 396 l 1
 227 395 215 393 207 393 c 0
 69 393 112 598 258 598 c 0
 392 598 359 492 356 479 c 0
 356 478 280 117 264 45 c 1
 424 45 l 2
 452 45 487 63 493 106 c 1
 664 903 l 1
 730 966 l 1
 750 978 786 992 771 935 c 0
 771 934 605 149 599 120 c 0
215 442 m 0
 286 442 309 547 238 547 c 0
 167 547 144 442 215 442 c 0
EndSplineSet
EndChar
StartChar: uni0E1C
Encoding: 188 3612 156
Width: 649
Flags: W
HStem: 0 132<496 496.092> 550 48<351 367>
DStem: 401 287 427 382 462 66 487 187 427 382 401 287 252 183 212 66
Fore
558 0 m 1
 455 0 l 1
 464 34 l 2
 468 52 461 60 462 66 c 1
 401 287 l 1
 212 66 l 2
 207 60 198 54 194 34 c 1
 184 0 l 1
 80 0 l 1
 207 478 l 1
 224 539 267 598 367 598 c 0
 511 598 447 372 289 399 c 1
 289 399 241 223 232 187 c 0
 224 163 210 129 210 129 c 1
 210 129 240 169 252 183 c 0
 399 350 427 382 427 382 c 1
 427 382 436 350 487 187 c 0
 492 172 496 132 496 132 c 1
 496 132 499 166 505 190 c 0
 515 226 596 522 596 522 c 1
 665 585 l 1
 687 598 725 611 707 554 c 0
 705 553 558 0 558 0 c 1
327 445 m 0
 398 445 425 550 355 550 c 0
 284 550 257 445 327 445 c 0
EndSplineSet
EndChar
StartChar: uni0E1D
Encoding: 189 3613 157
Width: 662
Flags: W
HStem: 0 132<504 504.034> 550 48<319 335>
VStem: 473 297<66 926>
DStem: 181 478 266 399 80 0 221 187 395 295 415 390 473 66 492 187 415 390 395 295 241 183 207 66
AnchorPoint: "AboveBase" 537.827 629.76 basechar 0
Fore
573 0 m 1
 470 0 l 1
 478 34 l 2
 481 52 473 60 473 66 c 1
 395 295 l 1
 207 66 l 1
 204 60 195 54 192 34 c 2
 184 0 l 1
 80 0 l 1
 181 478 l 2
 195 539 235 598 335 598 c 0
 479 598 425 372 266 399 c 1
 266 399 229 223 221 187 c 0
 217 163 203 129 203 129 c 1
 203 129 230 169 241 183 c 0
 379 350 415 390 415 390 c 1
 415 390 432 350 492 187 c 0
 498 172 504 132 504 132 c 1
 504 132 505 166 510 190 c 0
 518 226 662 894 662 894 c 1
 727 957 l 1
 748 969 785 983 770 926 c 0
 770 925 573 0 573 0 c 1
303 445 m 0
 373 445 395 550 324 550 c 0
 253 550 232 445 303 445 c 0
EndSplineSet
EndChar
StartChar: uni0E1E
Encoding: 190 3614 158
Width: 723
Flags: W
HStem: 0 21G<155 250 535 631> 392 49<229 247> 545 49<269 292>
DStem: 515 450 558 588 535 0 579 249 545 588 515 450 339 249 250 0
Fore
631 0 m 1
 535 0 l 1
 515 450 l 1
 250 0 l 1
 155 0 l 1
 261 395 l 1
 250 393 238 392 230 392 c 0
 94 392 144 594 292 594 c 0
 425 594 389 492 386 479 c 0
 384 478 324 253 324 253 c 2
 316 226 290 160 290 160 c 1
 296 160 l 1
 296 160 323 217 339 249 c 1
 545 588 l 1
 558 588 l 1
 579 249 l 1
 581 217 576 160 576 160 c 1
 582 160 l 1
 582 160 590 226 598 253 c 2
 673 528 l 1
 742 591 l 1
 763 604 800 619 782 561 c 0
 782 559 631 0 631 0 c 1
241 441 m 0
 312 441 339 545 269 545 c 0
 198 545 170 441 241 441 c 0
EndSplineSet
EndChar
StartChar: uni0E1F
Encoding: 191 3615 159
Width: 723
Flags: W
HStem: 0 21G<155 250 535 631> 392 49<207 221> 545 49<238 258>
DStem: 488 450 524 588 535 0 565 249 511 588 488 450 326 249 250 0
AnchorPoint: "AboveBase" 599.268 629.76 basechar 0
Fore
631 0 m 1
 535 0 l 1
 488 450 l 1
 250 0 l 1
 155 0 l 1
 240 395 l 1
 227 393 217 392 209 392 c 0
 72 392 111 594 258 594 c 0
 392 594 361 492 358 479 c 0
 358 478 310 253 310 253 c 2
 304 226 281 160 281 160 c 1
 287 160 l 1
 287 160 310 217 326 249 c 1
 511 588 l 1
 524 588 l 1
 565 249 l 1
 568 217 567 160 567 160 c 1
 573 160 l 1
 573 160 578 226 584 253 c 1
 722 894 l 1
 786 957 l 1
 808 969 843 985 828 926 c 0
 828 925 631 0 631 0 c 1
217 441 m 0
 287 441 309 545 238 545 c 0
 167 545 146 441 217 441 c 0
EndSplineSet
EndChar
StartChar: uni0E20
Encoding: 192 3616 160
Width: 617
Flags: W
HStem: -8 45<103 117> 378 44<223 237 223 398>
DStem: 181 304 287 318 151 187 227 92 536 413 637 407 425 0 528 0
Fore
528 0 m 1
 425 0 l 1
 536 413 l 2
 581 581 310 590 223 422 c 1
 410 422 l 1
 398 378 l 1
 346 378 l 2
 318 378 295 346 287 318 c 2
 227 92 l 2
 210 29 158 -8 104 -8 c 0
 -22 -8 25 183 151 187 c 1
 181 304 l 2
 187 329 215 373 237 378 c 1
 155 378 l 1
 238 651 694 682 637 407 c 1
 528 0 l 1
115 37 m 0
 186 37 215 141 144 141 c 0
 74 141 45 37 115 37 c 0
EndSplineSet
EndChar
StartChar: uni0E21
Encoding: 193 3617 161
Width: 652
Flags: W
HStem: 0 21G<470 564> 392 49<228 245> 545 49<267 290>
Fore
564 0 m 0
 470 0 l 0
 450 80 412 141 303 177 c 1
 292 138 284 104 275 78 c 0
 250 22 218 -8 158 -8 c 0
 2 -9 69 223 217 233 c 1
 260 395 l 1
 249 393 237 392 229 392 c 0
 94 392 143 594 290 594 c 0
 424 594 387 492 384 479 c 0
 382 478 329 275 315 224 c 1
 366 215 450 175 493 114 c 1
 602 524 l 1
 674 588 l 2
 688 599 731 616 713 556 c 0
 713 554 579 57 564 0 c 0
174 75 m 0
 204 187 l 0
 147 186 88 98 134 58 c 1
 143 52 167 52 174 75 c 0
240 441 m 0
 310 441 338 545 267 545 c 0
 197 545 169 441 240 441 c 0
EndSplineSet
EndChar
StartChar: uni0E22
Encoding: 194 3618 162
Width: 603
Flags: W
HStem: -8 46<284 318> 283 44<313 353> 398 47<316 335> 550 48<349 367>
Fore
558 174 m 1
 558 174 l 0
 528 65 432 -8 290 -8 c 0
 160 -8 88 49 117 163 c 1
 117 163 123 186 124 187 c 0
 143 257 190 289 223 306 c 1
 201 318 167 349 187 424 c 0
 200 470 190 438 195 452 c 0
 214 521 258 598 367 598 c 0
 502 598 452 398 318 398 c 0
 306 398 292 399 283 407 c 1
 269 358 284 327 326 327 c 2
 366 327 l 1
 353 283 l 1
 313 283 l 2
 278 283 246 258 230 203 c 1
 210 124 l 2
 195 66 244 38 304 38 c 0
 372 38 429 71 444 126 c 0
 445 131 547 499 554 525 c 1
 619 590 l 1
 636 602 679 616 660 556 c 1
 558 174 l 1
327 445 m 0
 398 445 425 550 355 550 c 0
 284 550 257 445 327 445 c 0
EndSplineSet
EndChar
StartChar: uni0E23
Encoding: 195 3619 163
Width: 448
Flags: W
HStem: -3 49<227 248> 151 49<264 280>
DStem: 135 445 210 478 336 387 412 422 349 350 450 350 307 195 387 114
Fore
564 559 m 0
 564 559 l 0
 510 468 422 499 406 505 c 0
 301 544 255 539 210 478 c 1
 412 422 l 2
 444 413 462 393 450 350 c 1
 387 114 l 1
 382 100 366 -3 229 -3 c 0
 81 -3 147 201 280 200 c 0
 289 200 300 198 307 195 c 1
 349 350 l 2
 353 369 355 382 336 387 c 2
 135 445 l 1
 166 499 233 598 343 598 c 0
 415 598 501 541 538 579 c 0
 561 604 584 599 564 559 c 0
238 46 m 0
 309 46 336 151 266 151 c 0
 195 151 167 46 238 46 c 0
EndSplineSet
KernsSLIF: 212 31 1 0 215 31 1 0 214 31 1 0 213 31 1 0
EndChar
StartChar: uni0E24
Encoding: 196 3620 164
Width: 599
Flags: W
HStem: 378 44<200 375>
DStem: 164 315 270 326 112 121 232 183
Fore
616 402 m 0
 462 -169 l 1
 390 -233 l 1
 369 -246 333 -260 352 -203 c 1
 356 -181 513 404 513 404 c 1
 561 579 293 594 200 422 c 1
 387 422 l 1
 375 378 l 1
 352 378 324 378 324 378 c 2
 296 378 278 355 270 326 c 2
 270 326 244 229 232 183 c 1
 376 212 346 2 204 -6 c 0
 97 -12 100 77 112 121 c 2
 164 315 l 2
 170 336 194 373 215 378 c 1
 132 378 l 1
 215 653 676 682 616 402 c 0
210 37 m 0
 281 37 310 141 240 141 c 0
 169 141 140 37 210 37 c 0
EndSplineSet
EndChar
StartChar: uni0E25
Encoding: 197 3621 165
Width: 579
Flags: W
HStem: 0 21G<387 488> 376 54<370 389>
DStem: 462 283 599 413 387 0 488 0
Fore
488 0 m 1
 387 0 l 1
 462 283 l 2
 475 329 439 376 379 376 c 0
 315 376 263 329 249 276 c 2
 226 187 l 1
 386 221 347 3 200 -5 c 0
 103 -8 92 74 104 120 c 2
 143 266 l 1
 166 350 261 430 372 430 c 0
 435 430 473 410 490 379 c 1
 495 393 499 410 502 422 c 0
 541 568 310 587 183 430 c 1
 152 450 l 1
 344 691 651 607 599 413 c 2
 488 0 l 1
209 41 m 0
 280 41 307 146 237 146 c 0
 166 146 138 41 209 41 c 0
EndSplineSet
EndChar
StartChar: uni0E26
Encoding: 198 3622 166
Width: 612
Flags: W
HStem: -8 45<97 111> 378 44<217 230 217 392>
DStem: 175 304 281 318 144 187 218 83
Fore
631 407 m 0
 476 -169 l 1
 404 -233 l 1
 382 -246 347 -260 366 -203 c 1
 370 -181 530 413 530 413 c 2
 574 581 304 590 217 422 c 1
 404 422 l 1
 392 378 l 1
 339 378 l 2
 312 378 289 346 281 318 c 2
 218 83 l 2
 201 20 152 -8 98 -8 c 0
 -28 -8 18 183 144 187 c 1
 175 304 l 2
 181 329 209 373 230 378 c 1
 149 378 l 1
 232 651 688 682 631 407 c 0
109 37 m 0
 180 37 209 141 138 141 c 0
 68 141 38 37 109 37 c 0
EndSplineSet
EndChar
StartChar: uni0E27
Encoding: 199 3623 167
Width: 502
Flags: W
HStem: -5 45<275 294> 144 46<317 329>
DStem: 429 441 525 421 359 186 449 131
Fore
449 131 m 1
 449 131 l 0
 425 46 378 -5 275 -5 c 0
 223 -5 192 37 206 89 c 0
 218 143 266 189 327 190 c 0
 343 190 352 189 359 186 c 1
 429 441 l 2
 462 565 266 587 161 436 c 1
 127 458 l 1
 267 673 581 622 525 421 c 1
 449 131 l 1
292 40 m 0
 362 40 390 144 319 144 c 0
 249 144 221 40 292 40 c 0
EndSplineSet
EndChar
StartChar: uni0E28
Encoding: 200 3624 168
Width: 589
Flags: W
HStem: 0 21G<89 192 399 501> 249 44<321 332> 319 21G<200 203> 398 46<356 373> 545 54<392 409>
DStem: 152 233 247 206 89 0 192 0 502 386 607 396 399 0 501 0
Fore
445 401 m 0
 445 401 l 0
 461 409 496 436 511 452 c 1
 507 510 467 545 395 545 c 0
 287 545 203 482 181 401 c 0
 170 361 190 333 200 319 c 1
 203 319 l 1
 238 390 283 444 373 444 c 0
 413 444 433 427 445 401 c 0
502 386 m 1
 502 386 l 0
 482 375 459 361 444 356 c 1
 439 307 392 249 323 249 c 0
 298 249 281 257 270 266 c 1
 261 255 255 233 247 206 c 2
 192 0 l 1
 89 0 l 1
 152 233 l 2
 163 275 106 304 132 401 c 0
 166 525 283 599 407 599 c 0
 482 599 553 581 588 539 c 1
 602 554 628 601 633 627 c 1
 734 627 l 1
 708 561 648 498 614 468 c 1
 617 450 614 427 607 396 c 1
 501 0 l 1
 399 0 l 1
 502 386 l 1
330 293 m 0
 401 293 429 398 358 398 c 0
 287 398 260 293 330 293 c 0
EndSplineSet
EndChar
StartChar: uni0E29
Encoding: 201 3625 169
Width: 662
Flags: W
HStem: 0 45<110 456> 361 38<379 395> 392 49<228 242> 545 49<267 290>
DStem: 260 395 313 217 166 45 267 45
Fore
605 120 m 0xd0
 605 120 l 0
 596 74 547 0 456 0 c 2
 98 0 l 1
 111 45 l 1
 166 45 l 1
 260 395 l 1
 249 393 237 392 229 392 c 0xb0
 89 392 143 594 290 594 c 0
 424 594 387 492 384 479 c 2
 361 395 l 1
 379 401 384 399 395 399 c 0
 493 399 475 266 390 238 c 1
 461 215 556 296 568 361 c 1
 611 524 l 1
 680 587 l 1
 702 599 740 613 722 556 c 0
 722 554 613 149 605 120 c 0xd0
499 108 m 0
 535 243 l 0
 445 161 347 174 313 217 c 1
 313 217 275 75 267 45 c 1
 427 45 l 2
 455 45 487 65 499 108 c 0
355 263 m 0
 355 263 l 0
 421 263 447 361 381 361 c 0xd0
 315 361 289 263 355 263 c 0
240 441 m 0xb0
 310 441 338 545 267 545 c 0
 197 545 169 441 240 441 c 0xb0
EndSplineSet
EndChar
StartChar: uni0E2A
Encoding: 202 3626 170
Width: 577
Flags: W
HStem: 0 21G<387 488> 335 47<366 380>
DStem: 447 226 599 413 387 0 488 0
Fore
734 627 m 1
 734 627 l 0
 719 584 662 528 601 490 c 1
 605 478 610 452 599 413 c 1
 488 0 l 1
 387 0 l 1
 447 226 l 2
 462 283 425 335 366 335 c 0
 301 335 253 290 240 238 c 2
 226 187 l 1
 386 221 347 3 200 -5 c 0
 103 -8 92 74 104 120 c 2
 134 227 l 2
 160 324 255 372 292 381 c 1
 346 402 439 449 499 488 c 1
 459 576 280 548 183 430 c 1
 152 450 l 1
 281 614 481 634 571 544 c 1
 599 570 621 599 633 627 c 1
 734 627 l 1
478 326 m 0
 478 326 l 1
 478 326 498 402 501 415 c 0
 504 422 505 430 504 436 c 1
 472 419 418 396 378 382 c 1
 416 382 468 366 478 326 c 0
209 41 m 0
 280 41 307 146 237 146 c 0
 166 146 138 41 209 41 c 0
EndSplineSet
EndChar
StartChar: uni0E2B
Encoding: 203 3627 171
Width: 651
Flags: W
HStem: 0 21G<144 247 459 562> 393 48<218 232> 545 49<258 283>
DStem: 250 398 375 479 144 0 312 247 250 398 273 97 144 0 247 0 559 370 662 372 459 0 562 0
Fore
562 0 m 1
 459 0 l 1
 559 370 l 1
 562 384 562 392 559 398 c 1
 432 326 313 175 300 157 c 1
 286 134 278 114 273 97 c 2
 247 0 l 1
 144 0 l 1
 250 398 l 1
 241 395 230 393 220 393 c 0
 89 393 132 594 283 594 c 0
 415 594 378 492 375 479 c 2
 312 247 l 1
 395 338 495 409 530 429 c 1
 482 490 558 594 647 594 c 0
 760 594 737 459 657 418 c 1
 664 407 668 395 662 372 c 2
 562 0 l 1
230 441 m 0
 230 441 l 0
 301 441 329 545 258 545 c 0
 187 545 160 441 230 441 c 0
605 444 m 0
 676 444 705 548 634 548 c 0
 564 548 535 444 605 444 c 0
EndSplineSet
EndChar
StartChar: uni0E2C
Encoding: 204 3628 172
Width: 712
Flags: W
HStem: 0 21G<146 241 525 624> 392 49<220 238> 545 49<260 283> 594 45<684 699>
DStem: 482 404 528 558 525 0 567 249 519 558 482 404 332 249 241 0 645 455 753 482 590 253 624 0
Fore
925 644 m 1
 925 644 l 0
 894 542 786 492 753 482 c 1
 624 0 l 1
 525 0 l 1
 482 404 l 1
 241 0 l 1
 146 0 l 1
 252 395 l 1
 241 393 229 392 221 392 c 0
 84 392 135 594 283 594 c 0
 416 594 379 492 376 479 c 0
 375 478 315 253 315 253 c 2
 307 226 281 160 281 160 c 1
 287 160 l 1
 287 160 315 217 332 249 c 1
 519 558 l 1
 528 558 l 1
 567 249 l 1
 568 217 567 160 567 160 c 1
 573 160 l 1
 573 160 582 226 590 253 c 2
 645 455 l 1
 525 464 578 639 699 639 c 0
 754 639 783 607 770 545 c 1
 791 558 826 598 834 644 c 1
 925 644 l 1
662 499 m 0
 662 499 l 0
 728 499 754 594 688 594 c 0
 622 594 596 499 662 499 c 0
232 441 m 0
 303 441 330 545 260 545 c 0
 189 545 161 441 232 441 c 0
EndSplineSet
EndChar
StartChar: uni0E2D
Encoding: 205 3629 173
Width: 566
Flags: W
HStem: -8 21G<237 300>
DStem: 155 315 241 250 114 160 207 124
Fore
521 158 m 1
 521 158 l 0
 484 22 327 -8 273 -8 c 0
 201 -8 75 18 114 160 c 2
 155 315 l 2
 167 359 221 449 319 445 c 0
 468 441 386 215 241 250 c 1
 207 124 l 1
 178 11 375 8 407 124 c 1
 407 124 484 410 487 422 c 0
 525 568 295 587 167 430 c 1
 137 450 l 1
 329 691 641 607 588 413 c 1
 521 158 l 1
278 295 m 0
 349 295 378 399 307 399 c 0
 237 399 207 295 278 295 c 0
EndSplineSet
EndChar
StartChar: uni0E2E
Encoding: 206 3630 174
Width: 566
Flags: W
HStem: -8 21G<237 300>
Fore
659 602 m 1
 659 602 l 0
 637 564 613 533 587 508 c 1
 596 484 599 452 588 413 c 1
 521 158 l 1
 484 22 327 -8 273 -8 c 0
 201 -8 75 18 114 160 c 2
 135 241 l 2
 147 286 201 375 300 372 c 0
 447 367 362 147 221 180 c 1
 207 124 l 2
 178 11 375 8 407 124 c 1
 407 124 484 410 487 422 c 0
 492 445 l 1
 430 419 372 413 336 410 c 0
 220 401 157 419 166 464 c 0
 189 576 430 634 539 564 c 1
 548 576 556 590 562 602 c 1
 659 602 l 1
479 501 m 0
 479 501 l 0
 430 573 252 541 238 484 c 0
 233 467 263 450 347 455 c 0
 401 458 444 475 479 501 c 0
260 223 m 0
 330 223 358 327 287 327 c 0
 217 327 189 223 260 223 c 0
EndSplineSet
EndChar
StartChar: uni0E2F
Encoding: 207 3631 175
Width: 539
Flags: W
HStem: 449 21G<202.5 273.5> 553 45<264 280>
DStem: 450 432 598 594 330 -18 433 -18
Fore
433 -18 m 1
 330 -18 l 1
 450 432 l 1
 339 369 207 390 175 418 c 0
 106 478 180 598 280 598 c 0
 366 598 389 502 315 439 c 1
 441 439 492 525 510 594 c 1
 598 594 l 1
 433 -18 l 1
238 449 m 0
 309 449 336 553 266 553 c 0
 195 553 167 449 238 449 c 0
EndSplineSet
EndChar
StartChar: uni0E30
Encoding: 208 3632 176
Width: 460
Flags: W
HStem: -6 54<189 215> 152 45<163 181> 396 54<296 320> 456 21G<250 250> 554 45<274 289>
Fore
568 594 m 1
 568 594 l 0
 510 444 399 396 296 396 c 0
 174 396 154 456 164 499 c 0
 177 544 212 599 289 599 c 0
 352 599 372 558 359 508 c 0
 355 492 344 464 318 450 c 1
 422 452 465 521 481 594 c 1
 568 594 l 1
250 456 m 0
 250 456 l 0
 316 456 343 554 276 554 c 0
 210 554 184 456 250 456 c 0
459 192 m 1
 459 192 l 0
 402 41 292 -6 189 -6 c 0
 66 -6 45 54 57 97 c 0
 69 141 104 197 181 197 c 0
 244 197 264 155 250 106 c 0
 247 89 237 61 209 48 c 1
 315 49 358 118 372 192 c 1
 459 192 l 1
141 54 m 0
 207 54 235 152 169 152 c 0
 103 152 75 54 141 54 c 0
EndSplineSet
EndChar
StartChar: uni0E31
Encoding: 209 3633 177
Width: 0
Flags: W
HStem: 676 100<-106 -6> 880 49<-85 -72>
AnchorPoint: "AboveMark" 115.256 983.04 basemark 0
AnchorPoint: "AboveBase" 40.1641 629.76 mark 0
Fore
353 923 m 1
 353 923 l 0
 270 740 121 674 -6 676 c 0
 -124 676 -220 736 -201 823 c 0
 -189 882 -134 929 -74 929 c 0
 -11 929 22 885 9 826 c 0
 2 786 -28 753 -72 736 c 1
 48 700 197 746 252 923 c 1
 353 923 l 1
-106 776 m 0
 -35 776 -12 880 -83 880 c 0
 -154 880 -177 776 -106 776 c 0
EndSplineSet
EndChar
StartChar: uni0E32
Encoding: 210 3634 178
Width: 427
Flags: W
HStem: 0 21G<235 338>
DStem: 358 456 458 449 235 0 338 0
Fore
338 0 m 1
 235 0 l 1
 358 456 l 2
 384 554 241 564 151 479 c 1
 129 505 l 1
 253 628 508 636 458 449 c 1
 338 0 l 1
EndSplineSet
EndChar
StartChar: uni0E33
Encoding: 211 3635 179
Width: 427
Flags: W
HStem: 0 21G<235 338> 673 54<48 65> 831 57<89 106>
DStem: 358 456 458 449 235 0 338 0
Fore
48 673 m 0
 48 673 l 0
 -97 673 -38 888 106 888 c 0
 249 888 190 673 48 673 c 0
338 0 m 1
 235 0 l 1
 358 456 l 2
 384 554 241 564 151 479 c 1
 129 505 l 1
 253 628 508 636 458 449 c 1
 338 0 l 1
63 727 m 0
 134 727 161 831 91 831 c 0
 20 831 -8 727 63 727 c 0
EndSplineSet
MultipleSubs: 0 1 'ccmp' uni0E4D uni0E32
EndChar
StartChar: uni0E34
Encoding: 212 3636 180
Width: 0
Flags: W
AnchorPoint: "AboveMark" 66.1035 983.04 basemark 0
AnchorPoint: "AboveBase" 40.1641 629.76 mark 0
Fore
63 636 m 0
 63 636 l 0
 -104 716 -235 746 -401 713 c 1
 -278 977 131 952 63 636 c 0
18 708 m 1
 -2 840 -183 894 -306 768 c 1
 -203 780 -74 760 18 708 c 1
EndSplineSet
EndChar
StartChar: uni0E35
Encoding: 213 3637 181
Width: 0
Flags: W
AnchorPoint: "AboveMark" 66.1035 983.04 basemark 0
AnchorPoint: "AboveBase" 40.1641 629.76 mark 0
Fore
63 636 m 0
 63 636 l 0
 -104 716 -235 746 -401 713 c 1
 -323 883 -123 934 -11 862 c 1
 8 948 l 1
 108 948 l 5
 66 750 l 1
 72 717 72 679 63 636 c 0
18 708 m 1
 -2 840 -183 894 -306 768 c 1
 -203 780 -74 760 18 708 c 1
EndSplineSet
EndChar
StartChar: uni0E36
Encoding: 214 3638 182
Width: 0
Flags: W
HStem: 906 46<46 60>
AnchorPoint: "AboveMark" 66.1035 983.04 basemark 0
AnchorPoint: "AboveBase" 40.1641 629.76 mark 0
Fore
63 636 m 0
 63 636 l 0
 -104 716 -235 746 -401 713 c 1
 -330 865 -167 920 -52 882 c 1
 -41 911 -5 952 60 952 c 4
 178 952 157 806 60 770 c 1
 72 733 74 688 63 636 c 0
18 708 m 0
 18 708 l 0
 -2 840 -183 894 -306 768 c 1
 -203 780 -74 760 18 708 c 0
29 808 m 0
 95 808 115 906 49 906 c 0
 -17 906 -37 808 29 808 c 0
EndSplineSet
EndChar
StartChar: uni0E37
Encoding: 215 3639 183
Width: 0
Flags: W
DStem: 28 949 104 949 6 849 65 754
AnchorPoint: "AboveMark" 4.66309 983.04 basemark 0
AnchorPoint: "AboveBase" 40.1641 629.76 mark 0
Fore
63 636 m 0
 63 636 l 0
 -104 716 -235 746 -401 713 c 1
 -346 834 -226 895 -123 894 c 1
 -111 949 l 5
 -38 949 l 1
 -51 879 l 1
 -28 872 -11 860 6 849 c 1
 28 949 l 1
 104 949 l 1
 65 754 l 1
 72 720 72 680 63 636 c 0
18 708 m 1
 -2 840 -183 894 -306 768 c 1
 -203 780 -74 760 18 708 c 1
EndSplineSet
EndChar
StartChar: uni0E38
Encoding: 216 3640 184
Width: 0
Flags: W
HStem: -227 41<-266 -250>
AnchorPoint: "BelowBase" -104.796 -52.2236 mark 0
Fore
-161 -307 m 1
 -258 -307 l 1
 -240 -226 l 1
 -246 -227 -257 -227 -266 -227 c 0
 -379 -226 -347 -61 -229 -52 c 5
 -158 -49 -117 -83 -127 -149 c 1
 -161 -307 l 1
-200 -141 m 0
 -194 -117 -209 -97 -232 -97 c 0
 -263 -97 -283 -115 -289 -141 c 0
 -293 -164 -278 -186 -252 -186 c 0
 -224 -186 -204 -164 -200 -141 c 0
EndSplineSet
EndChar
StartChar: uni0E39
Encoding: 217 3641 185
Width: 0
Flags: W
HStem: -319 39<-277 -266> -214 37<-380 -366> -88 37<-359 -343>
DStem: -204 -57 -106 -57 -246 -257 -138 -212
AnchorPoint: "BelowBase" -104.796 -52.2236 mark 0
Fore
-138 -212 m 1
 -138 -212 l 0
 -151 -270 -197 -319 -266 -319 c 0
 -335 -319 -372 -281 -359 -226 c 2
 -356 -210 l 1
 -361 -212 -369 -214 -378 -214 c 0
 -490 -212 -456 -51 -343 -51 c 0
 -273 -51 -255 -92 -269 -151 c 1
 -290 -257 l 1
 -295 -269 -287 -280 -275 -280 c 0
 -261 -280 -250 -272 -246 -257 c 2
 -204 -57 l 1
 -106 -57 l 5
 -138 -212 l 1
-318 -132 m 0
 -313 -108 -329 -88 -352 -88 c 0
 -381 -88 -402 -106 -407 -132 c 0
 -412 -155 -396 -177 -370 -177 c 0
 -343 -177 -323 -155 -318 -132 c 0
EndSplineSet
EndChar
StartChar: uni0E3A
Encoding: 218 3642 186
Width: 0
Flags: W
AnchorPoint: "BelowBase" -102.837 -43.0078 mark 0
Fore
-178 -174 m 0
 -270 -174 -243 -43 -151 -43 c 0
 -61 -43 -89 -174 -178 -174 c 0
EndSplineSet
EndChar
StartChar: zerospace
Encoding: 220 8203 187
Width: 814
Flags: W
HStem: 0 61<114 622>
DStem: 114 61 157 -49 61 -187 129 -187 670 -54 760 61 642 -187 710 -187
Fore
710 -187 m 1
 642 -187 l 1
 670 -54 l 1
 676 -17 659 0 617 0 c 2
 220 0 l 2
 184 0 164 -15 157 -49 c 1
 129 -187 l 1
 61 -187 l 1
 114 61 l 1
 760 61 l 1
 710 -187 l 1
EndSplineSet
EndChar
StartChar: dottedcircle
Encoding: 221 9676 188
Width: 649
Flags: W
HStem: -14 77<341 358> 23 77<197 214> 34 77<484 499> 118 77<114 131> 131 75<588 604> 263 76<651 668> 270 77<109 126> 399 77<645 662> 406 76<183 200> 493 77<567 584> 501 77<307 324> 535 76<456 473>
Fore
184 462 m 6
309 554 m 6
197 80 m 6
115 172 m 6
482 89 m 6
588 184 m 6
645 456 m 6
568 547 m 6
653 318 m 6
111 324 m 6
458 591 m 6
200 482 m 4,11,12
 223 482 233 465 230 445 c 4,13,14
 226 424 206 406 183 406 c 4,15,16
 163 406 151 424 155 445 c 4,17,18
 158 465 180 482 200 482 c 4,11,12
192 445 m 4,19,-1
 192 445 l 4,20,-1
 192 445 l 4,21,-1
 192 445 l 4,22,-1
 192 445 l 4,19,-1
324 578 m 4,23,24
 346 578 359 561 353 538 c 4,25,26
 350 518 329 501 307 501 c 4,27,28
 287 501 273 518 276 538 c 4,29,30
 283 561 304 578 324 578 c 4,23,24
315 538 m 4,31,-1
 315 538 l 4,32,-1
 315 538 l 4,33,-1
 315 538 l 4,34,-1
 315 538 l 4,31,-1
214 100 m 4,35,36
 233 100 246 83 243 63 c 4,37,38
 238 41 217 23 197 23 c 4,39,40
 174 23 161 41 166 63 c 4,41,42
 169 83 190 100 214 100 c 4,35,36
206 63 m 4,43,-1
 206 63 l 4,44,-1
 206 63 l 4,45,-1
 206 63 l 4,46,-1
 206 63 l 4,43,-1
131 195 m 4,47,48
 154 195 166 177 161 155 c 4,49,50
 158 135 137 118 114 118 c 4,51,52
 94 118 81 135 84 155 c 4,53,54
 89 177 111 195 131 195 c 4,47,48
121 155 m 4,55,-1
 121 155 l 4,56,-1
 121 155 l 4,57,-1
 121 155 l 4,58,-1
 121 155 l 4,55,-1
499 111 m 4,59,60
 521 111 535 94 530 72 c 4,61,62
 525 52 505 34 484 34 c 4,63,64
 462 34 449 52 453 72 c 4,65,66
 458 94 478 111 499 111 c 4,59,60
492 72 m 4,67,-1
 492 72 l 4,68,-1
 492 72 l 4,69,-1
 492 72 l 4,70,-1
 492 72 l 4,67,-1
604 206 m 4,71,72
 624 206 637 189 633 167 c 4,73,74
 628 146 608 131 588 131 c 4,75,76
 565 131 553 146 558 167 c 4,77,78
 562 189 581 206 604 206 c 4,71,72
596 167 m 4,79,-1
 596 167 l 4,80,-1
 596 167 l 4,81,-1
 596 167 l 4,82,-1
 596 167 l 4,79,-1
662 476 m 4,83,84
 682 476 696 459 691 439 c 4,85,86
 687 418 665 399 645 399 c 4,87,88
 622 399 611 418 616 439 c 4,89,90
 621 459 639 476 662 476 c 4,83,84
654 439 m 4,91,-1
 654 439 l 4,92,-1
 654 439 l 4,93,-1
 654 439 l 4,94,-1
 654 439 l 4,91,-1
584 570 m 4,95,96
 607 570 619 551 614 530 c 4,97,98
 611 510 590 493 567 493 c 4,99,100
 547 493 535 510 538 530 c 4,101,102
 542 551 564 570 584 570 c 4,95,96
574 530 m 4,103,-1
 574 530 l 4,104,-1
 574 530 l 4,105,-1
 574 530 l 4,106,-1
 574 530 l 4,103,-1
668 339 m 4,107,108
 690 339 703 321 700 301 c 4,109,110
 696 280 673 263 651 263 c 4,111,112
 631 263 619 280 624 301 c 4,113,114
 627 321 648 339 668 339 c 4,107,108
660 301 m 4,115,-1
 660 301 l 4,116,-1
 660 301 l 4,117,-1
 660 301 l 4,118,-1
 660 301 l 4,115,-1
126 347 m 4,119,120
 147 347 160 329 157 307 c 4,121,122
 152 287 131 270 109 270 c 4,123,124
 89 270 75 287 80 307 c 4,125,126
 83 329 106 347 126 347 c 4,119,120
118 307 m 4,127,-1
 118 307 l 4,128,-1
 118 307 l 4,129,-1
 118 307 l 4,130,-1
 118 307 l 4,127,-1
358 63 m 4,131,132
 379 63 392 46 387 23 c 4,133,134
 382 3 362 -14 341 -14 c 4,135,136
 321 -14 306 3 310 23 c 4,137,138
 315 46 338 63 358 63 c 4,131,132
349 23 m 4,139,-1
 349 23 l 4,140,-1
 349 23 l 4,141,-1
 349 23 l 4,142,-1
 349 23 l 4,139,-1
473 611 m 4,143,144
 495 611 507 594 502 574 c 4,145,146
 498 551 478 535 456 535 c 4,147,148
 435 535 421 551 425 574 c 4,149,150
 430 594 452 611 473 611 c 4,143,144
464 574 m 4,151,-1
 464 574 l 4,152,-1
 464 574 l 4,153,-1
 464 574 l 4,154,-1
 464 574 l 4,151,-1
EndSplineSet
EndChar
StartChar: uni0E3F
Encoding: 223 3647 189
Width: 752
Flags: W
HStem: -11 43<48 76.4589> 347 65<361 432> 667 167<564 629.813> 694 40<224 244>
DStem: 315 637 424 650 167 88 361 412 315 637 344 347 167 88 276 100 336 -11 430 -9 309 -118 399 -118 432 347 522 333 352 51 449 55 518 673 611 667 449 412 544 415 564 834 654 834 536 736 630 731
Fore
742 200 m 0xe0
 742 200 l 0
 703 58 594 -8 430 -9 c 1
 399 -118 l 1
 309 -118 l 1
 336 -11 l 1
 35 -9 l 1
 48 32 l 1
 138 32 160 58 167 88 c 2
 315 637 l 2
 323 665 315 693 224 694 c 1
 235 734 l 1xd0
 275 734 484 736 536 736 c 1
 564 834 l 1
 654 834 l 1
 630 731 l 1
 768 731 834 677 797 541 c 0
 773 445 713 399 636 381 c 1
 713 367 771 312 742 200 c 0xe0
449 412 m 1
 518 673 l 0
 462 676 432 676 424 650 c 1
 361 412 l 1
 449 412 l 1
685 536 m 0
 685 536 l 0
 708 627 677 668 611 667 c 1xe0
 544 415 l 1
 631 418 668 478 685 536 c 0
352 51 m 0
 432 347 l 0
 413 347 361 347 344 347 c 1
 276 100 l 1
 269 68 261 40 352 51 c 0
617 203 m 0
 637 278 604 330 522 333 c 1
 449 55 l 1
 544 65 594 114 617 203 c 0
EndSplineSet
EndChar
StartChar: uni0E40
Encoding: 224 3648 190
Width: 337
Flags: W
HStem: -8 46<198 218> 143 43<237 256>
Fore
252 187 m 0
 252 187 l 0
 390 187 336 -8 198 -8 c 0
 123 -8 100 57 117 118 c 2
 226 524 l 1
 296 587 l 1
 315 601 356 613 338 556 c 0
 338 554 255 255 237 186 c 1
 240 186 249 187 252 187 c 0
218 38 m 0
 289 38 316 143 246 143 c 0
 175 143 147 38 218 38 c 0
EndSplineSet
EndChar
StartChar: uni0E41
Encoding: 225 3649 191
Width: 609
Flags: W
HStem: -8 45<198 215 468 485> 141 45<237 256 507 524>
Fore
522 187 m 0
 522 187 l 0
 660 187 607 -8 468 -8 c 0
 393 -8 370 57 387 118 c 2
 496 524 l 1
 567 587 l 1
 585 601 627 613 608 556 c 0
 608 554 525 255 507 186 c 1
 510 186 519 187 522 187 c 0
252 187 m 0
 252 187 l 0
 390 187 336 -8 198 -8 c 0
 123 -8 100 57 117 118 c 2
 226 524 l 1
 296 587 l 1
 315 601 356 613 338 556 c 0
 338 554 255 255 237 186 c 1
 240 186 249 187 252 187 c 0
485 37 m 0
 485 37 l 0
 556 37 585 141 515 141 c 0
 444 141 415 37 485 37 c 0
215 37 m 0
 286 37 315 141 244 141 c 0
 174 141 144 37 215 37 c 0
EndSplineSet
EndChar
StartChar: uni0E42
Encoding: 226 3650 192
Width: 339
Flags: W
HStem: -8 45<235 252> 141 46<273 293> 897 74<309 346>
DStem: 157 831 230 854 301 742 395 750 310 691 410 690 154 118 273 186
Fore
588 905 m 0
 588 905 l 0
 541 828 488 834 452 848 c 0
 398 868 341 897 309 897 c 0
 286 897 270 897 230 854 c 1
 395 750 l 2
 418 734 418 717 410 690 c 2
 410 690 292 255 273 186 c 1
 280 187 286 187 289 187 c 0
 427 187 373 -8 235 -8 c 0
 160 -8 137 57 154 118 c 2
 310 691 l 2
 318 720 310 737 301 742 c 2
 157 831 l 1
 212 906 272 971 346 971 c 0
 401 971 513 880 559 925 c 0
 584 948 610 945 588 905 c 0
252 37 m 0
 323 37 352 141 281 141 c 0
 210 141 181 37 252 37 c 0
EndSplineSet
EndChar
StartChar: uni0E43
Encoding: 227 3651 193
Width: 362
Flags: W
HStem: -8 45<255 272> 141 45<293 311> 671 46<218 233> 794 48<255 268> 912 59<318 347>
DStem: 370 842 467 823 174 118 293 186
Fore
309 187 m 0
 309 187 l 0
 447 187 393 -8 255 -8 c 0
 180 -8 157 57 174 118 c 2
 370 842 l 1
 381 885 352 912 318 912 c 0
 276 912 229 894 203 817 c 1
 226 839 260 842 266 842 c 0
 384 842 338 671 218 671 c 0
 135 671 135 765 157 829 c 0
 184 908 253 971 347 971 c 0
 449 971 488 903 467 823 c 2
 293 186 l 1
 296 186 306 187 309 187 c 0
258 794 m 0
 258 794 l 0
 232 794 212 777 206 756 c 0
 201 739 207 717 233 717 c 0
 287 717 309 794 258 794 c 0
272 37 m 0
 343 37 372 141 301 141 c 0
 230 141 201 37 272 37 c 0
EndSplineSet
EndChar
StartChar: uni0E44
Encoding: 228 3652 194
Width: 388
Flags: W
HStem: -8 45<283 300> 141 43<321 336> 662 41<232 249> 925 46<409 439>
DStem: 207 909 284 920 166 754 232 723 313 868 382 902 275 723 343 750 419 902 508 871 203 118 321 184
Fore
336 187 m 0
 336 187 l 0
 475 187 421 -8 283 -8 c 0
 207 -8 186 57 203 118 c 2
 419 902 l 1
 424 915 419 925 409 925 c 0
 395 925 386 912 382 902 c 2
 343 750 l 1
 329 702 293 662 232 662 c 0
 174 660 151 702 166 754 c 1
 207 909 l 1
 209 917 210 926 203 935 c 0
 194 948 189 951 178 963 c 1
 163 989 194 1012 218 995 c 1
 270 965 l 2
 290 952 290 940 284 920 c 1
 232 723 l 1
 230 714 238 703 249 703 c 0
 258 703 272 713 275 723 c 2
 313 868 l 1
 330 926 370 971 439 971 c 0
 508 971 521 920 508 871 c 1
 508 871 339 253 321 184 c 1
 324 184 330 187 336 187 c 0
300 37 m 0
 370 37 399 141 329 141 c 0
 258 141 229 37 300 37 c 0
EndSplineSet
EndChar
StartChar: uni0E45
Encoding: 229 3653 195
Width: 304
Flags: W
DStem: 233 456 333 449 54 -214 166 -180
Fore
166 -180 m 1
 92 -244 l 1
 71 -257 35 -270 54 -214 c 0
 60 -192 233 456 233 456 c 2
 260 554 117 564 26 479 c 1
 5 505 l 1
 129 628 384 636 333 449 c 1
 166 -180 l 1
EndSplineSet
EndChar
StartChar: uni0E46
Encoding: 230 3654 196
Width: 703
Flags: W
HStem: 255 37<418 434> 390 37<453 464>
DStem: 475 536 495 599 528 459 547 525 634 485 725 455 447 -214 556 -180
Fore
556 -180 m 1
 485 -244 l 0
 464 -257 433 -264 447 -214 c 0
 453 -192 634 485 634 485 c 1
 639 505 627 521 611 525 c 1
 528 459 l 1
 475 536 l 1
 438 515 402 476 390 395 c 1
 413 421 445 427 464 427 c 0
 584 424 536 255 418 255 c 0
 327 255 329 346 349 427 c 0
 361 478 404 559 495 599 c 1
 547 525 l 1
 636 599 l 1
 731 588 743 521 725 455 c 1
 556 -180 l 1
429 292 m 0
 495 292 521 390 455 390 c 0
 389 390 362 292 429 292 c 0
EndSplineSet
EndChar
StartChar: uni0E47
Encoding: 231 3655 197
Width: 0
Flags: W
HStem: 656 49<-34 -21>
AnchorPoint: "AboveMark" -154.908 629.76 mark 0
AnchorPoint: "AboveBase" 4.83594 629.76 mark 0
Fore
147 1025 m 1
 147 1025 l 0
 120 902 26 885 -38 888 c 0
 -75 889 -112 892 -152 895 c 0
 -214 900 -273 836 -249 750 c 1
 -215 817 -137 793 -109 754 c 1
 -109 754 -100 742 -98 757 c 0
 -80 871 106 871 80 753 c 4
 66 687 14 656 -32 656 c 0
 -140 656 -143 736 -189 736 c 0
 -227 736 -243 680 -224 656 c 1
 -286 657 l 1
 -395 779 -296 966 -143 948 c 0
 -109 943 -69 940 -37 938 c 0
 -20 937 41 935 51 1025 c 1
 147 1025 l 1
-23 705 m 0
 37 705 55 796 -5 796 c 0
 -65 796 -83 705 -23 705 c 0
EndSplineSet
EndChar
StartChar: uni0E48
Encoding: 232 3656 198
Width: 0
Flags: W
AnchorPoint: "AboveMark" 66.1035 983.04 mark 0
Fore
170 1227 m 5
 112 1021 l 1
 35 1021 l 1
 66 1227 l 1
 170 1227 l 5
EndSplineSet
Substitution: 0 65534 'loww' uni0E48.low
Substitution: 0 65534 'amni' uni0E4D
EndChar
StartChar: uni0E49
Encoding: 233 3657 199
Width: 0
Flags: W
HStem: 1187 42<63 75>
AnchorPoint: "AboveMark" 162.871 983.04 mark 0
Fore
413 1229 m 1
 413 1229 l 0
 323 957 12 991 -32 994 c 1
 -26 1029 l 1
 15 1034 35 1052 48 1071 c 1
 49 1074 l 1
 49 1074 38 1071 25 1072 c 0
 -65 1086 -32 1229 75 1229 c 0
 161 1229 144 1152 144 1150 c 0
 129 1077 83 1043 83 1043 c 1
 83 1040 l 1
 83 1040 269 1035 324 1229 c 1
 413 1229 l 1
48 1109 m 0
 103 1109 120 1187 65 1187 c 0
 12 1187 -5 1109 48 1109 c 0
EndSplineSet
Substitution: 0 65534 'loww' uni0E49.low
Substitution: 0 65534 'amni' uni0E4D
EndChar
StartChar: uni0E4A
Encoding: 234 3658 200
Width: 0
Flags: W
HStem: 986 35<-38 -27> 1089 35<-16 -6>
AnchorPoint: "AboveMark" 33.8477 983.04 mark 0
Fore
327 1226 m 1
 327 1226 l 0
 309 1098 204 986 65 986 c 5
 72 1021 l 1
 151 1058 154 1160 115 1175 c 1
 51 1137 l 1
 -3 1178 l 1
 -35 1172 -58 1130 -60 1107 c 1
 -57 1104 l 1
 -57 1104 -40 1124 -6 1124 c 0
 34 1124 57 1098 48 1057 c 0
 38 1014 5 986 -37 986 c 0
 -101 986 -127 1043 -112 1115 c 0
 -103 1160 -49 1227 12 1232 c 1
 61 1183 l 1
 129 1232 l 1
 230 1201 206 1103 163 1055 c 1
 166 1054 l 1
 212 1080 255 1141 253 1226 c 1
 327 1226 l 1
-29 1021 m 0
 17 1021 32 1089 -14 1089 c 0
 -58 1089 -74 1021 -29 1021 c 0
EndSplineSet
Substitution: 0 65534 'loww' uni0E4A.low
Substitution: 0 65534 'amni' uni0E4D
EndChar
StartChar: uni0E4B
Encoding: 235 3659 201
Width: 0
Flags: W
HStem: 1071 75<-31 46 140 217>
DStem: 46 1071 123 1071 31 992 104 992 63 1147 140 1147 -31 1146 233 1146 78 1226 158 1226 63 1147 140 1147
AnchorPoint: "AboveMark" 66.1035 983.04 mark 0
Fore
217 1072 m 5
 123 1071 l 1
 104 992 l 1
 31 992 l 1
 46 1071 l 1
 -48 1072 l 1
 -31 1146 l 1
 63 1147 l 1
 78 1226 l 1
 158 1226 l 1
 140 1147 l 1
 233 1146 l 1
 217 1072 l 5
EndSplineSet
MinimumDistance: x6,11 x5,0 
Substitution: 0 65534 'loww' uni0E4B.low
Substitution: 0 65534 'amni' uni0E4D
EndChar
StartChar: uni0E4C
Encoding: 236 3660 202
Width: 0
Flags: W
HStem: 895 42<29 42>
AnchorPoint: "AboveMark" 29.6191 890.88 mark 0
Fore
286 1170 m 1
 286 1170 l 0
 240 1074 124 1055 98 1049 c 1
 98 1046 l 1
 123 1044 143 1018 134 977 c 0
 124 931 81 895 31 895 c 0
 -25 895 -49 937 -40 983 c 0
 -31 1023 9 1075 103 1092 c 0
 151 1101 190 1135 212 1192 c 1
 286 1170 l 1
40 937 m 0
 92 937 109 1020 57 1020 c 0
 0 1020 -17 937 40 937 c 0
EndSplineSet
Substitution: 0 65534 'loww' uni0E4C.low
EndChar
StartChar: uni0E4D
Encoding: 237 3661 203
Width: 0
Flags: W
HStem: 673 54<11 25> 831 57<43 57>
AnchorPoint: "AboveMark" 1.76367 629.76 mark 0
AnchorPoint: "AboveMark" 76.8555 983.04 basemark 0
AnchorPoint: "AboveBase" 72.4199 629.76 mark 0
Fore
11 673 m 4
 11 673 l 0
 -134 673 -88 888 57 888 c 0
 200 888 154 673 11 673 c 4
23 727 m 0
 94 727 115 831 45 831 c 0
 -26 831 -48 727 23 727 c 0
EndSplineSet
Substitution: 0 65534 'G006' uni0E4B
Substitution: 0 65534 'G005' uni0E4A
Substitution: 0 65534 'G004' uni0E49
Substitution: 0 65534 'G003' uni0E48
EndChar
StartChar: uni0E4E
Encoding: 238 3662 204
Width: 0
Flags: W
HStem: 662 55<-31 11>
AnchorPoint: "AboveBase" 40.1641 629.76 mark 0
Fore
184 909 m 1
 104 902 81 863 98 823 c 1
 43 760 l 1
 2 793 -28 773 -32 751 c 0
 -37 730 -20 717 11 717 c 1
 -31 662 l 1
 -83 662 -112 703 -101 750 c 0
 -84 833 0 849 25 828 c 1
 28 831 l 1
 18 874 54 962 186 962 c 1
 184 909 l 1
EndSplineSet
EndChar
StartChar: uni0E4F
Encoding: 239 3663 205
Width: 737
Flags: W
HStem: -14 79<364 388> 152 77<410 430> 364 77<467 487> 527 80<508 531>
Fore
759 296 m 0
 759 296 l 0
 713 126 533 -14 366 -14 c 0
 194 -14 91 126 137 296 c 0
 183 468 359 607 531 607 c 0
 699 607 805 468 759 296 c 0
679 296 m 0
 679 296 l 0
 713 424 637 527 510 527 c 0
 379 527 250 424 217 296 c 0
 181 169 255 65 386 65 c 0
 513 65 644 169 679 296 c 0
591 296 m 0
 591 296 l 0
 570 217 487 152 410 152 c 0
 327 152 280 217 301 296 c 0
 323 379 404 441 487 441 c 0
 564 441 613 379 591 296 c 0
516 296 m 0
 525 333 504 364 467 364 c 0
 430 364 390 333 381 296 c 0
 370 260 393 229 430 229 c 0
 467 229 505 260 516 296 c 0
EndSplineSet
EndChar
StartChar: uni0E50
Encoding: 240 3664 206
Width: 645
Flags: W
HStem: -9 55<317 337> 430 60<429 455>
Fore
667 237 m 0
 667 237 l 0
 628 92 472 -9 319 -9 c 0
 163 -9 63 89 103 238 c 0
 141 384 296 490 453 490 c 0
 605 490 707 384 667 237 c 0
562 238 m 0
 588 336 541 430 438 430 c 0
 330 430 235 341 207 237 c 0
 181 137 233 46 335 46 c 0
 436 46 536 144 562 238 c 0
EndSplineSet
EndChar
StartChar: uni0E51
Encoding: 241 3665 207
Width: 645
Flags: W
HStem: 98 53<327 344> 243 49<368 384> 427 57<424 451>
Fore
665 232 m 0
 665 232 l 0
 630 100 519 -8 389 -37 c 1
 335 -14 l 1
 504 32 544 149 567 233 c 0
 601 362 533 427 433 427 c 0
 323 427 232 346 201 232 c 0
 152 46 318 2 375 111 c 1
 355 100 341 98 327 98 c 0
 269 98 246 144 260 194 c 0
 273 249 324 292 384 292 c 0
 459 292 481 232 464 164 c 0
 399 -72 20 -75 101 232 c 0
 144 392 301 484 449 484 c 0
 594 484 708 390 665 232 c 0
344 151 m 0
 406 151 430 243 369 243 c 0
 307 243 283 151 344 151 c 0
EndSplineSet
EndChar
StartChar: uni0E52
Encoding: 242 3666 208
Width: 645
Flags: W
HStem: -2 48<195 505> 86 43<325 338> 221 46<359 375>
DStem: 187 561 280 561 72 134 160 117
Fore
687 252 m 0
 687 252 l 0
 673 201 662 154 644 112 c 0
 616 49 588 -2 481 -2 c 2
 194 -2 l 2
 86 -2 52 57 72 134 c 1
 187 561 l 1
 210 648 204 667 204 667 c 1
 203 725 246 717 261 703 c 1
 286 660 l 1
 286 660 300 637 280 561 c 1
 160 117 l 2
 149 75 172 46 206 46 c 2
 495 46 l 2
 528 46 542 71 551 91 c 0
 590 187 659 412 599 425 c 0
 571 432 525 366 505 321 c 0
 488 283 441 280 445 323 c 0
 450 362 449 430 412 425 c 0
 373 421 341 350 324 255 c 1
 336 263 359 267 375 267 c 0
 496 267 445 86 326 86 c 0
 261 86 238 132 241 192 c 0
 255 369 339 493 425 490 c 0
 481 488 493 438 495 401 c 0
 495 396 493 390 493 390 c 1
 496 390 l 1
 496 390 498 396 501 401 c 0
 524 438 568 490 624 490 c 0
 716 490 722 384 687 252 c 0
336 129 m 0
 398 129 422 221 361 221 c 0
 300 221 275 129 336 129 c 0
EndSplineSet
EndChar
StartChar: uni0E53
Encoding: 243 3667 209
Width: 645
Flags: W
HStem: -8 49<192 206> 134 49<229 243> 424 64<324 341>
Fore
573 8 m 0
 519 -5 l 0
 499 -6 468 -12 490 32 c 0
 619 284 624 435 542 424 c 0
 493 418 445 316 427 244 c 0
 422 229 418 218 412 194 c 0
 395 138 327 140 344 194 c 0
 350 217 355 229 358 243 c 0
 384 338 370 424 326 424 c 0
 283 424 207 356 189 167 c 1
 200 174 221 183 243 183 c 0
 300 183 326 138 312 88 c 0
 298 35 249 -8 192 -8 c 0
 131 -8 95 35 91 92 c 0
 77 235 152 488 341 488 c 0
 406 488 425 432 432 402 c 1
 475 467 522 488 571 488 c 0
 740 488 713 263 573 8 c 0
204 41 m 0
 266 41 290 134 229 134 c 0
 167 134 143 41 204 41 c 0
EndSplineSet
EndChar
StartChar: uni0E54
Encoding: 244 3668 210
Width: 645
Flags: W
HStem: 293 20G<421 482.5> 421 66<485 503> 424 66<398 422>
Fore
799 659 m 0xc0
 799 659 l 0
 754 521 639 421 485 421 c 0xc0
 467 421 436 424 418 424 c 0
 306 424 237 332 214 252 c 0
 186 149 218 37 344 46 c 0
 359 48 386 49 399 49 c 1
 344 89 293 166 315 244 c 0
 336 324 410 367 472 362 c 0
 527 358 548 318 533 260 c 0
 516 195 439 154 390 172 c 1
 406 127 484 57 576 65 c 0
 582 65 602 68 608 68 c 0
 647 68 614 31 614 31 c 1
 587 -2 l 1
 587 -2 492 0 404 3 c 0
 347 5 330 0 287 -3 c 0
 166 -9 68 80 114 252 c 0
 157 413 295 490 422 490 c 0xa0
 461 490 470 487 498 487 c 0
 588 487 670 551 713 713 c 1
 786 688 l 2
 799 685 806 679 799 659 c 0xc0
427 221 m 0
 488 221 513 313 452 313 c 0
 390 313 366 221 427 221 c 0
EndSplineSet
EndChar
StartChar: uni0E55
Encoding: 245 3669 211
Width: 645
Flags: W
HStem: 293 20G<421 482.5> 421 49<468 493> 562 46<492 508>
Fore
799 660 m 0
 799 660 l 0
 754 519 633 422 493 421 c 0
 473 421 436 424 418 424 c 0
 306 424 237 333 214 253 c 0
 186 151 232 35 358 45 c 0
 373 46 384 49 399 49 c 1
 330 91 293 167 315 246 c 0
 336 326 410 369 473 364 c 0
 528 359 550 319 535 261 c 0
 516 197 439 154 390 174 c 1
 407 129 484 58 578 66 c 0
 584 66 602 69 608 69 c 0
 647 69 616 32 616 32 c 1
 587 -2 l 1
 587 -2 493 0 406 3 c 0
 364 5 330 0 287 -3 c 0
 166 -9 68 81 114 253 c 0
 155 407 278 476 381 488 c 1
 381 498 382 505 384 511 c 0
 399 570 452 608 508 608 c 0
 567 608 594 568 579 511 c 0
 579 510 579 508 578 507 c 0
 622 530 684 590 713 714 c 1
 786 690 l 2
 799 687 808 680 799 660 c 0
470 470 m 0
 470 470 l 0
 531 470 556 562 495 562 c 0
 435 562 410 470 470 470 c 0
427 221 m 0
 488 221 513 313 452 313 c 0
 390 313 366 221 427 221 c 0
EndSplineSet
EndChar
StartChar: uni0E56
Encoding: 246 3670 212
Width: 645
Flags: W
HStem: -9 54<305 338> 103 51<221 235> 246 52<256 272> 429 64<412 440>
Fore
657 238 m 0
 657 238 l 0
 619 97 496 -9 307 -9 c 0
 2 -9 98 298 272 298 c 0
 330 298 356 253 343 198 c 0
 329 149 283 103 221 103 c 0
 215 103 209 104 204 104 c 1
 221 75 252 45 323 45 c 0
 429 45 528 132 558 238 c 0
 587 352 522 429 421 429 c 0
 379 429 327 424 280 399 c 0
 261 390 215 396 233 449 c 1
 263 556 250 614 227 677 c 0
 223 688 227 710 252 710 c 2
 335 710 l 1
 344 679 353 584 321 478 c 1
 355 488 401 493 438 493 c 0
 601 493 699 396 657 238 c 0
233 154 m 0
 295 154 319 246 258 246 c 0
 197 246 172 154 233 154 c 0
EndSplineSet
EndChar
StartChar: uni0E57
Encoding: 247 3671 213
Width: 645
Flags: W
HStem: -6 47<173 186> 134 50<207 224>
Fore
780 682 m 0
 780 682 l 0
 799 436 634 41 461 -5 c 1
 461 -5 378 -18 401 31 c 2
 401 31 438 106 459 154 c 0
 548 353 525 424 488 424 c 0
 450 424 409 367 395 332 c 0
 387 316 381 296 373 273 c 0
 361 238 310 237 316 273 c 0
 323 296 324 318 327 333 c 0
 332 372 318 424 286 424 c 0
 255 424 184 372 166 164 c 1
 181 180 201 184 224 184 c 0
 280 184 307 141 293 91 c 0
 280 38 230 -6 174 -6 c 0
 101 -6 78 45 77 103 c 0
 74 296 157 482 304 488 c 0
 343 490 376 455 381 406 c 1
 412 455 467 490 505 488 c 0
 639 482 622 275 479 58 c 1
 495 61 515 84 524 97 c 0
 634 240 708 464 677 648 c 1
 731 700 l 2
 754 722 777 737 780 682 c 0
184 41 m 0
 246 41 270 134 209 134 c 0
 147 134 123 41 184 41 c 0
EndSplineSet
EndChar
StartChar: uni0E58
Encoding: 248 3672 214
Width: 645
Flags: W
HStem: -9 215<452 554> 298 52<577 593> 416 66<493 509.531>
Fore
785 651 m 0
 785 651 l 0
 739 518 616 416 493 416 c 0
 464 416 439 418 415 418 c 0
 296 418 223 336 198 246 c 0
 180 175 180 117 212 83 c 1
 230 120 281 210 347 235 c 1
 399 227 l 1
 346 31 508 20 558 157 c 1
 478 143 452 201 465 250 c 0
 482 313 536 350 593 350 c 0
 673 350 684 296 673 246 c 0
 639 66 530 -9 452 -9 c 0
 398 -9 304 -2 313 132 c 1
 289 101 260 35 243 -11 c 1
 164 -12 49 66 97 247 c 0
 141 409 280 487 406 487 c 0
 435 487 470 482 493 482 c 0
 574 482 660 554 697 708 c 1
 773 684 l 2
 785 680 793 671 785 651 c 0
554 206 m 0
 616 206 641 298 579 298 c 0
 518 298 493 206 554 206 c 0
EndSplineSet
EndChar
StartChar: uni0E59
Encoding: 249 3673 215
Width: 645
Flags: W
HStem: -6 46<238 252> 132 49<275 290> 341 80<601 617>
Fore
822 656 m 0
 822 656 l 0
 779 447 696 341 601 341 c 0
 531 341 541 416 502 418 c 0
 484 419 475 390 473 373 c 1
 475 362 485 338 488 330 c 0
 531 200 573 0 573 0 c 1
 496 0 l 2
 472 0 464 14 461 29 c 1
 461 29 425 180 396 275 c 0
 362 384 324 444 260 407 c 0
 198 373 181 230 218 154 c 1
 232 164 257 181 290 181 c 0
 346 181 372 140 358 86 c 0
 344 35 292 -6 238 -6 c 0
 195 -6 158 12 135 57 c 0
 68 177 95 379 227 458 c 0
 260 476 359 510 429 433 c 1
 444 461 482 482 515 482 c 0
 590 484 573 421 617 421 c 0
 664 421 703 515 727 708 c 1
 813 680 l 2
 823 677 826 671 822 656 c 0
250 40 m 0
 312 40 336 132 275 132 c 0
 214 132 189 40 250 40 c 0
EndSplineSet
EndChar
StartChar: uni0E5A
Encoding: 250 3674 216
Width: 731
Flags: W
HStem: 459 21G<215 269.5> 542 56<264 276>
DStem: 450 432 598 594 330 -18 433 -18 687 594 790 594 522 -18 625 -18
Fore
433 -18 m 1
 330 -18 l 1
 450 432 l 1
 339 369 207 390 175 418 c 0
 106 478 180 598 276 598 c 0
 356 598 382 530 335 465 c 1
 449 467 502 565 510 594 c 1
 598 594 l 1
 433 -18 l 1
625 -18 m 1
 522 -18 l 1
 687 594 l 1
 790 594 l 1
 625 -18 l 1
243 459 m 0
 296 459 319 542 266 542 c 0
 210 542 187 459 243 459 c 0
EndSplineSet
EndChar
StartChar: uni0E5B
Encoding: 251 3675 217
Width: 1293
Flags: W
HStem: 37 67<300 326> 198 85<323 355> 389 40<350 362> 562 68<403 427>
VStem: 1026 48<295.07 367>
DStem: 731 436 797 611 713 69 777 270 880 372 938 554 869 63 928 273 906 554 880 372 777 270 745 69 1074 548 1026 367 928 273 869 63 1180 492 1150 350 1075 295 1031 112
Fore
1372 247 m 1
 1372 247 l 1
 1372 247 1338 281 1301 246 c 0
 1253 201 1201 181 1180 243 c 0
 1178 247 1157 329 1150 350 c 1
 1031 112 l 1
 1026 367 l 1
 869 63 l 1
 880 372 l 1
 745 69 l 1
 713 69 l 1
 731 436 l 1
 710 398 668 309 653 283 c 0
 541 86 413 37 300 37 c 0
 149 37 49 160 97 338 c 0
 147 527 287 630 425 630 c 0
 743 630 584 198 355 198 c 0
 270 198 224 253 247 338 c 0
 261 387 309 429 362 429 c 0
 415 429 439 390 425 338 c 0
 410 283 369 258 362 260 c 1
 362 257 l 1
 505 253 637 562 406 562 c 0
 310 562 204 478 167 336 c 0
 131 200 206 108 319 104 c 0
 395 104 504 149 591 303 c 0
 627 364 651 404 765 611 c 1
 797 611 l 1
 777 270 l 1
 906 554 l 1
 938 554 l 1
 928 273 l 1
 1074 548 l 1
 1075 295 l 1
 1180 492 l 1
 1209 347 1223 295 1223 295 c 1
 1230 264 1246 249 1284 289 c 0
 1333 339 1387 306 1387 306 c 1
 1372 247 l 1
381 336 m 0
 387 361 378 389 352 389 c 0
 323 389 301 361 295 336 c 0
 286 306 298 283 323 283 c 0
 349 283 372 306 381 336 c 0
EndSplineSet
EndChar
StartChar: uni0E38.low
Encoding: 252 63256 218
Width: 0
Flags: W
HStem: -392 40<-288 -267>
Fore
-198 -458 m 1
 -286 -458 l 1
 -267 -392 l 1
 -273 -392 -281 -392 -290 -392 c 0
 -395 -392 -355 -243 -250 -233 c 1
 -184 -230 -151 -261 -161 -321 c 1
 -198 -458 l 1
-232 -313 m 0
 -226 -293 -241 -275 -258 -275 c 0
 -283 -275 -303 -290 -309 -313 c 0
 -315 -336 -301 -352 -278 -352 c 0
 -255 -352 -238 -336 -232 -313 c 0
EndSplineSet
EndChar
StartChar: uni0E39.low
Encoding: 253 63257 219
Width: 0
Flags: W
HStem: -476 54<-296 -290> -387 35<-395 -382> -275 35<-366 -353>
DStem: -227 -240 -138 -240 -270 -402 -175 -379
Fore
-175 -379 m 1
 -175 -379 l 0
 -189 -432 -233 -476 -296 -476 c 0
 -359 -476 -389 -442 -375 -390 c 2
 -373 -384 l 1
 -378 -386 -386 -387 -393 -387 c 0
 -495 -386 -456 -240 -353 -240 c 0
 -292 -240 -276 -276 -293 -330 c 1
 -312 -402 l 2
 -315 -415 -309 -422 -296 -422 c 0
 -286 -422 -275 -416 -270 -402 c 1
 -227 -240 l 1
 -138 -240 l 1
 -175 -379 l 1
-336 -313 m 0
 -330 -293 -344 -275 -364 -275 c 0
 -390 -275 -407 -290 -413 -313 c 0
 -419 -336 -409 -352 -384 -352 c 0
 -359 -352 -343 -336 -336 -313 c 0
EndSplineSet
EndChar
StartChar: uni0E3A.low
Encoding: 254 63258 220
Width: 0
Flags: W
Fore
-212 -335 m 0
 -295 -335 -264 -217 -181 -217 c 0
 -104 -217 -137 -335 -212 -335 c 0
EndSplineSet
EndChar
StartChar: multiply
Encoding: 256 215 222
Width: 619
Flags: W
DStem: 198 458 278 521 319 286 402 352 319 286 367 220 104 118 152 51 367 220 452 286 495 49 574 117 617 521 665 458 402 352 452 286
Fore
574 117 m 1
 495 49 l 1
 367 220 l 1
 152 51 l 1
 104 118 l 1
 319 286 l 1
 198 458 l 1
 278 521 l 1
 402 352 l 1
 617 521 l 1
 665 458 l 1
 452 286 l 1
 574 117 l 1
EndSplineSet
EndChar
StartChar: divide
Encoding: 257 247 223
Width: 546
Flags: W
HStem: 2 129<273 309> 212 81<97 584> 375 130<373 409>
Fore
456 439 m 0
 456 439 l 0
 445 401 409 375 373 375 c 0
 338 375 318 407 327 439 c 0
 336 475 370 505 409 505 c 0
 444 505 467 479 456 439 c 0
584 212 m 1
 77 212 l 1
 98 293 l 1
 605 293 l 1
 584 212 l 1
356 66 m 0
 346 26 309 2 273 2 c 0
 238 2 217 31 227 66 c 0
 235 98 270 131 309 131 c 0
 344 131 366 101 356 66 c 0
EndSplineSet
EndChar
StartChar: registered
Encoding: 258 174 224
Width: 774
Flags: W
HStem: -25 70<377 407> 309 41<433 453> 485 39<365 384 366 487> 613 69<551 576>
DStem: 392 468 473 458 321 204 444 352 392 468 433 309 321 204 406 204
Fore
608 147 m 1
 535 147 l 0
 504 147 495 190 487 232 c 0
 473 296 485 309 433 309 c 1
 406 204 l 1
 401 192 406 189 415 187 c 2
 439 184 l 1
 430 147 l 1
 264 147 l 1
 273 186 l 1
 296 187 l 2
 310 189 318 194 321 204 c 2
 392 468 l 1
 395 484 395 485 378 485 c 2
 356 485 l 1
 366 524 l 1
 536 524 l 2
 624 524 659 495 642 429 c 0
 628 378 582 330 538 326 c 1
 567 318 568 283 574 253 c 0
 584 221 578 187 617 186 c 1
 608 147 l 1
554 421 m 0
 554 421 l 0
 567 465 548 488 507 485 c 2
 487 484 l 2
 479 484 475 467 473 458 c 1
 444 352 l 1
 453 350 l 2
 499 350 541 364 554 421 c 0
192 329 m 0
 151 172 244 45 401 45 c 0
 558 45 719 172 760 329 c 0
 803 485 710 613 553 613 c 0
 396 613 235 485 192 329 c 0
 192 329 l 0
121 329 m 0
 174 524 375 682 570 682 c 0
 765 682 880 524 828 329 c 0
 776 134 576 -25 381 -25 c 0
 186 -25 69 134 121 329 c 0
EndSplineSet
MinimumDistance: x10,5 
EndChar
StartChar: fi
Encoding: 259 64257 65535
Width: 555
Flags: HW
HStem: 0 21G<15 256 300 536> 417 44<112 160 308 415> 661 30<427 448>
VStem: 467 134<582 612> 486 115<612 634>
DStem: 160 417 299 417 88 83 227 81 429 382 587 473 366 81 504 81
Fore
601 612 m 0xf0
 601 566 561 539 521 539 c 0
 488 539 467 555 467 582 c 0xf0
 467 599 475 615 483 627 c 0
 485 630 486 633 486 634 c 2
 486 637 l 2xe8
 486 650 467 661 438 661 c 0
 406 661 379 650 362 628 c 0
 341 601 330 565 308 461 c 1
 415 461 l 2
 450 461 494 464 587 473 c 1
 504 81 l 2
 502 72 501 64 501 57 c 0
 501 35 513 26 541 23 c 1
 536 0 l 1
 300 0 l 1
 305 23 l 1
 343 28 357 41 366 81 c 2
 429 382 l 2
 431 388 431 394 431 398 c 0
 431 412 423 417 403 417 c 2
 299 417 l 1
 227 81 l 2
 226 72 224 64 224 57 c 0
 224 37 234 28 261 23 c 1
 256 0 l 1
 15 0 l 1
 19 23 l 1
 67 29 79 41 88 83 c 2
 160 417 l 1
 104 417 l 1
 113 461 l 1
 168 461 l 1
 190 549 215 598 262 637 c 0
 309 672 368 691 441 691 c 0
 542 691 601 662 601 612 c 0xf0
EndSplineSet
Ligature: 0 2 'liga' f i
LCarets: 0 65535 '    ' 1 0 
EndChar
StartChar: fl
Encoding: 260 64258 65535
Width: 555
Flags: HW
HStem: 0 21G<15 256 300 536> 417 44<112 160 308 438> 658 33<417 449>
DStem: 160 417 299 417 88 83 227 81 438 417 633 690 366 81 504 81
Fore
438 417 m 1
 299 417 l 1
 227 81 l 2
 226 72 224 64 224 57 c 0
 224 37 234 28 261 23 c 1
 256 0 l 1
 15 0 l 1
 19 23 l 1
 67 29 79 41 88 83 c 2
 160 417 l 1
 104 417 l 1
 113 461 l 1
 168 461 l 1
 192 552 214 598 253 633 c 0
 294 671 352 691 417 691 c 0
 472 691 511 683 561 661 c 1
 615 690 l 1
 633 690 l 1
 504 81 l 2
 502 73 501 66 501 59 c 0
 501 32 519 25 541 23 c 1
 536 0 l 1
 300 0 l 1
 305 23 l 1
 342 29 357 39 366 81 c 2
 438 417 l 1
447 461 m 1
 467 560 l 1
 457 562 451 573 451 586 c 0
 451 589 453 592 453 595 c 0
 455 604 475 625 475 637 c 2
 475 640 l 2
 475 652 460 658 437 658 c 0
 371 658 343 625 321 523 c 2
 308 461 l 1
 447 461 l 1
EndSplineSet
Ligature: 0 2 'liga' f l
LCarets: 0 65535 '    ' 1 0 
EndChar
StartChar: ff
Encoding: 261 64256 65535
Width: 609
Flags: HW
HStem: 0 21G<15 256 300 536> 417 44<112 160 308 438 584 664> 661 30<438 449 677 679>
VStem: 702 92<608 645>
DStem: 160 417 299 417 88 83 227 81 438 417 576 417 366 81 504 81
Fore
666 571 m 0
 666 607 698 622 702 642 c 2
 702 645 l 2
 702 658 687 661 677 661 c 0
 631 661 617 617 611 583 c 2
 584 461 l 1
 672 461 l 1
 664 417 l 1
 576 417 l 1
 504 81 l 2
 502 73 501 66 501 59 c 0
 501 37 513 25 541 23 c 1
 536 0 l 1
 300 0 l 1
 305 23 l 1
 344 26 359 45 366 81 c 2
 438 417 l 1
 299 417 l 1
 227 81 l 2
 226 72 224 64 224 59 c 0
 224 38 234 26 261 23 c 1
 256 0 l 1
 15 0 l 1
 19 23 l 1
 62 29 78 37 88 83 c 2
 160 417 l 1
 104 417 l 1
 113 461 l 1
 168 461 l 1
 202 608 280 691 438 691 c 0
 482 691 529 686 565 666 c 1
 601 686 640 691 677 691 c 0
 729 691 794 666 794 608 c 0
 794 602 794 596 792 590 c 0
 784 554 753 529 716 529 c 0
 690 529 666 546 666 571 c 0
467 582 m 0
 467 603 476 619 486 633 c 0
 486 637 l 0
 486 656 453 661 438 661 c 0
 335 661 322 532 308 461 c 1
 447 461 l 1
 454 494 461 527 473 560 c 1
 469 565 467 573 467 582 c 0
EndSplineSet
Ligature: 0 2 'liga' f f
LCarets: 0 65535 '    ' 1 0 
EndChar
StartChar: ffi
Encoding: 262 64259 65535
Width: 832
Flags: HW
HStem: 0 21G<15 256 300 535 579 813> 417 44<112 160 308 438 584 693> 661 30<438 449 715 720>
VStem: 744 133<582 614> 763 114<614 637>
DStem: 160 417 299 417 88 83 227 81 438 417 576 417 366 81 504 81 706 382 866 473 643 81 782 81
Fore
744 582 m 0xf0
 744 603 753 619 763 633 c 0
 763 637 l 0xe8
 763 656 729 661 715 661 c 0
 612 661 599 532 584 461 c 1
 691 461 l 2
 749 461 807 469 866 473 c 1
 782 81 l 2
 781 72 779 64 779 59 c 0
 779 37 790 25 817 23 c 1
 813 0 l 1
 579 0 l 1
 583 23 l 1
 623 26 636 47 643 81 c 2
 706 382 l 2
 707 388 707 394 707 398 c 0
 707 412 700 417 680 417 c 2
 576 417 l 1
 504 81 l 2
 502 72 501 66 501 59 c 0
 501 38 511 26 539 23 c 1
 535 0 l 1
 300 0 l 1
 305 23 l 1
 344 26 359 47 366 81 c 2
 438 417 l 1
 299 417 l 1
 227 81 l 2
 226 72 224 64 224 59 c 0
 224 38 234 26 261 23 c 1
 256 0 l 1
 15 0 l 1
 19 23 l 1
 62 29 78 37 88 83 c 2
 160 417 l 1
 104 417 l 1
 113 461 l 1
 168 461 l 1
 202 608 280 691 438 691 c 0
 485 691 541 684 577 661 c 1
 620 684 669 691 715 691 c 0
 769 691 877 680 877 614 c 0
 877 565 837 539 797 539 c 0
 769 539 744 554 744 582 c 0xf0
467 583 m 0
 467 602 476 619 486 633 c 0
 486 637 l 0
 486 656 453 661 438 661 c 0
 335 661 322 532 308 461 c 1
 447 461 l 1
 454 494 461 524 478 557 c 1
 472 562 467 573 467 583 c 0
EndSplineSet
LCarets: 0 65535 '    ' 2 0 0 
Ligature: 0 2 'liga' ff i
Ligature: 0 2 'liga' f f i
EndChar
StartChar: ffl
Encoding: 263 64260 65535
Width: 832
Flags: HW
HStem: 0 21G<15 256 300 535 579 813> 417 44<112 160 308 438 584 715> 658 33<700 726>
DStem: 160 417 299 417 88 83 227 81 438 417 576 417 366 81 504 81 715 417 911 690 643 81 782 81
Fore
813 0 m 1
 579 0 l 1
 583 23 l 1
 621 26 636 47 643 81 c 2
 715 417 l 1
 576 417 l 1
 504 81 l 2
 502 72 501 66 501 59 c 0
 501 38 511 26 539 23 c 1
 535 0 l 1
 300 0 l 1
 305 23 l 1
 344 26 359 47 366 81 c 2
 438 417 l 1
 299 417 l 1
 227 81 l 2
 226 72 224 64 224 59 c 0
 224 38 234 26 261 23 c 1
 256 0 l 1
 15 0 l 1
 19 23 l 1
 62 29 78 37 88 83 c 2
 160 417 l 1
 104 417 l 1
 113 461 l 1
 168 461 l 1
 202 608 280 691 438 691 c 0
 483 691 538 686 571 662 c 1
 614 686 659 691 702 691 c 0
 747 691 803 680 839 661 c 1
 892 690 l 1
 911 690 l 1
 782 81 l 2
 781 72 779 64 779 57 c 0
 779 37 790 25 817 23 c 1
 813 0 l 1
729 589 m 0
 729 611 749 622 751 636 c 0
 751 640 l 0
 751 658 725 658 709 658 c 0
 631 658 611 589 599 529 c 2
 584 461 l 1
 724 461 l 1
 744 560 l 1
 732 562 729 577 729 589 c 0
467 580 m 0
 467 602 476 618 486 633 c 0
 486 637 l 0
 486 656 453 661 438 661 c 0
 335 661 322 532 308 461 c 1
 447 461 l 1
 454 494 461 524 476 557 c 1
 470 562 467 571 467 580 c 0
EndSplineSet
LCarets: 0 65535 '    ' 2 0 0 
Ligature: 0 2 'liga' ff l
Ligature: 0 2 'liga' f f l
EndChar
